STARTFONT 2.1
COMMENT
COMMENT Converted from OpenType font "RobotoSlab-VariableFont_wght.ttf" by "otf2bdf 3.0".
COMMENT
FONT -FreeType-Roboto Slab-Medium-R-Normal--22-160-100-100-P-120-ISO10646-1
SIZE 16 100 100
FONTBOUNDINGBOX 31 28 -4 -6
STARTPROPERTIES 19
FOUNDRY "FreeType"
FAMILY_NAME "Roboto Slab"
WEIGHT_NAME "Medium"
SLANT "R"
SETWIDTH_NAME "Normal"
ADD_STYLE_NAME ""
PIXEL_SIZE 22
POINT_SIZE 160
RESOLUTION_X 100
RESOLUTION_Y 100
SPACING "P"
AVERAGE_WIDTH 120
CHARSET_REGISTRY "ISO10646"
CHARSET_ENCODING "1"
FONT_ASCENT 23
FONT_DESCENT 5
COPYRIGHT "Copyright 2018 The Roboto Slab Project Authors (https://github.com/googlefonts/robotoslab)"
_OTF_FONTFILE "RobotoSlab-VariableFont_wght.ttf"
_OTF_PSNAME "RobotoSlab-Regular"
ENDPROPERTIES
CHARS 902
STARTCHAR 000D
ENCODING 13
SWIDTH 225 0
DWIDTH 5 0
BBX 0 0 0 0
BITMAP
ENDCHAR
STARTCHAR 0020
ENCODING 32
SWIDTH 225 0
DWIDTH 5 0
BBX 0 0 0 0
BITMAP
ENDCHAR
STARTCHAR 0021
ENCODING 33
SWIDTH 225 0
DWIDTH 5 0
BBX 2 16 2 0
BITMAP
C0
C0
C0
C0
C0
C0
C0
C0
C0
C0
C0
00
00
00
C0
C0
ENDCHAR
STARTCHAR 0022
ENCODING 34
SWIDTH 360 0
DWIDTH 8 0
BBX 5 6 2 11
BITMAP
98
98
98
98
90
90
ENDCHAR
STARTCHAR 0023
ENCODING 35
SWIDTH 585 0
DWIDTH 13 0
BBX 12 16 1 0
BITMAP
0C40
0CC0
08C0
08C0
FFF0
FFF0
1980
1980
1180
1180
FFE0
FFE0
3300
2300
2300
6200
ENDCHAR
STARTCHAR 0024
ENCODING 36
SWIDTH 540 0
DWIDTH 12 0
BBX 10 21 1 -2
BITMAP
0C00
0C00
0C00
3F00
7380
6180
E0C0
E0C0
6000
7800
3E00
0F80
0180
00C0
C0C0
C0C0
E1C0
7F80
3E00
0C00
0C00
ENDCHAR
STARTCHAR 0025
ENCODING 37
SWIDTH 720 0
DWIDTH 16 0
BBX 14 16 1 0
BITMAP
7800
CC00
8420
8460
84C0
CC80
7980
0300
0200
0678
04C8
0D8C
198C
318C
10C8
0070
ENDCHAR
STARTCHAR 0026
ENCODING 38
SWIDTH 630 0
DWIDTH 14 0
BBX 12 16 1 0
BITMAP
1E00
3F00
7180
6180
6180
3300
3E00
1C00
7C00
E630
C730
C3E0
C1E0
E0C0
7FE0
3F70
ENDCHAR
STARTCHAR 0027
ENCODING 39
SWIDTH 225 0
DWIDTH 5 0
BBX 1 6 2 11
BITMAP
80
80
80
80
80
80
ENDCHAR
STARTCHAR 0028
ENCODING 40
SWIDTH 315 0
DWIDTH 7 0
BBX 6 23 1 -5
BITMAP
04
0C
18
30
30
60
60
60
60
C0
C0
C0
C0
C0
E0
60
60
60
30
30
18
0C
04
ENDCHAR
STARTCHAR 0029
ENCODING 41
SWIDTH 315 0
DWIDTH 7 0
BBX 6 23 0 -5
BITMAP
80
C0
60
30
30
18
18
18
0C
0C
0C
0C
0C
0C
0C
18
18
18
30
30
60
C0
80
ENDCHAR
STARTCHAR 002A
ENCODING 42
SWIDTH 450 0
DWIDTH 10 0
BBX 9 9 1 7
BITMAP
1800
1800
1800
FB00
7F80
1C00
3C00
6600
6200
ENDCHAR
STARTCHAR 002B
ENCODING 43
SWIDTH 540 0
DWIDTH 12 0
BBX 11 12 1 2
BITMAP
0C00
0C00
0C00
0C00
0C00
FFE0
FFE0
0C00
0C00
0C00
0C00
0C00
ENDCHAR
STARTCHAR 002C
ENCODING 44
SWIDTH 180 0
DWIDTH 4 0
BBX 3 6 0 -4
BITMAP
60
60
60
60
E0
40
ENDCHAR
STARTCHAR 002D
ENCODING 45
SWIDTH 405 0
DWIDTH 9 0
BBX 5 2 2 6
BITMAP
F8
F8
ENDCHAR
STARTCHAR 002E
ENCODING 46
SWIDTH 225 0
DWIDTH 5 0
BBX 2 2 2 0
BITMAP
C0
C0
ENDCHAR
STARTCHAR 002F
ENCODING 47
SWIDTH 405 0
DWIDTH 9 0
BBX 8 17 0 -1
BITMAP
03
03
02
06
06
0C
0C
08
18
18
30
30
30
60
60
40
C0
ENDCHAR
STARTCHAR 0030
ENCODING 48
SWIDTH 585 0
DWIDTH 13 0
BBX 10 16 1 0
BITMAP
1F00
3F80
61C0
60C0
E0C0
C0C0
C0C0
C0C0
C0C0
C0C0
C0C0
E0C0
60C0
61C0
3F80
1F00
ENDCHAR
STARTCHAR 0031
ENCODING 49
SWIDTH 405 0
DWIDTH 9 0
BBX 7 16 1 0
BITMAP
18
F8
F8
18
18
18
18
18
18
18
18
18
18
18
3C
FE
ENDCHAR
STARTCHAR 0032
ENCODING 50
SWIDTH 540 0
DWIDTH 12 0
BBX 10 16 1 0
BITMAP
3E00
7F80
E180
C1C0
C0C0
01C0
0180
0380
0700
0600
0C00
1800
3000
60C0
FFC0
FFC0
ENDCHAR
STARTCHAR 0033
ENCODING 51
SWIDTH 540 0
DWIDTH 12 0
BBX 10 16 1 0
BITMAP
3E00
7F00
E180
C180
0180
0180
0180
1F00
1F00
0180
01C0
00C0
C1C0
C180
7F80
3E00
ENDCHAR
STARTCHAR 0034
ENCODING 52
SWIDTH 585 0
DWIDTH 13 0
BBX 11 16 1 0
BITMAP
0380
0380
0780
0F80
0D80
1980
1980
3180
7180
6180
C180
FFE0
FFE0
0180
0180
07E0
ENDCHAR
STARTCHAR 0035
ENCODING 53
SWIDTH 540 0
DWIDTH 12 0
BBX 10 16 1 0
BITMAP
7F80
7F80
6080
6000
6000
5E00
FF00
E380
4180
0180
01C0
01C0
C180
E180
7F00
3E00
ENDCHAR
STARTCHAR 0036
ENCODING 54
SWIDTH 540 0
DWIDTH 12 0
BBX 10 16 1 0
BITMAP
0F80
3F80
3000
6000
6000
E600
DF80
E1C0
E0C0
C0C0
C0C0
E0C0
60C0
71C0
3F80
1F00
ENDCHAR
STARTCHAR 0037
ENCODING 55
SWIDTH 540 0
DWIDTH 12 0
BBX 10 16 1 0
BITMAP
FFC0
FFC0
C0C0
C180
0300
0300
0600
0600
0C00
0C00
0C00
1C00
1800
1800
1800
1800
ENDCHAR
STARTCHAR 0038
ENCODING 56
SWIDTH 540 0
DWIDTH 12 0
BBX 10 16 1 0
BITMAP
1E00
7F80
6180
E1C0
E0C0
61C0
6180
3F00
3F00
6180
C0C0
C0C0
C0C0
E1C0
7F80
3F00
ENDCHAR
STARTCHAR 0039
ENCODING 57
SWIDTH 540 0
DWIDTH 12 0
BBX 10 16 1 0
BITMAP
1E00
7F80
6180
C0C0
C0C0
C0C0
C0C0
C0C0
61C0
7FC0
1CC0
00C0
0180
0180
7F00
3E00
ENDCHAR
STARTCHAR 003A
ENCODING 58
SWIDTH 225 0
DWIDTH 5 0
BBX 2 11 2 0
BITMAP
C0
C0
00
00
00
00
00
00
00
C0
C0
ENDCHAR
STARTCHAR 003B
ENCODING 59
SWIDTH 225 0
DWIDTH 5 0
BBX 3 15 1 -4
BITMAP
60
60
00
00
00
00
00
00
00
60
60
60
C0
C0
80
ENDCHAR
STARTCHAR 003C
ENCODING 60
SWIDTH 495 0
DWIDTH 11 0
BBX 9 10 1 1
BITMAP
0080
0380
1F00
7C00
E000
E000
7C00
0F00
0380
0080
ENDCHAR
STARTCHAR 003D
ENCODING 61
SWIDTH 540 0
DWIDTH 12 0
BBX 9 6 2 4
BITMAP
FF80
FF80
0000
0000
FF80
FF80
ENDCHAR
STARTCHAR 003E
ENCODING 62
SWIDTH 495 0
DWIDTH 11 0
BBX 10 10 1 1
BITMAP
8000
E000
7800
1F00
03C0
01C0
0F00
7C00
F000
C000
ENDCHAR
STARTCHAR 003F
ENCODING 63
SWIDTH 450 0
DWIDTH 10 0
BBX 9 16 1 0
BITMAP
3E00
FF00
C300
C380
0380
0300
0300
0600
0C00
1800
1800
1800
0000
0000
1800
1800
ENDCHAR
STARTCHAR 0040
ENCODING 64
SWIDTH 900 0
DWIDTH 20 0
BBX 17 21 1 -5
BITMAP
03F000
0E1C00
180600
300300
200100
61F180
433080
C61080
C63080
C63080
C63080
C43080
CC3180
C63180
C7F300
439E00
600000
600000
300000
1C3000
07E000
ENDCHAR
STARTCHAR 0041
ENCODING 65
SWIDTH 720 0
DWIDTH 16 0
BBX 15 16 1 0
BITMAP
0300
0380
0780
0780
06C0
0CC0
0C60
0C60
1860
1830
3FF0
3FF0
3018
6018
601C
F03E
ENDCHAR
STARTCHAR 0042
ENCODING 66
SWIDTH 630 0
DWIDTH 14 0
BBX 12 16 1 0
BITMAP
FF80
7FE0
3060
3030
3030
3030
3060
3FC0
3FE0
3030
3030
3030
3030
3030
7FE0
FFC0
ENDCHAR
STARTCHAR 0043
ENCODING 67
SWIDTH 630 0
DWIDTH 14 0
BBX 12 16 1 0
BITMAP
0FC0
3FE0
7030
6030
E030
C000
C000
C000
C000
C000
C000
E030
6030
7030
3FF0
0FC0
ENDCHAR
STARTCHAR 0044
ENCODING 68
SWIDTH 675 0
DWIDTH 15 0
BBX 13 16 1 0
BITMAP
FF80
7FC0
3060
3030
3030
3038
3018
3018
3018
3018
3038
3030
3030
3060
7FC0
FF80
ENDCHAR
STARTCHAR 0045
ENCODING 69
SWIDTH 630 0
DWIDTH 14 0
BBX 12 16 1 0
BITMAP
FFE0
FFE0
3020
3020
3000
3000
3000
3FC0
3FC0
3000
3000
3000
3030
3030
7FF0
FFF0
ENDCHAR
STARTCHAR 0046
ENCODING 70
SWIDTH 630 0
DWIDTH 14 0
BBX 12 16 1 0
BITMAP
FFF0
FFF0
3030
3030
3000
3000
3000
3F80
3F80
3000
3000
3000
3000
3000
7800
F800
ENDCHAR
STARTCHAR 0047
ENCODING 71
SWIDTH 630 0
DWIDTH 14 0
BBX 12 16 1 0
BITMAP
0FC0
3FF0
7030
6030
E030
C000
C000
C000
C1F0
C1F0
C030
E030
6030
3030
3FF0
0FC0
ENDCHAR
STARTCHAR 0048
ENCODING 72
SWIDTH 765 0
DWIDTH 17 0
BBX 15 16 1 0
BITMAP
F87E
F83E
3018
3018
3018
3018
3018
3FF8
3FF8
3018
3018
3018
3018
3018
783C
F87E
ENDCHAR
STARTCHAR 0049
ENCODING 73
SWIDTH 315 0
DWIDTH 7 0
BBX 5 16 1 0
BITMAP
F8
F8
30
30
30
30
30
30
30
30
30
30
30
30
78
F8
ENDCHAR
STARTCHAR 004A
ENCODING 74
SWIDTH 585 0
DWIDTH 13 0
BBX 11 16 1 0
BITMAP
07E0
07E0
0180
0180
0180
0180
0180
0180
0180
0180
0180
C180
C180
C380
7F00
3E00
ENDCHAR
STARTCHAR 004B
ENCODING 75
SWIDTH 720 0
DWIDTH 16 0
BBX 14 16 1 0
BITMAP
F87C
F87C
3070
30E0
31C0
3180
3300
3700
3F80
3980
30C0
30E0
3070
3030
783C
F87C
ENDCHAR
STARTCHAR 004C
ENCODING 76
SWIDTH 585 0
DWIDTH 13 0
BBX 11 16 1 0
BITMAP
F800
F800
3000
3000
3000
3000
3000
3000
3000
3000
3000
3000
3060
3060
7FE0
FFE0
ENDCHAR
STARTCHAR 004D
ENCODING 77
SWIDTH 945 0
DWIDTH 21 0
BBX 19 16 1 0
BITMAP
F803E0
F803E0
3C03C0
3C06C0
3C06C0
360CC0
360CC0
330CC0
3318C0
3398C0
31B0C0
31B0C0
30F0C0
30E0C0
7863E0
FC03E0
ENDCHAR
STARTCHAR 004E
ENCODING 78
SWIDTH 765 0
DWIDTH 17 0
BBX 15 16 1 0
BITMAP
F03E
F83E
3808
3C08
3E08
3608
3308
3308
3188
31C8
30C8
3068
3068
3038
7818
FC18
ENDCHAR
STARTCHAR 004F
ENCODING 79
SWIDTH 675 0
DWIDTH 15 0
BBX 13 16 1 0
BITMAP
0F80
3FC0
7060
6030
C030
C038
C018
C018
C018
C018
C038
C030
6030
7060
3FC0
0F80
ENDCHAR
STARTCHAR 0050
ENCODING 80
SWIDTH 630 0
DWIDTH 14 0
BBX 12 16 1 0
BITMAP
FFC0
7FE0
3070
3030
3030
3030
3030
3070
3FE0
3F80
3000
3000
3000
3000
7800
F800
ENDCHAR
STARTCHAR 0051
ENCODING 81
SWIDTH 675 0
DWIDTH 15 0
BBX 13 18 1 -2
BITMAP
0F80
3FC0
7060
6030
C030
C038
C018
C018
C018
C018
C038
C030
6030
7060
3FE0
0FF0
0038
0018
ENDCHAR
STARTCHAR 0052
ENCODING 82
SWIDTH 675 0
DWIDTH 15 0
BBX 13 16 1 0
BITMAP
FFC0
7FE0
3070
3030
3030
3030
3070
3FE0
3FC0
3180
30C0
30C0
3060
3060
7830
F838
ENDCHAR
STARTCHAR 0053
ENCODING 83
SWIDTH 585 0
DWIDTH 13 0
BBX 11 16 1 0
BITMAP
1F00
7FC0
60C0
C040
C040
E000
7000
3F00
0F80
01C0
0060
C060
C060
C0E0
7FC0
1F00
ENDCHAR
STARTCHAR 0054
ENCODING 84
SWIDTH 675 0
DWIDTH 15 0
BBX 13 16 1 0
BITMAP
FFF8
FFF8
C718
C718
0700
0700
0700
0700
0700
0700
0700
0700
0700
0700
0F80
0F80
ENDCHAR
STARTCHAR 0055
ENCODING 85
SWIDTH 720 0
DWIDTH 16 0
BBX 15 16 1 0
BITMAP
F87E
F87E
7018
7018
7018
7018
7018
7018
7018
7018
7018
3018
3038
3830
1FE0
07C0
ENDCHAR
STARTCHAR 0056
ENCODING 86
SWIDTH 720 0
DWIDTH 16 0
BBX 15 16 1 0
BITMAP
F83E
F83E
6018
3018
3030
3830
1860
1860
1C60
0CC0
0CC0
06C0
0780
0780
0380
0300
ENDCHAR
STARTCHAR 0057
ENCODING 87
SWIDTH 1035 0
DWIDTH 23 0
BBX 21 16 1 0
BITMAP
F870F8
F870F8
607030
305060
30D860
30D860
30D860
198C40
198CC0
198CC0
1B06C0
0B0680
0F0780
0E0380
0E0380
060300
ENDCHAR
STARTCHAR 0058
ENCODING 88
SWIDTH 720 0
DWIDTH 16 0
BBX 15 16 1 0
BITMAP
F87C
F87C
3030
1870
0C60
0EC0
0780
0380
0380
07C0
0CC0
1C60
1830
3038
701C
F87E
ENDCHAR
STARTCHAR 0059
ENCODING 89
SWIDTH 720 0
DWIDTH 16 0
BBX 14 16 1 0
BITMAP
F87C
F87C
7030
3030
1860
18C0
0CC0
0D80
0780
0700
0300
0300
0300
0300
0780
0FC0
ENDCHAR
STARTCHAR 005A
ENCODING 90
SWIDTH 585 0
DWIDTH 13 0
BBX 11 16 1 0
BITMAP
FFE0
FFE0
C0C0
C180
0380
0300
0600
0E00
0C00
1800
3800
3000
7060
6060
FFE0
FFE0
ENDCHAR
STARTCHAR 005B
ENCODING 91
SWIDTH 270 0
DWIDTH 6 0
BBX 4 22 2 -3
BITMAP
F0
F0
C0
C0
C0
C0
C0
C0
C0
C0
C0
C0
C0
C0
C0
C0
C0
C0
C0
C0
F0
F0
ENDCHAR
STARTCHAR 005C
ENCODING 92
SWIDTH 405 0
DWIDTH 9 0
BBX 9 17 0 -1
BITMAP
E000
6000
6000
3000
3000
1800
1800
1800
0C00
0C00
0C00
0600
0600
0300
0300
0300
0180
ENDCHAR
STARTCHAR 005D
ENCODING 93
SWIDTH 270 0
DWIDTH 6 0
BBX 4 22 0 -3
BITMAP
F0
F0
30
30
30
30
30
30
30
30
30
30
30
30
30
30
30
30
30
30
F0
F0
ENDCHAR
STARTCHAR 005E
ENCODING 94
SWIDTH 405 0
DWIDTH 9 0
BBX 8 8 1 8
BITMAP
18
38
38
2C
6C
66
C6
C7
ENDCHAR
STARTCHAR 005F
ENCODING 95
SWIDTH 585 0
DWIDTH 13 0
BBX 10 2 1 -2
BITMAP
FFC0
FFC0
ENDCHAR
STARTCHAR 0060
ENCODING 96
SWIDTH 225 0
DWIDTH 5 0
BBX 5 3 0 14
BITMAP
E0
30
18
ENDCHAR
STARTCHAR 0061
ENCODING 97
SWIDTH 540 0
DWIDTH 12 0
BBX 10 12 1 0
BITMAP
3E00
FF00
C180
C180
0180
3F80
7180
C180
C180
C380
FFC0
79C0
ENDCHAR
STARTCHAR 0062
ENCODING 98
SWIDTH 540 0
DWIDTH 12 0
BBX 12 17 0 0
BITMAP
F000
F000
3000
3000
3000
3780
3FC0
30E0
3060
3060
3060
3070
3060
3060
30E0
3FC0
2780
ENDCHAR
STARTCHAR 0063
ENCODING 99
SWIDTH 495 0
DWIDTH 11 0
BBX 10 12 1 0
BITMAP
1F00
7F80
6180
C080
C080
C000
C000
C000
C0C0
6180
7F80
1E00
ENDCHAR
STARTCHAR 0064
ENCODING 100
SWIDTH 585 0
DWIDTH 13 0
BBX 11 17 1 0
BITMAP
03C0
03C0
00C0
00C0
00C0
3CC0
7FC0
61C0
C0C0
C0C0
C0C0
C0C0
C0C0
C0C0
E1C0
7FE0
3CE0
ENDCHAR
STARTCHAR 0065
ENCODING 101
SWIDTH 495 0
DWIDTH 11 0
BBX 10 12 1 0
BITMAP
1E00
7F00
6180
C180
C180
FFC0
FFC0
C000
C000
6080
7F80
1F00
ENDCHAR
STARTCHAR 0066
ENCODING 102
SWIDTH 360 0
DWIDTH 8 0
BBX 7 17 1 0
BITMAP
1E
3E
30
30
70
FC
FC
70
70
70
70
70
70
70
70
F8
FC
ENDCHAR
STARTCHAR 0067
ENCODING 103
SWIDTH 540 0
DWIDTH 12 0
BBX 11 17 1 -5
BITMAP
3CE0
7FE0
61C0
C0C0
C0C0
C0C0
C0C0
C0C0
C0C0
E1C0
7FC0
3CC0
00C0
01C0
2180
7F80
3E00
ENDCHAR
STARTCHAR 0068
ENCODING 104
SWIDTH 630 0
DWIDTH 14 0
BBX 12 17 1 0
BITMAP
E000
E000
6000
6000
6000
6780
6FC0
70C0
6060
6060
6060
6060
6060
6060
6060
F0F0
F9F0
ENDCHAR
STARTCHAR 0069
ENCODING 105
SWIDTH 315 0
DWIDTH 7 0
BBX 5 17 1 0
BITMAP
70
70
00
00
00
F0
F0
70
70
70
70
70
70
70
70
F8
F8
ENDCHAR
STARTCHAR 006A
ENCODING 106
SWIDTH 270 0
DWIDTH 6 0
BBX 5 22 -1 -5
BITMAP
18
18
00
00
00
78
78
18
18
18
18
18
18
18
18
18
18
18
18
18
78
F0
ENDCHAR
STARTCHAR 006B
ENCODING 107
SWIDTH 630 0
DWIDTH 14 0
BBX 12 17 1 0
BITMAP
F000
7000
7000
7000
7000
73E0
71E0
7180
7300
7600
7E00
7F00
7380
7180
70C0
F8F0
F9F0
ENDCHAR
STARTCHAR 006C
ENCODING 108
SWIDTH 315 0
DWIDTH 7 0
BBX 5 17 1 0
BITMAP
F0
F0
70
70
70
70
70
70
70
70
70
70
70
70
70
F8
F8
ENDCHAR
STARTCHAR 006D
ENCODING 109
SWIDTH 945 0
DWIDTH 21 0
BBX 19 12 1 0
BITMAP
E78F00
FFDF80
30E180
30E1C0
3060C0
3060C0
3060C0
3060C0
3060C0
3060C0
F9F3E0
F9F3E0
ENDCHAR
STARTCHAR 006E
ENCODING 110
SWIDTH 630 0
DWIDTH 14 0
BBX 13 12 1 0
BITMAP
E780
FFC0
30E0
3060
3060
3060
3060
3060
3060
3060
F8F0
F9F8
ENDCHAR
STARTCHAR 006F
ENCODING 111
SWIDTH 540 0
DWIDTH 12 0
BBX 10 12 1 0
BITMAP
1E00
7F80
6180
C0C0
C0C0
C0C0
C0C0
C0C0
C0C0
6180
7F80
1E00
ENDCHAR
STARTCHAR 0070
ENCODING 112
SWIDTH 585 0
DWIDTH 13 0
BBX 12 17 0 -5
BITMAP
F7C0
7FE0
3860
3070
3030
3030
3030
3030
3030
3860
3FE0
37C0
3000
3000
3000
FC00
FC00
ENDCHAR
STARTCHAR 0071
ENCODING 113
SWIDTH 540 0
DWIDTH 12 0
BBX 11 17 1 -5
BITMAP
3CC0
7FC0
61C0
C1C0
C1C0
C1C0
C1C0
C1C0
C1C0
E1C0
7FC0
3DC0
01C0
01C0
01C0
03E0
03E0
ENDCHAR
STARTCHAR 0072
ENCODING 114
SWIDTH 405 0
DWIDTH 9 0
BBX 8 12 1 0
BITMAP
E7
FE
30
30
30
30
30
30
30
30
F8
F8
ENDCHAR
STARTCHAR 0073
ENCODING 115
SWIDTH 495 0
DWIDTH 11 0
BBX 9 12 1 0
BITMAP
3E00
7F00
E180
C180
E000
7C00
1F00
0380
C180
C180
FF00
7E00
ENDCHAR
STARTCHAR 0074
ENCODING 116
SWIDTH 360 0
DWIDTH 8 0
BBX 7 15 0 0
BITMAP
30
30
30
FE
FE
30
30
30
30
30
30
30
30
3E
1E
ENDCHAR
STARTCHAR 0075
ENCODING 117
SWIDTH 585 0
DWIDTH 13 0
BBX 12 12 1 0
BITMAP
E1C0
E1C0
60C0
60C0
60C0
60C0
60C0
60C0
60C0
70C0
3FF0
1EF0
ENDCHAR
STARTCHAR 0076
ENCODING 118
SWIDTH 585 0
DWIDTH 13 0
BBX 13 12 0 0
BITMAP
F8F8
78F0
3060
3060
18C0
18C0
18C0
0D80
0D80
0700
0700
0700
ENDCHAR
STARTCHAR 0077
ENCODING 119
SWIDTH 900 0
DWIDTH 20 0
BBX 18 12 1 0
BITMAP
F0C7C0
F1C3C0
61E180
61E300
336300
332300
333200
163600
1E1600
1E1E00
1C1C00
0C0C00
ENDCHAR
STARTCHAR 0078
ENCODING 120
SWIDTH 585 0
DWIDTH 13 0
BBX 13 12 0 0
BITMAP
78F0
78F0
38C0
1D80
0D80
0700
0700
0D80
19C0
38E0
7070
F8F8
ENDCHAR
STARTCHAR 0079
ENCODING 121
SWIDTH 585 0
DWIDTH 13 0
BBX 13 17 0 -5
BITMAP
F8F8
F8F0
3060
3060
18C0
18C0
1CC0
0D80
0D80
0700
0700
0700
0600
0600
0E00
3C00
3800
ENDCHAR
STARTCHAR 007A
ENCODING 122
SWIDTH 495 0
DWIDTH 11 0
BBX 9 12 1 0
BITMAP
FF80
FF80
C300
C600
0E00
0C00
1800
3800
7080
6080
FF80
FF80
ENDCHAR
STARTCHAR 007B
ENCODING 123
SWIDTH 360 0
DWIDTH 8 0
BBX 6 21 1 -4
BITMAP
0C
18
30
30
30
30
30
30
30
E0
E0
70
30
30
30
30
30
30
18
1C
04
ENDCHAR
STARTCHAR 007C
ENCODING 124
SWIDTH 225 0
DWIDTH 5 0
BBX 1 19 2 -3
BITMAP
80
80
80
80
80
80
80
80
80
80
80
80
80
80
80
80
80
80
80
ENDCHAR
STARTCHAR 007D
ENCODING 125
SWIDTH 360 0
DWIDTH 8 0
BBX 7 21 0 -4
BITMAP
E0
70
30
30
38
38
38
38
18
1E
0E
18
18
38
38
38
38
30
30
E0
40
ENDCHAR
STARTCHAR 007E
ENCODING 126
SWIDTH 675 0
DWIDTH 15 0
BBX 13 4 1 4
BITMAP
3C28
7E10
C7F0
01E0
ENDCHAR
STARTCHAR 00A0
ENCODING 160
SWIDTH 225 0
DWIDTH 5 0
BBX 0 0 0 0
BITMAP
ENDCHAR
STARTCHAR 00A1
ENCODING 161
SWIDTH 225 0
DWIDTH 5 0
BBX 2 16 2 -4
BITMAP
C0
C0
00
00
00
C0
C0
C0
C0
C0
C0
C0
C0
C0
C0
C0
ENDCHAR
STARTCHAR 00A2
ENCODING 162
SWIDTH 540 0
DWIDTH 12 0
BBX 10 17 1 -3
BITMAP
0C00
0C00
0E00
3F80
71C0
60C0
C0C0
C000
C000
C000
C000
60C0
7180
3F00
0C00
0C00
0C00
ENDCHAR
STARTCHAR 00A3
ENCODING 163
SWIDTH 585 0
DWIDTH 13 0
BBX 11 16 1 0
BITMAP
1F00
3F80
30C0
70C0
6000
6000
6000
FF00
FF00
3000
3000
3000
7060
6060
FFE0
FFE0
ENDCHAR
STARTCHAR 00A4
ENCODING 164
SWIDTH 720 0
DWIDTH 16 0
BBX 14 14 1 0
BITMAP
4798
FFFC
7878
7030
6018
6018
C018
C018
6018
6018
7030
7878
FFFC
4F88
ENDCHAR
STARTCHAR 00A5
ENCODING 165
SWIDTH 675 0
DWIDTH 15 0
BBX 13 16 1 0
BITMAP
F078
F078
3060
3060
18C0
1DC0
0D80
0F80
7FF0
0700
0700
7FF0
0700
0700
0F80
0F80
ENDCHAR
STARTCHAR 00A6
ENCODING 166
SWIDTH 225 0
DWIDTH 5 0
BBX 2 19 2 -3
BITMAP
C0
C0
C0
C0
C0
C0
C0
C0
00
00
C0
C0
C0
C0
C0
C0
C0
C0
C0
ENDCHAR
STARTCHAR 00A7
ENCODING 167
SWIDTH 585 0
DWIDTH 13 0
BBX 11 22 1 -6
BITMAP
1F00
7FC0
60E0
E060
E060
6000
7800
3F00
EFC0
C1E0
C060
C060
7060
3EE0
0F80
01C0
00E0
C060
C060
60C0
7FC0
0E00
ENDCHAR
STARTCHAR 00A8
ENCODING 168
SWIDTH 360 0
DWIDTH 8 0
BBX 7 2 0 15
BITMAP
E6
E6
ENDCHAR
STARTCHAR 00A9
ENCODING 169
SWIDTH 765 0
DWIDTH 17 0
BBX 15 16 1 0
BITMAP
07C0
1C70
3018
67CC
4EE4
CC66
8802
8802
8802
8802
CC62
4C66
67CC
3008
1830
0FE0
ENDCHAR
STARTCHAR 00AA
ENCODING 170
SWIDTH 450 0
DWIDTH 10 0
BBX 7 9 1 7
BITMAP
3C
7E
46
06
7E
E6
C6
FE
7E
ENDCHAR
STARTCHAR 00AB
ENCODING 171
SWIDTH 450 0
DWIDTH 10 0
BBX 8 9 1 2
BITMAP
13
32
66
CC
D8
CC
64
26
33
ENDCHAR
STARTCHAR 00AC
ENCODING 172
SWIDTH 540 0
DWIDTH 12 0
BBX 9 5 1 4
BITMAP
FF80
FF80
0180
0180
0180
ENDCHAR
STARTCHAR 00AD
ENCODING 173
SWIDTH 405 0
DWIDTH 9 0
BBX 5 2 2 6
BITMAP
F8
F8
ENDCHAR
STARTCHAR 00AE
ENCODING 174
SWIDTH 765 0
DWIDTH 17 0
BBX 15 16 1 0
BITMAP
07C0
1C70
3018
6FCC
4C64
CC66
8C62
8C62
8FC2
8C62
CC62
4C66
6C6C
3008
1830
0FE0
ENDCHAR
STARTCHAR 00AF
ENCODING 175
SWIDTH 405 0
DWIDTH 9 0
BBX 8 2 0 15
BITMAP
FF
FF
ENDCHAR
STARTCHAR 00B0
ENCODING 176
SWIDTH 360 0
DWIDTH 8 0
BBX 6 5 1 11
BITMAP
78
4C
CC
CC
78
ENDCHAR
STARTCHAR 00B1
ENCODING 177
SWIDTH 495 0
DWIDTH 11 0
BBX 10 14 1 0
BITMAP
0C00
0C00
0C00
0C00
0C00
FFC0
FFC0
0C00
0C00
0C00
0C00
0000
FF80
FF80
ENDCHAR
STARTCHAR 00B2
ENCODING 178
SWIDTH 405 0
DWIDTH 9 0
BBX 7 9 1 7
BITMAP
3C
6C
C6
06
0C
18
30
E0
FE
ENDCHAR
STARTCHAR 00B3
ENCODING 179
SWIDTH 405 0
DWIDTH 9 0
BBX 7 9 1 7
BITMAP
7C
EE
06
06
3C
06
06
EE
7C
ENDCHAR
STARTCHAR 00B4
ENCODING 180
SWIDTH 225 0
DWIDTH 5 0
BBX 5 3 0 14
BITMAP
38
60
E0
ENDCHAR
STARTCHAR 00B5
ENCODING 181
SWIDTH 630 0
DWIDTH 14 0
BBX 12 17 1 -5
BITMAP
F1E0
F1E0
7060
7060
7060
7060
7060
7060
7060
70E0
79F0
7F70
7000
7000
7000
7000
7000
ENDCHAR
STARTCHAR 00B6
ENCODING 182
SWIDTH 540 0
DWIDTH 12 0
BBX 10 16 1 0
BITMAP
1FC0
7F80
FF00
FF00
FF00
FF00
FF00
FF00
7F00
3F00
0300
0300
0300
0300
0780
0FC0
ENDCHAR
STARTCHAR 00B7
ENCODING 183
SWIDTH 270 0
DWIDTH 6 0
BBX 2 2 2 7
BITMAP
C0
C0
ENDCHAR
STARTCHAR 00B8
ENCODING 184
SWIDTH 225 0
DWIDTH 5 0
BBX 4 5 0 -5
BITMAP
40
E0
30
30
E0
ENDCHAR
STARTCHAR 00B9
ENCODING 185
SWIDTH 270 0
DWIDTH 6 0
BBX 3 9 1 7
BITMAP
60
E0
60
60
60
60
60
60
60
ENDCHAR
STARTCHAR 00BA
ENCODING 186
SWIDTH 450 0
DWIDTH 10 0
BBX 8 9 1 7
BITMAP
3C
7E
C3
C3
C3
C3
C3
7E
3C
ENDCHAR
STARTCHAR 00BB
ENCODING 187
SWIDTH 450 0
DWIDTH 10 0
BBX 9 9 1 2
BITMAP
CC00
6400
6600
3300
1B80
3300
3600
6600
CC00
ENDCHAR
STARTCHAR 00BC
ENCODING 188
SWIDTH 720 0
DWIDTH 16 0
BBX 14 16 2 0
BITMAP
6000
E000
6040
60C0
6180
6100
6300
6218
6638
0C78
08D8
1898
3198
23FC
6018
0018
ENDCHAR
STARTCHAR 00BD
ENCODING 189
SWIDTH 720 0
DWIDTH 16 0
BBX 14 16 2 0
BITMAP
6000
E000
6040
60C0
6080
6180
6300
6200
6678
0CCC
080C
180C
1018
3030
2060
00FC
ENDCHAR
STARTCHAR 00BE
ENCODING 190
SWIDTH 810 0
DWIDTH 18 0
BBX 17 15 1 0
BITMAP
7C0000
E60800
061800
3C3000
062000
066000
C64300
7CC700
018F00
010B00
031300
063300
047F80
0C0300
000300
ENDCHAR
STARTCHAR 00BF
ENCODING 191
SWIDTH 450 0
DWIDTH 10 0
BBX 8 16 1 -4
BITMAP
18
18
00
00
18
18
18
30
60
E0
C0
C0
C3
C3
FF
3C
ENDCHAR
STARTCHAR 00C0
ENCODING 192
SWIDTH 720 0
DWIDTH 16 0
BBX 15 20 1 0
BITMAP
0E00
0300
0180
0000
0300
0380
0780
0780
06C0
0CC0
0C60
0C60
1860
1830
3FF0
3FF0
3018
6018
601C
F03E
ENDCHAR
STARTCHAR 00C1
ENCODING 193
SWIDTH 720 0
DWIDTH 16 0
BBX 15 20 1 0
BITMAP
00C0
0180
0300
0000
0300
0380
0780
0780
06C0
0CC0
0C60
0C60
1860
1830
3FF0
3FF0
3018
6018
601C
F03E
ENDCHAR
STARTCHAR 00C2
ENCODING 194
SWIDTH 720 0
DWIDTH 16 0
BBX 15 20 1 0
BITMAP
0300
0780
0CE0
0000
0300
0380
0780
0780
06C0
0CC0
0C60
0C60
1860
1830
3FF0
3FF0
3018
6018
601C
F03E
ENDCHAR
STARTCHAR 00C3
ENCODING 195
SWIDTH 720 0
DWIDTH 16 0
BBX 15 20 1 0
BITMAP
0420
0FE0
09C0
0000
0300
0380
0780
0780
06C0
0CC0
0C60
0C60
1860
1830
3FF0
3FF0
3018
6018
601C
F03E
ENDCHAR
STARTCHAR 00C4
ENCODING 196
SWIDTH 720 0
DWIDTH 16 0
BBX 15 20 1 0
BITMAP
0CE0
0CE0
0000
0000
0300
0380
0780
0780
06C0
0CC0
0C60
0C60
1860
1830
3FF0
3FF0
3018
6018
601C
F03E
ENDCHAR
STARTCHAR 00C5
ENCODING 197
SWIDTH 720 0
DWIDTH 16 0
BBX 15 20 1 0
BITMAP
0380
0480
0480
0380
0300
0380
0780
0780
06C0
0CC0
0C60
0C60
1860
1830
3FF0
3FF0
3018
6018
601C
F03E
ENDCHAR
STARTCHAR 00C6
ENCODING 198
SWIDTH 1035 0
DWIDTH 23 0
BBX 21 16 1 0
BITMAP
007FF0
007FF0
00F830
00F830
019800
039800
031800
061FE0
061FE0
0C1800
1FF800
1FF800
381818
301818
F03FF8
F07FF8
ENDCHAR
STARTCHAR 00C7
ENCODING 199
SWIDTH 630 0
DWIDTH 14 0
BBX 12 21 1 -5
BITMAP
0FC0
3FE0
7030
6030
E030
C000
C000
C000
C000
C000
C000
E030
6030
7030
3FF0
0FC0
0200
0300
0180
0180
0300
ENDCHAR
STARTCHAR 00C8
ENCODING 200
SWIDTH 630 0
DWIDTH 14 0
BBX 12 20 1 0
BITMAP
1C00
0C00
0600
0000
FFE0
FFE0
3020
3020
3000
3000
3000
3FC0
3FC0
3000
3000
3000
3030
3030
7FF0
FFF0
ENDCHAR
STARTCHAR 00C9
ENCODING 201
SWIDTH 630 0
DWIDTH 14 0
BBX 12 20 1 0
BITMAP
0380
0300
0600
0000
FFE0
FFE0
3020
3020
3000
3000
3000
3FC0
3FC0
3000
3000
3000
3030
3030
7FF0
FFF0
ENDCHAR
STARTCHAR 00CA
ENCODING 202
SWIDTH 630 0
DWIDTH 14 0
BBX 12 20 1 0
BITMAP
0600
0F00
1980
0000
FFE0
FFE0
3020
3020
3000
3000
3000
3FC0
3FC0
3000
3000
3000
3030
3030
7FF0
FFF0
ENDCHAR
STARTCHAR 00CB
ENCODING 203
SWIDTH 630 0
DWIDTH 14 0
BBX 12 20 1 0
BITMAP
1980
1980
0000
0000
FFE0
FFE0
3020
3020
3000
3000
3000
3FC0
3FC0
3000
3000
3000
3030
3030
7FF0
FFF0
ENDCHAR
STARTCHAR 00CC
ENCODING 204
SWIDTH 315 0
DWIDTH 7 0
BBX 5 20 1 0
BITMAP
C0
60
30
00
F8
F8
30
30
30
30
30
30
30
30
30
30
30
30
78
F8
ENDCHAR
STARTCHAR 00CD
ENCODING 205
SWIDTH 315 0
DWIDTH 7 0
BBX 6 20 1 0
BITMAP
1C
30
60
00
F8
F8
30
30
30
30
30
30
30
30
30
30
30
30
78
F8
ENDCHAR
STARTCHAR 00CE
ENCODING 206
SWIDTH 315 0
DWIDTH 7 0
BBX 7 20 0 0
BITMAP
18
3C
E6
00
7C
7C
18
18
18
18
18
18
18
18
18
18
18
18
3C
7C
ENDCHAR
STARTCHAR 00CF
ENCODING 207
SWIDTH 315 0
DWIDTH 7 0
BBX 7 20 0 0
BITMAP
E6
E6
00
00
7C
7C
18
18
18
18
18
18
18
18
18
18
18
18
3C
7C
ENDCHAR
STARTCHAR 00D0
ENCODING 208
SWIDTH 675 0
DWIDTH 15 0
BBX 13 16 1 0
BITMAP
FF80
7FC0
3060
3030
3030
3038
3018
FC18
FC18
3018
3038
3030
3030
3060
7FC0
FF80
ENDCHAR
STARTCHAR 00D1
ENCODING 209
SWIDTH 765 0
DWIDTH 17 0
BBX 15 20 1 0
BITMAP
0620
0FE0
09C0
0000
F03E
F83E
3808
3C08
3E08
3608
3308
3308
3188
31C8
30C8
3068
3068
3038
7818
FC18
ENDCHAR
STARTCHAR 00D2
ENCODING 210
SWIDTH 675 0
DWIDTH 15 0
BBX 13 20 1 0
BITMAP
1C00
0600
0700
0000
0F80
3FC0
7060
6030
C030
C038
C018
C018
C018
C018
C038
C030
6030
7060
3FC0
0F80
ENDCHAR
STARTCHAR 00D3
ENCODING 211
SWIDTH 675 0
DWIDTH 15 0
BBX 13 20 1 0
BITMAP
0180
0300
0600
0000
0F80
3FC0
7060
6030
C030
C038
C018
C018
C018
C018
C038
C030
6030
7060
3FC0
0F80
ENDCHAR
STARTCHAR 00D4
ENCODING 212
SWIDTH 675 0
DWIDTH 15 0
BBX 13 20 1 0
BITMAP
0600
0F00
19C0
0000
0F80
3FC0
7060
6030
C030
C038
C018
C018
C018
C018
C038
C030
6030
7060
3FC0
0F80
ENDCHAR
STARTCHAR 00D5
ENCODING 213
SWIDTH 675 0
DWIDTH 15 0
BBX 13 20 1 0
BITMAP
0840
1FC0
1380
0000
0F80
3FC0
7060
6030
C030
C038
C018
C018
C018
C018
C038
C030
6030
7060
3FC0
0F80
ENDCHAR
STARTCHAR 00D6
ENCODING 214
SWIDTH 675 0
DWIDTH 15 0
BBX 13 20 1 0
BITMAP
19C0
19C0
0000
0000
0F80
3FC0
7060
6030
C030
C038
C018
C018
C018
C018
C038
C030
6030
7060
3FC0
0F80
ENDCHAR
STARTCHAR 00D7
ENCODING 215
SWIDTH 540 0
DWIDTH 12 0
BBX 10 10 1 2
BITMAP
C180
E3C0
7700
3E00
1C00
1E00
3700
6380
C1C0
4080
ENDCHAR
STARTCHAR 00D8
ENCODING 216
SWIDTH 675 0
DWIDTH 15 0
BBX 13 17 1 0
BITMAP
0030
0FA0
3FE0
7060
60F0
C1B0
C138
C318
C218
C618
CC18
C838
D830
7030
7060
7FC0
EF80
ENDCHAR
STARTCHAR 00D9
ENCODING 217
SWIDTH 720 0
DWIDTH 16 0
BBX 15 20 1 0
BITMAP
0E00
0600
0300
0000
F87E
F87E
7018
7018
7018
7018
7018
7018
7018
7018
7018
3018
3038
3830
1FE0
07C0
ENDCHAR
STARTCHAR 00DA
ENCODING 218
SWIDTH 720 0
DWIDTH 16 0
BBX 15 20 1 0
BITMAP
00C0
0180
0300
0000
F87E
F87E
7018
7018
7018
7018
7018
7018
7018
7018
7018
3018
3038
3830
1FE0
07C0
ENDCHAR
STARTCHAR 00DB
ENCODING 219
SWIDTH 720 0
DWIDTH 16 0
BBX 15 20 1 0
BITMAP
0300
0780
0CC0
0000
F87E
F87E
7018
7018
7018
7018
7018
7018
7018
7018
7018
3018
3038
3830
1FE0
07C0
ENDCHAR
STARTCHAR 00DC
ENCODING 220
SWIDTH 720 0
DWIDTH 16 0
BBX 15 20 1 0
BITMAP
0CE0
0CE0
0000
0000
F87E
F87E
7018
7018
7018
7018
7018
7018
7018
7018
7018
3018
3038
3830
1FE0
07C0
ENDCHAR
STARTCHAR 00DD
ENCODING 221
SWIDTH 720 0
DWIDTH 16 0
BBX 14 20 1 0
BITMAP
01C0
0180
0300
0000
F87C
F87C
7030
3030
1860
18C0
0CC0
0D80
0780
0700
0300
0300
0300
0300
0780
0FC0
ENDCHAR
STARTCHAR 00DE
ENCODING 222
SWIDTH 630 0
DWIDTH 14 0
BBX 12 16 1 0
BITMAP
F800
F800
7000
7F00
7FC0
70E0
7070
7030
7030
7070
70E0
7FC0
7F00
7000
7000
F800
ENDCHAR
STARTCHAR 00DF
ENCODING 223
SWIDTH 630 0
DWIDTH 14 0
BBX 12 17 1 0
BITMAP
0F00
3F80
31C0
70C0
60C0
6180
6180
6300
6380
6180
60E0
6060
6030
6030
6030
E7F0
E7C0
ENDCHAR
STARTCHAR 00E0
ENCODING 224
SWIDTH 540 0
DWIDTH 12 0
BBX 10 17 1 0
BITMAP
3000
1800
0C00
0000
0000
3E00
FF00
C180
C180
0180
3F80
7180
C180
C180
C380
FFC0
79C0
ENDCHAR
STARTCHAR 00E1
ENCODING 225
SWIDTH 540 0
DWIDTH 12 0
BBX 10 17 1 0
BITMAP
0700
0C00
1C00
0000
0000
3E00
FF00
C180
C180
0180
3F80
7180
C180
C180
C380
FFC0
79C0
ENDCHAR
STARTCHAR 00E2
ENCODING 226
SWIDTH 540 0
DWIDTH 12 0
BBX 10 17 1 0
BITMAP
0C00
1E00
7300
0000
0000
3E00
FF00
C180
C180
0180
3F80
7180
C180
C180
C380
FFC0
79C0
ENDCHAR
STARTCHAR 00E3
ENCODING 227
SWIDTH 540 0
DWIDTH 12 0
BBX 10 17 1 0
BITMAP
1100
7F00
4700
0000
0000
3E00
FF00
C180
C180
0180
3F80
7180
C180
C180
C380
FFC0
79C0
ENDCHAR
STARTCHAR 00E4
ENCODING 228
SWIDTH 540 0
DWIDTH 12 0
BBX 10 17 1 0
BITMAP
7300
7300
0000
0000
0000
3E00
FF00
C180
C180
0180
3F80
7180
C180
C180
C380
FFC0
79C0
ENDCHAR
STARTCHAR 00E5
ENCODING 229
SWIDTH 540 0
DWIDTH 12 0
BBX 10 17 1 0
BITMAP
1C00
1200
1200
1C00
0000
3E00
FF00
C180
C180
0180
3F80
7180
C180
C180
C380
FFC0
79C0
ENDCHAR
STARTCHAR 00E6
ENCODING 230
SWIDTH 855 0
DWIDTH 19 0
BBX 17 12 1 0
BITMAP
3E3C00
FF7F00
C1C300
C1C180
018180
3FFF80
7FFF80
C18000
C1C000
C3C100
FE7F80
7C3E00
ENDCHAR
STARTCHAR 00E7
ENCODING 231
SWIDTH 495 0
DWIDTH 11 0
BBX 10 17 1 -5
BITMAP
1F00
7F80
6180
C080
C080
C000
C000
C000
C0C0
6180
7F80
1E00
0C00
0E00
0600
0600
0E00
ENDCHAR
STARTCHAR 00E8
ENCODING 232
SWIDTH 495 0
DWIDTH 11 0
BBX 10 17 1 0
BITMAP
3000
1800
0C00
0000
0000
1E00
7F00
6180
C180
C180
FFC0
FFC0
C000
C000
6080
7F80
1F00
ENDCHAR
STARTCHAR 00E9
ENCODING 233
SWIDTH 495 0
DWIDTH 11 0
BBX 10 17 1 0
BITMAP
0700
0E00
1C00
0000
0000
1E00
7F00
6180
C180
C180
FFC0
FFC0
C000
C000
6080
7F80
1F00
ENDCHAR
STARTCHAR 00EA
ENCODING 234
SWIDTH 495 0
DWIDTH 11 0
BBX 10 17 1 0
BITMAP
0C00
1E00
7300
0000
0000
1E00
7F00
6180
C180
C180
FFC0
FFC0
C000
C000
6080
7F80
1F00
ENDCHAR
STARTCHAR 00EB
ENCODING 235
SWIDTH 495 0
DWIDTH 11 0
BBX 10 17 1 0
BITMAP
7300
7300
0000
0000
0000
1E00
7F00
6180
C180
C180
FFC0
FFC0
C000
C000
6080
7F80
1F00
ENDCHAR
STARTCHAR 00EC
ENCODING 236
SWIDTH 315 0
DWIDTH 7 0
BBX 6 17 0 0
BITMAP
E0
30
18
00
00
78
78
38
38
38
38
38
38
38
38
7C
7C
ENDCHAR
STARTCHAR 00ED
ENCODING 237
SWIDTH 315 0
DWIDTH 7 0
BBX 6 17 1 0
BITMAP
1C
30
60
00
00
F0
F0
70
70
70
70
70
70
70
70
F8
F8
ENDCHAR
STARTCHAR 00EE
ENCODING 238
SWIDTH 315 0
DWIDTH 7 0
BBX 7 17 0 0
BITMAP
38
6C
C6
00
00
78
78
38
38
38
38
38
38
38
38
7C
7C
ENDCHAR
STARTCHAR 00EF
ENCODING 239
SWIDTH 315 0
DWIDTH 7 0
BBX 7 17 0 0
BITMAP
C6
C6
00
00
00
78
78
38
38
38
38
38
38
38
38
7C
7C
ENDCHAR
STARTCHAR 00F0
ENCODING 240
SWIDTH 585 0
DWIDTH 13 0
BBX 11 17 1 0
BITMAP
0800
0EE0
0F80
0780
1D80
11C0
0CC0
3FC0
61C0
E0E0
C0E0
C0E0
C0C0
C0C0
61C0
7F80
1E00
ENDCHAR
STARTCHAR 00F1
ENCODING 241
SWIDTH 630 0
DWIDTH 14 0
BBX 13 17 1 0
BITMAP
0840
1FC0
1380
0000
0000
E780
FFC0
30E0
3060
3060
3060
3060
3060
3060
3060
F8F0
F9F8
ENDCHAR
STARTCHAR 00F2
ENCODING 242
SWIDTH 540 0
DWIDTH 12 0
BBX 10 17 1 0
BITMAP
3800
1800
0C00
0000
0000
1E00
7F80
6180
C0C0
C0C0
C0C0
C0C0
C0C0
C0C0
6180
7F80
1E00
ENDCHAR
STARTCHAR 00F3
ENCODING 243
SWIDTH 540 0
DWIDTH 12 0
BBX 10 17 1 0
BITMAP
0700
0600
0C00
0000
0000
1E00
7F80
6180
C0C0
C0C0
C0C0
C0C0
C0C0
C0C0
6180
7F80
1E00
ENDCHAR
STARTCHAR 00F4
ENCODING 244
SWIDTH 540 0
DWIDTH 12 0
BBX 10 17 1 0
BITMAP
0C00
1E00
3300
0000
0000
1E00
7F80
6180
C0C0
C0C0
C0C0
C0C0
C0C0
C0C0
6180
7F80
1E00
ENDCHAR
STARTCHAR 00F5
ENCODING 245
SWIDTH 540 0
DWIDTH 12 0
BBX 10 17 1 0
BITMAP
1080
3F80
6700
0000
0000
1E00
7F80
6180
C0C0
C0C0
C0C0
C0C0
C0C0
C0C0
6180
7F80
1E00
ENDCHAR
STARTCHAR 00F6
ENCODING 246
SWIDTH 540 0
DWIDTH 12 0
BBX 10 17 1 0
BITMAP
3300
3300
0000
0000
0000
1E00
7F80
6180
C0C0
C0C0
C0C0
C0C0
C0C0
C0C0
6180
7F80
1E00
ENDCHAR
STARTCHAR 00F7
ENCODING 247
SWIDTH 540 0
DWIDTH 12 0
BBX 11 11 1 2
BITMAP
0C00
0C00
0000
0000
FFE0
FFE0
0000
0000
0000
0C00
0C00
ENDCHAR
STARTCHAR 00F8
ENCODING 248
SWIDTH 540 0
DWIDTH 12 0
BBX 10 15 1 -1
BITMAP
0080
0180
1F00
7F80
6380
C6C0
C4C0
CCC0
C8C0
D8C0
D0C0
7180
7F80
3E00
4000
ENDCHAR
STARTCHAR 00F9
ENCODING 249
SWIDTH 585 0
DWIDTH 13 0
BBX 12 17 1 0
BITMAP
3800
0C00
0600
0000
0000
E1C0
E1C0
60C0
60C0
60C0
60C0
60C0
60C0
60C0
70C0
3FF0
1EF0
ENDCHAR
STARTCHAR 00FA
ENCODING 250
SWIDTH 585 0
DWIDTH 13 0
BBX 12 17 1 0
BITMAP
0380
0600
0C00
0000
0000
E1C0
E1C0
60C0
60C0
60C0
60C0
60C0
60C0
60C0
70C0
3FF0
1EF0
ENDCHAR
STARTCHAR 00FB
ENCODING 251
SWIDTH 585 0
DWIDTH 13 0
BBX 12 17 1 0
BITMAP
0E00
1B00
3180
0000
0000
E1C0
E1C0
60C0
60C0
60C0
60C0
60C0
60C0
60C0
70C0
3FF0
1EF0
ENDCHAR
STARTCHAR 00FC
ENCODING 252
SWIDTH 585 0
DWIDTH 13 0
BBX 12 17 1 0
BITMAP
3180
3180
0000
0000
0000
E1C0
E1C0
60C0
60C0
60C0
60C0
60C0
60C0
60C0
70C0
3FF0
1EF0
ENDCHAR
STARTCHAR 00FD
ENCODING 253
SWIDTH 585 0
DWIDTH 13 0
BBX 13 22 0 -5
BITMAP
01C0
0300
0600
0000
0000
F8F8
F8F0
3060
3060
18C0
18C0
1CC0
0D80
0D80
0700
0700
0700
0600
0600
0E00
3C00
3800
ENDCHAR
STARTCHAR 00FE
ENCODING 254
SWIDTH 585 0
DWIDTH 13 0
BBX 12 22 0 -5
BITMAP
F000
7000
3000
3000
3000
3780
3FE0
3860
3070
3030
3030
3030
3030
3070
3860
3FE0
3780
3000
3000
3000
FC00
FC00
ENDCHAR
STARTCHAR 00FF
ENCODING 255
SWIDTH 585 0
DWIDTH 13 0
BBX 13 22 0 -5
BITMAP
18C0
18C0
0000
0000
0000
F8F8
F8F0
3060
3060
18C0
18C0
1CC0
0D80
0D80
0700
0700
0700
0600
0600
0E00
3C00
3800
ENDCHAR
STARTCHAR 0100
ENCODING 256
SWIDTH 720 0
DWIDTH 16 0
BBX 15 20 1 0
BITMAP
1FE0
1FE0
0000
0000
0300
0380
0780
0780
06C0
0CC0
0C60
0C60
1860
1830
3FF0
3FF0
3018
6018
601C
F03E
ENDCHAR
STARTCHAR 0101
ENCODING 257
SWIDTH 540 0
DWIDTH 12 0
BBX 10 17 1 0
BITMAP
7F80
7F80
0000
0000
0000
3E00
FF00
C180
C180
0180
3F80
7180
C180
C180
C380
FFC0
79C0
ENDCHAR
STARTCHAR 0102
ENCODING 258
SWIDTH 720 0
DWIDTH 16 0
BBX 15 20 1 0
BITMAP
0C60
0C40
07C0
0000
0300
0380
0780
0780
06C0
0CC0
0C60
0C60
1860
1830
3FF0
3FF0
3018
6018
601C
F03E
ENDCHAR
STARTCHAR 0103
ENCODING 259
SWIDTH 540 0
DWIDTH 12 0
BBX 10 17 1 0
BITMAP
6300
2300
3E00
0000
0000
3E00
FF00
C180
C180
0180
3F80
7180
C180
C180
C380
FFC0
79C0
ENDCHAR
STARTCHAR 0104
ENCODING 260
SWIDTH 720 0
DWIDTH 16 0
BBX 16 21 1 -5
BITMAP
0300
0380
0780
0780
06C0
0CC0
0C60
0C60
1860
1830
3FF0
3FF0
3018
6018
601C
F03E
0004
0008
0018
001E
000F
ENDCHAR
STARTCHAR 0105
ENCODING 261
SWIDTH 540 0
DWIDTH 12 0
BBX 11 17 1 -5
BITMAP
3E00
FF00
C180
C180
0180
3F80
7180
C180
C180
C380
FFC0
79C0
00C0
0180
0180
01E0
00E0
ENDCHAR
STARTCHAR 0106
ENCODING 262
SWIDTH 630 0
DWIDTH 14 0
BBX 12 20 1 0
BITMAP
01C0
0300
0600
0000
0FC0
3FE0
7030
6030
E030
C000
C000
C000
C000
C000
C000
E030
6030
7030
3FF0
0FC0
ENDCHAR
STARTCHAR 0107
ENCODING 263
SWIDTH 495 0
DWIDTH 11 0
BBX 10 17 1 0
BITMAP
0700
0600
0C00
0000
0000
1F00
7F80
6180
C080
C080
C000
C000
C000
C0C0
6180
7F80
1E00
ENDCHAR
STARTCHAR 0108
ENCODING 264
SWIDTH 630 0
DWIDTH 14 0
BBX 12 20 1 0
BITMAP
0700
0580
1CC0
0000
0FC0
3FE0
7030
6030
E030
C000
C000
C000
C000
C000
C000
E030
6030
7030
3FF0
0FC0
ENDCHAR
STARTCHAR 0109
ENCODING 265
SWIDTH 495 0
DWIDTH 11 0
BBX 10 17 1 0
BITMAP
0C00
1E00
3300
0000
0000
1F00
7F80
6180
C080
C080
C000
C000
C000
C0C0
6180
7F80
1E00
ENDCHAR
STARTCHAR 010A
ENCODING 266
SWIDTH 630 0
DWIDTH 14 0
BBX 12 20 1 0
BITMAP
0300
0300
0000
0000
0FC0
3FE0
7030
6030
E030
C000
C000
C000
C000
C000
C000
E030
6030
7030
3FF0
0FC0
ENDCHAR
STARTCHAR 010B
ENCODING 267
SWIDTH 495 0
DWIDTH 11 0
BBX 10 17 1 0
BITMAP
0C00
0C00
0000
0000
0000
1F00
7F80
6180
C080
C080
C000
C000
C000
C0C0
6180
7F80
1E00
ENDCHAR
STARTCHAR 010C
ENCODING 268
SWIDTH 630 0
DWIDTH 14 0
BBX 12 20 1 0
BITMAP
1CC0
0D80
0700
0000
0FC0
3FE0
7030
6030
E030
C000
C000
C000
C000
C000
C000
E030
6030
7030
3FF0
0FC0
ENDCHAR
STARTCHAR 010D
ENCODING 269
SWIDTH 495 0
DWIDTH 11 0
BBX 10 17 1 0
BITMAP
3300
1E00
0C00
0000
0000
1F00
7F80
6180
C080
C080
C000
C000
C000
C0C0
6180
7F80
1E00
ENDCHAR
STARTCHAR 010E
ENCODING 270
SWIDTH 675 0
DWIDTH 15 0
BBX 13 20 1 0
BITMAP
19C0
0F00
0600
0000
FF80
7FC0
3060
3030
3030
3038
3018
3018
3018
3018
3038
3030
3030
3060
7FC0
FF80
ENDCHAR
STARTCHAR 010F
ENCODING 271
SWIDTH 585 0
DWIDTH 13 0
BBX 13 17 1 0
BITMAP
03D8
03D8
00D8
00F0
00C0
3CC0
7FC0
61C0
C0C0
C0C0
C0C0
C0C0
C0C0
C0C0
E1C0
7FE0
3CE0
ENDCHAR
STARTCHAR 0110
ENCODING 272
SWIDTH 675 0
DWIDTH 15 0
BBX 13 16 1 0
BITMAP
FF80
7FC0
3060
3030
3030
3038
3018
FC18
FC18
3018
3038
3030
3030
3060
7FC0
FF80
ENDCHAR
STARTCHAR 0111
ENCODING 273
SWIDTH 585 0
DWIDTH 13 0
BBX 11 17 1 0
BITMAP
03C0
03C0
00C0
07E0
07E0
3CC0
7FC0
61C0
C0C0
C0C0
C0C0
C0C0
C0C0
C0C0
E1C0
7FE0
3CE0
ENDCHAR
STARTCHAR 0112
ENCODING 274
SWIDTH 630 0
DWIDTH 14 0
BBX 12 20 1 0
BITMAP
3FC0
3FC0
0000
0000
FFE0
FFE0
3020
3020
3000
3000
3000
3FC0
3FC0
3000
3000
3000
3030
3030
7FF0
FFF0
ENDCHAR
STARTCHAR 0113
ENCODING 275
SWIDTH 495 0
DWIDTH 11 0
BBX 10 17 1 0
BITMAP
7F80
7F80
0000
0000
0000
1E00
7F00
6180
C180
C180
FFC0
FFC0
C000
C000
6080
7F80
1F00
ENDCHAR
STARTCHAR 0114
ENCODING 276
SWIDTH 630 0
DWIDTH 14 0
BBX 12 20 1 0
BITMAP
1080
1980
0F00
0000
FFE0
FFE0
3020
3020
3000
3000
3000
3FC0
3FC0
3000
3000
3000
3030
3030
7FF0
FFF0
ENDCHAR
STARTCHAR 0115
ENCODING 277
SWIDTH 495 0
DWIDTH 11 0
BBX 10 17 1 0
BITMAP
6300
3300
3E00
0000
0000
1E00
7F00
6180
C180
C180
FFC0
FFC0
C000
C000
6080
7F80
1F00
ENDCHAR
STARTCHAR 0116
ENCODING 278
SWIDTH 630 0
DWIDTH 14 0
BBX 12 20 1 0
BITMAP
0600
0600
0000
0000
FFE0
FFE0
3020
3020
3000
3000
3000
3FC0
3FC0
3000
3000
3000
3030
3030
7FF0
FFF0
ENDCHAR
STARTCHAR 0117
ENCODING 279
SWIDTH 495 0
DWIDTH 11 0
BBX 10 17 1 0
BITMAP
0C00
0C00
0000
0000
0000
1E00
7F00
6180
C180
C180
FFC0
FFC0
C000
C000
6080
7F80
1F00
ENDCHAR
STARTCHAR 0118
ENCODING 280
SWIDTH 630 0
DWIDTH 14 0
BBX 13 21 1 -5
BITMAP
FFE0
FFE0
3020
3020
3000
3000
3000
3FC0
3FC0
3000
3000
3000
3030
3030
7FF0
FFF0
0030
0060
00C0
00F0
0078
ENDCHAR
STARTCHAR 0119
ENCODING 281
SWIDTH 495 0
DWIDTH 11 0
BBX 10 17 1 -5
BITMAP
1E00
7F00
6180
C180
C180
FFC0
FFC0
C000
C000
6080
7F80
1F00
0600
0600
0400
0780
0780
ENDCHAR
STARTCHAR 011A
ENCODING 282
SWIDTH 630 0
DWIDTH 14 0
BBX 12 20 1 0
BITMAP
1980
0F00
0600
0000
FFE0
FFE0
3020
3020
3000
3000
3000
3FC0
3FC0
3000
3000
3000
3030
3030
7FF0
FFF0
ENDCHAR
STARTCHAR 011B
ENCODING 283
SWIDTH 495 0
DWIDTH 11 0
BBX 10 17 1 0
BITMAP
7300
1E00
0C00
0000
0000
1E00
7F00
6180
C180
C180
FFC0
FFC0
C000
C000
6080
7F80
1F00
ENDCHAR
STARTCHAR 011C
ENCODING 284
SWIDTH 630 0
DWIDTH 14 0
BBX 12 20 1 0
BITMAP
0600
0F00
19C0
0000
0FC0
3FF0
7030
6030
E030
C000
C000
C000
C1F0
C1F0
C030
E030
6030
3030
3FF0
0FC0
ENDCHAR
STARTCHAR 011D
ENCODING 285
SWIDTH 540 0
DWIDTH 12 0
BBX 11 22 1 -5
BITMAP
0C00
1E00
3380
0000
0000
3CE0
7FE0
61C0
C0C0
C0C0
C0C0
C0C0
C0C0
C0C0
E1C0
7FC0
3CC0
00C0
01C0
2180
7F80
3E00
ENDCHAR
STARTCHAR 011E
ENCODING 286
SWIDTH 630 0
DWIDTH 14 0
BBX 12 20 1 0
BITMAP
18C0
1980
0F80
0000
0FC0
3FF0
7030
6030
E030
C000
C000
C000
C1F0
C1F0
C030
E030
6030
3030
3FF0
0FC0
ENDCHAR
STARTCHAR 011F
ENCODING 287
SWIDTH 540 0
DWIDTH 12 0
BBX 11 22 1 -5
BITMAP
3180
3100
1F00
0000
0000
3CE0
7FE0
61C0
C0C0
C0C0
C0C0
C0C0
C0C0
C0C0
E1C0
7FC0
3CC0
00C0
01C0
2180
7F80
3E00
ENDCHAR
STARTCHAR 0120
ENCODING 288
SWIDTH 630 0
DWIDTH 14 0
BBX 12 20 1 0
BITMAP
0600
0600
0000
0000
0FC0
3FF0
7030
6030
E030
C000
C000
C000
C1F0
C1F0
C030
E030
6030
3030
3FF0
0FC0
ENDCHAR
STARTCHAR 0121
ENCODING 289
SWIDTH 540 0
DWIDTH 12 0
BBX 11 22 1 -5
BITMAP
0C00
0C00
0000
0000
0000
3CE0
7FE0
61C0
C0C0
C0C0
C0C0
C0C0
C0C0
C0C0
E1C0
7FC0
3CC0
00C0
01C0
2180
7F80
3E00
ENDCHAR
STARTCHAR 0122
ENCODING 290
SWIDTH 630 0
DWIDTH 14 0
BBX 12 22 1 -6
BITMAP
0FC0
3FF0
7030
6030
E030
C000
C000
C000
C1F0
C1F0
C030
E030
6030
3030
3FF0
0FC0
0000
0000
0600
0600
0600
0400
ENDCHAR
STARTCHAR 0123
ENCODING 291
SWIDTH 540 0
DWIDTH 12 0
BBX 11 23 1 -5
BITMAP
0600
0C00
0C00
0C00
0000
0000
3CE0
7FE0
61C0
C0C0
C0C0
C0C0
C0C0
C0C0
C0C0
E1C0
7FC0
3CC0
00C0
01C0
2180
7F80
3E00
ENDCHAR
STARTCHAR 0124
ENCODING 292
SWIDTH 765 0
DWIDTH 17 0
BBX 15 20 1 0
BITMAP
0380
06C0
0C60
0000
F87E
F83E
3018
3018
3018
3018
3018
3FF8
3FF8
3018
3018
3018
3018
3018
783C
F87E
ENDCHAR
STARTCHAR 0125
ENCODING 293
SWIDTH 630 0
DWIDTH 14 0
BBX 13 21 0 0
BITMAP
3800
6C00
CE00
0000
7000
7000
3000
3000
3000
33C0
37E0
3860
3030
3030
3030
3030
3030
3030
3030
7878
7CF8
ENDCHAR
STARTCHAR 0126
ENCODING 294
SWIDTH 765 0
DWIDTH 17 0
BBX 15 16 1 0
BITMAP
F87E
F83E
3018
3018
FFFE
FFFE
3018
3FF8
3FF8
3018
3018
3018
3018
3018
783C
F87E
ENDCHAR
STARTCHAR 0127
ENCODING 295
SWIDTH 630 0
DWIDTH 14 0
BBX 12 17 1 0
BITMAP
E000
E000
6000
FC00
FC00
6780
6FC0
70C0
6060
6060
6060
6060
6060
6060
6060
F0F0
F9F0
ENDCHAR
STARTCHAR 0128
ENCODING 296
SWIDTH 315 0
DWIDTH 7 0
BBX 7 20 0 0
BITMAP
22
FE
8E
00
7C
7C
18
18
18
18
18
18
18
18
18
18
18
18
3C
7C
ENDCHAR
STARTCHAR 0129
ENCODING 297
SWIDTH 315 0
DWIDTH 7 0
BBX 7 17 0 0
BITMAP
62
FE
9C
00
00
78
78
38
38
38
38
38
38
38
38
7C
7C
ENDCHAR
STARTCHAR 012A
ENCODING 298
SWIDTH 315 0
DWIDTH 7 0
BBX 8 20 0 0
BITMAP
FF
FF
00
00
7C
7C
18
18
18
18
18
18
18
18
18
18
18
18
3C
7C
ENDCHAR
STARTCHAR 012B
ENCODING 299
SWIDTH 315 0
DWIDTH 7 0
BBX 7 17 0 0
BITMAP
FE
FE
00
00
00
78
78
38
38
38
38
38
38
38
38
7C
7C
ENDCHAR
STARTCHAR 012C
ENCODING 300
SWIDTH 315 0
DWIDTH 7 0
BBX 7 20 0 0
BITMAP
C6
46
7C
00
7C
7C
18
18
18
18
18
18
18
18
18
18
18
18
3C
7C
ENDCHAR
STARTCHAR 012D
ENCODING 301
SWIDTH 315 0
DWIDTH 7 0
BBX 7 17 0 0
BITMAP
C6
C6
7C
00
00
78
78
38
38
38
38
38
38
38
38
7C
7C
ENDCHAR
STARTCHAR 012E
ENCODING 302
SWIDTH 315 0
DWIDTH 7 0
BBX 6 21 1 -5
BITMAP
F8
F8
30
30
30
30
30
30
30
30
30
30
30
30
78
F8
18
30
30
3C
1C
ENDCHAR
STARTCHAR 012F
ENCODING 303
SWIDTH 315 0
DWIDTH 7 0
BBX 6 22 1 -5
BITMAP
70
70
00
00
00
F0
F0
70
70
70
70
70
70
70
70
F8
F8
18
30
30
3C
1C
ENDCHAR
STARTCHAR 0130
ENCODING 304
SWIDTH 315 0
DWIDTH 7 0
BBX 5 20 1 0
BITMAP
30
30
00
00
F8
F8
30
30
30
30
30
30
30
30
30
30
30
30
78
F8
ENDCHAR
STARTCHAR 0131
ENCODING 305
SWIDTH 315 0
DWIDTH 7 0
BBX 5 12 1 0
BITMAP
F0
F0
70
70
70
70
70
70
70
70
F8
F8
ENDCHAR
STARTCHAR 0132
ENCODING 306
SWIDTH 900 0
DWIDTH 20 0
BBX 18 16 1 0
BITMAP
F80FC0
F80FC0
300300
300300
300300
300300
300300
300300
300300
300300
300300
318300
318300
318700
78FE00
F87C00
ENDCHAR
STARTCHAR 0133
ENCODING 307
SWIDTH 585 0
DWIDTH 13 0
BBX 10 22 1 -5
BITMAP
70C0
70C0
0000
0000
0000
F3C0
F1C0
70C0
70C0
70C0
70C0
70C0
70C0
70C0
70C0
F8C0
F8C0
00C0
00C0
00C0
03C0
0380
ENDCHAR
STARTCHAR 0134
ENCODING 308
SWIDTH 585 0
DWIDTH 13 0
BBX 11 20 1 0
BITMAP
0180
03C0
0660
0000
07E0
07E0
0180
0180
0180
0180
0180
0180
0180
0180
0180
C180
C180
C380
7F00
3E00
ENDCHAR
STARTCHAR 0135
ENCODING 309
SWIDTH 270 0
DWIDTH 6 0
BBX 7 22 -1 -5
BITMAP
18
3C
66
00
00
78
78
18
18
18
18
18
18
18
18
18
18
18
18
18
78
F0
ENDCHAR
STARTCHAR 0136
ENCODING 310
SWIDTH 720 0
DWIDTH 16 0
BBX 14 22 1 -6
BITMAP
F87C
F87C
3070
30E0
31C0
3180
3300
3700
3F80
3980
30C0
30E0
3070
3030
783C
F87C
0000
0000
0300
0300
0300
0200
ENDCHAR
STARTCHAR 0137
ENCODING 311
SWIDTH 630 0
DWIDTH 14 0
BBX 12 23 1 -6
BITMAP
F000
7000
7000
7000
7000
73E0
71E0
7180
7300
7600
7E00
7F00
7380
7180
70C0
F8F0
F9F0
0000
0000
0600
0600
0600
0C00
ENDCHAR
STARTCHAR 0138
ENCODING 312
SWIDTH 630 0
DWIDTH 14 0
BBX 12 12 1 0
BITMAP
F3E0
F1E0
7180
7300
7600
7E00
7F00
7300
7180
71C0
F8E0
F870
ENDCHAR
STARTCHAR 0139
ENCODING 313
SWIDTH 585 0
DWIDTH 13 0
BBX 11 20 1 0
BITMAP
1C00
3800
3000
4000
F800
F800
3000
3000
3000
3000
3000
3000
3000
3000
3000
3000
3060
3060
7FE0
FFE0
ENDCHAR
STARTCHAR 013A
ENCODING 314
SWIDTH 315 0
DWIDTH 7 0
BBX 6 21 1 0
BITMAP
1C
30
60
00
F0
F0
70
70
70
70
70
70
70
70
70
70
70
70
70
F8
F8
ENDCHAR
STARTCHAR 013B
ENCODING 315
SWIDTH 585 0
DWIDTH 13 0
BBX 11 22 1 -6
BITMAP
F800
F800
3000
3000
3000
3000
3000
3000
3000
3000
3000
3000
3060
3060
7FE0
FFE0
0000
0000
0600
0600
0C00
0C00
ENDCHAR
STARTCHAR 013C
ENCODING 316
SWIDTH 315 0
DWIDTH 7 0
BBX 5 23 1 -6
BITMAP
F0
F0
70
70
70
70
70
70
70
70
70
70
70
70
70
F8
F8
00
00
30
30
60
60
ENDCHAR
STARTCHAR 013D
ENCODING 317
SWIDTH 585 0
DWIDTH 13 0
BBX 11 16 1 0
BITMAP
F860
F860
3060
3040
3000
3000
3000
3000
3000
3000
3000
3000
3060
3060
7FE0
FFE0
ENDCHAR
STARTCHAR 013E
ENCODING 318
SWIDTH 315 0
DWIDTH 7 0
BBX 7 17 1 0
BITMAP
F6
F6
76
7C
70
70
70
70
70
70
70
70
70
70
70
F8
F8
ENDCHAR
STARTCHAR 013F
ENCODING 319
SWIDTH 585 0
DWIDTH 13 0
BBX 11 16 1 0
BITMAP
F800
F800
3000
3000
3000
3000
3000
3060
3060
3000
3000
3000
3060
3060
7FE0
FFE0
ENDCHAR
STARTCHAR 0140
ENCODING 320
SWIDTH 315 0
DWIDTH 7 0
BBX 7 17 1 0
BITMAP
F0
F0
70
70
70
70
70
70
76
76
70
70
70
70
70
F8
F8
ENDCHAR
STARTCHAR 0141
ENCODING 321
SWIDTH 585 0
DWIDTH 13 0
BBX 11 16 1 0
BITMAP
F800
F800
3000
3000
3000
3000
3400
3C00
F000
B000
3000
3000
3060
3060
7FE0
FFE0
ENDCHAR
STARTCHAR 0142
ENCODING 322
SWIDTH 315 0
DWIDTH 7 0
BBX 5 17 1 0
BITMAP
F0
F0
70
70
70
70
70
78
78
F0
F0
70
70
70
70
F8
F8
ENDCHAR
STARTCHAR 0143
ENCODING 323
SWIDTH 765 0
DWIDTH 17 0
BBX 15 20 1 0
BITMAP
00E0
0180
0300
0000
F03E
F83E
3808
3C08
3E08
3608
3308
3308
3188
31C8
30C8
3068
3068
3038
7818
FC18
ENDCHAR
STARTCHAR 0144
ENCODING 324
SWIDTH 630 0
DWIDTH 14 0
BBX 13 17 1 0
BITMAP
0180
0300
0600
0000
0000
E780
FFC0
30E0
3060
3060
3060
3060
3060
3060
3060
F8F0
F9F8
ENDCHAR
STARTCHAR 0145
ENCODING 325
SWIDTH 765 0
DWIDTH 17 0
BBX 15 22 1 -6
BITMAP
F03E
F83E
3808
3C08
3E08
3608
3308
3308
3188
31C8
30C8
3068
3068
3038
7818
FC18
0000
0000
0180
0180
0300
0300
ENDCHAR
STARTCHAR 0146
ENCODING 326
SWIDTH 630 0
DWIDTH 14 0
BBX 13 18 1 -6
BITMAP
E780
FFC0
30E0
3060
3060
3060
3060
3060
3060
3060
F8F0
F9F8
0000
0000
0600
0600
0600
0400
ENDCHAR
STARTCHAR 0147
ENCODING 327
SWIDTH 765 0
DWIDTH 17 0
BBX 15 20 1 0
BITMAP
0C60
06C0
0380
0000
F03E
F83E
3808
3C08
3E08
3608
3308
3308
3188
31C8
30C8
3068
3068
3038
7818
FC18
ENDCHAR
STARTCHAR 0148
ENCODING 328
SWIDTH 630 0
DWIDTH 14 0
BBX 13 17 1 0
BITMAP
19C0
0F00
0600
0000
0000
E780
FFC0
30E0
3060
3060
3060
3060
3060
3060
3060
F8F0
F9F8
ENDCHAR
STARTCHAR 0149
ENCODING 329
SWIDTH 630 0
DWIDTH 14 0
BBX 13 16 1 0
BITMAP
C000
C000
C000
8000
E780
FFC0
30E0
3060
3060
3060
3060
3060
3060
3060
F8F0
F9F8
ENDCHAR
STARTCHAR 014A
ENCODING 330
SWIDTH 765 0
DWIDTH 17 0
BBX 15 21 1 -5
BITMAP
F07E
F87E
7818
7C18
7C18
7618
7718
7318
7198
7198
70D8
70F8
7078
7038
F838
F818
0018
0018
0018
0078
0070
ENDCHAR
STARTCHAR 014B
ENCODING 331
SWIDTH 630 0
DWIDTH 14 0
BBX 11 17 1 -5
BITMAP
F780
7FC0
3060
3060
3060
3060
3060
3060
3060
3060
7860
FC60
0060
0060
0060
03E0
03C0
ENDCHAR
STARTCHAR 014C
ENCODING 332
SWIDTH 675 0
DWIDTH 15 0
BBX 13 20 1 0
BITMAP
3FC0
3FC0
0000
0000
0F80
3FC0
7060
6030
C030
C038
C018
C018
C018
C018
C038
C030
6030
7060
3FC0
0F80
ENDCHAR
STARTCHAR 014D
ENCODING 333
SWIDTH 540 0
DWIDTH 12 0
BBX 10 17 1 0
BITMAP
7F80
7F80
0000
0000
0000
1E00
7F80
6180
C0C0
C0C0
C0C0
C0C0
C0C0
C0C0
6180
7F80
1E00
ENDCHAR
STARTCHAR 014E
ENCODING 334
SWIDTH 675 0
DWIDTH 15 0
BBX 13 20 1 0
BITMAP
18C0
1980
0F80
0000
0F80
3FC0
7060
6030
C030
C038
C018
C018
C018
C018
C038
C030
6030
7060
3FC0
0F80
ENDCHAR
STARTCHAR 014F
ENCODING 335
SWIDTH 540 0
DWIDTH 12 0
BBX 10 17 1 0
BITMAP
2100
3300
1E00
0000
0000
1E00
7F80
6180
C0C0
C0C0
C0C0
C0C0
C0C0
C0C0
6180
7F80
1E00
ENDCHAR
STARTCHAR 0150
ENCODING 336
SWIDTH 675 0
DWIDTH 15 0
BBX 13 20 1 0
BITMAP
07E0
0DC0
1B80
0000
0F80
3FC0
7060
6030
C030
C038
C018
C018
C018
C018
C038
C030
6030
7060
3FC0
0F80
ENDCHAR
STARTCHAR 0151
ENCODING 337
SWIDTH 540 0
DWIDTH 12 0
BBX 10 17 1 0
BITMAP
0DC0
1B00
3600
0000
0000
1E00
7F80
6180
C0C0
C0C0
C0C0
C0C0
C0C0
C0C0
6180
7F80
1E00
ENDCHAR
STARTCHAR 0152
ENCODING 338
SWIDTH 945 0
DWIDTH 21 0
BBX 19 16 1 0
BITMAP
0FFFE0
3FFFE0
706060
606060
C06000
C06000
C06000
C07F80
C07F80
C06000
C06000
C06000
606060
706060
3FFFE0
0FFFE0
ENDCHAR
STARTCHAR 0153
ENCODING 339
SWIDTH 900 0
DWIDTH 20 0
BBX 18 12 1 0
BITMAP
1E1F00
7FBF80
61F180
C0E0C0
C0E0C0
C0FFC0
C0FFC0
C0C000
C0E000
61E080
7FBFC0
1E1F00
ENDCHAR
STARTCHAR 0154
ENCODING 340
SWIDTH 675 0
DWIDTH 15 0
BBX 13 20 1 0
BITMAP
01C0
0300
0600
0000
FFC0
7FE0
3070
3030
3030
3030
3070
3FE0
3FC0
3180
30C0
30C0
3060
3060
7830
F838
ENDCHAR
STARTCHAR 0155
ENCODING 341
SWIDTH 405 0
DWIDTH 9 0
BBX 8 17 1 0
BITMAP
0E
0C
18
00
00
E7
FE
30
30
30
30
30
30
30
30
F8
F8
ENDCHAR
STARTCHAR 0156
ENCODING 342
SWIDTH 675 0
DWIDTH 15 0
BBX 13 22 1 -6
BITMAP
FFC0
7FE0
3070
3030
3030
3030
3070
3FE0
3FC0
3180
30C0
30C0
3060
3060
7830
F838
0000
0000
0300
0300
0600
0600
ENDCHAR
STARTCHAR 0157
ENCODING 343
SWIDTH 405 0
DWIDTH 9 0
BBX 8 18 1 -6
BITMAP
E7
FE
30
30
30
30
30
30
30
30
F8
F8
00
00
30
30
20
60
ENDCHAR
STARTCHAR 0158
ENCODING 344
SWIDTH 675 0
DWIDTH 15 0
BBX 13 20 1 0
BITMAP
18C0
0D80
0700
0000
FFC0
7FE0
3070
3030
3030
3030
3070
3FE0
3FC0
3180
30C0
30C0
3060
3060
7830
F838
ENDCHAR
STARTCHAR 0159
ENCODING 345
SWIDTH 405 0
DWIDTH 9 0
BBX 8 17 1 0
BITMAP
66
3C
18
00
00
E7
FE
30
30
30
30
30
30
30
30
F8
F8
ENDCHAR
STARTCHAR 015A
ENCODING 346
SWIDTH 585 0
DWIDTH 13 0
BBX 11 20 1 0
BITMAP
0380
0600
0C00
0000
1F00
7FC0
60C0
C040
C040
E000
7000
3F00
0F80
01C0
0060
C060
C060
C0E0
7FC0
1F00
ENDCHAR
STARTCHAR 015B
ENCODING 347
SWIDTH 495 0
DWIDTH 11 0
BBX 9 17 1 0
BITMAP
0700
0C00
1800
0000
0000
3E00
7F00
E180
C180
E000
7C00
1F00
0380
C180
C180
FF00
7E00
ENDCHAR
STARTCHAR 015C
ENCODING 348
SWIDTH 585 0
DWIDTH 13 0
BBX 11 20 1 0
BITMAP
0E00
1B00
3180
0000
1F00
7FC0
60C0
C040
C040
E000
7000
3F00
0F80
01C0
0060
C060
C060
C0E0
7FC0
1F00
ENDCHAR
STARTCHAR 015D
ENCODING 349
SWIDTH 495 0
DWIDTH 11 0
BBX 9 17 1 0
BITMAP
1C00
3600
6300
0000
0000
3E00
7F00
E180
C180
E000
7C00
1F00
0380
C180
C180
FF00
7E00
ENDCHAR
STARTCHAR 015E
ENCODING 350
SWIDTH 585 0
DWIDTH 13 0
BBX 11 21 1 -5
BITMAP
1F00
7FC0
60C0
C040
C040
E000
7000
3F00
0F80
01C0
0060
C060
C060
C0E0
7FC0
1F00
0400
0E00
0300
0300
0E00
ENDCHAR
STARTCHAR 015F
ENCODING 351
SWIDTH 495 0
DWIDTH 11 0
BBX 9 17 1 -5
BITMAP
3E00
7F00
E180
C180
E000
7C00
1F00
0380
C180
C180
FF00
7E00
0800
1C00
0600
0600
1C00
ENDCHAR
STARTCHAR 0160
ENCODING 352
SWIDTH 585 0
DWIDTH 13 0
BBX 11 20 1 0
BITMAP
3180
1B00
0E00
0000
1F00
7FC0
60C0
C040
C040
E000
7000
3F00
0F80
01C0
0060
C060
C060
C0E0
7FC0
1F00
ENDCHAR
STARTCHAR 0161
ENCODING 353
SWIDTH 495 0
DWIDTH 11 0
BBX 9 17 1 0
BITMAP
6300
3600
1C00
0000
0000
3E00
7F00
E180
C180
E000
7C00
1F00
0380
C180
C180
FF00
7E00
ENDCHAR
STARTCHAR 0162
ENCODING 354
SWIDTH 675 0
DWIDTH 15 0
BBX 13 21 1 -5
BITMAP
FFF8
FFF8
C718
C718
0700
0700
0700
0700
0700
0700
0700
0700
0700
0700
0F80
0F80
0200
0700
0180
0180
0700
ENDCHAR
STARTCHAR 0163
ENCODING 355
SWIDTH 360 0
DWIDTH 8 0
BBX 7 20 0 -5
BITMAP
30
30
30
FE
FE
30
30
30
30
30
30
30
30
3E
1E
08
1C
06
06
1C
ENDCHAR
STARTCHAR 0164
ENCODING 356
SWIDTH 675 0
DWIDTH 15 0
BBX 13 20 1 0
BITMAP
18C0
0D80
0700
0000
FFF8
FFF8
C718
C718
0700
0700
0700
0700
0700
0700
0700
0700
0700
0700
0F80
0F80
ENDCHAR
STARTCHAR 0165
ENCODING 357
SWIDTH 360 0
DWIDTH 8 0
BBX 8 17 0 0
BITMAP
03
03
33
36
30
FE
FE
30
30
30
30
30
30
30
30
3E
1E
ENDCHAR
STARTCHAR 0166
ENCODING 358
SWIDTH 675 0
DWIDTH 15 0
BBX 13 16 1 0
BITMAP
FFF8
FFF8
C718
C718
0700
0700
0700
1FC0
1FC0
0700
0700
0700
0700
0700
0F80
0F80
ENDCHAR
STARTCHAR 0167
ENCODING 359
SWIDTH 360 0
DWIDTH 8 0
BBX 7 15 0 0
BITMAP
30
30
30
FE
FE
30
30
FE
FE
30
30
30
30
3E
1E
ENDCHAR
STARTCHAR 0168
ENCODING 360
SWIDTH 720 0
DWIDTH 16 0
BBX 15 20 1 0
BITMAP
0420
0FE0
19C0
0000
F87E
F87E
7018
7018
7018
7018
7018
7018
7018
7018
7018
3018
3038
3830
1FE0
07C0
ENDCHAR
STARTCHAR 0169
ENCODING 361
SWIDTH 585 0
DWIDTH 13 0
BBX 12 17 1 0
BITMAP
1880
3F80
2700
0000
0000
E1C0
E1C0
60C0
60C0
60C0
60C0
60C0
60C0
60C0
70C0
3FF0
1EF0
ENDCHAR
STARTCHAR 016A
ENCODING 362
SWIDTH 720 0
DWIDTH 16 0
BBX 15 20 1 0
BITMAP
1FE0
1FE0
0000
0000
F87E
F87E
7018
7018
7018
7018
7018
7018
7018
7018
7018
3018
3038
3830
1FE0
07C0
ENDCHAR
STARTCHAR 016B
ENCODING 363
SWIDTH 585 0
DWIDTH 13 0
BBX 12 17 1 0
BITMAP
3F80
3F80
0000
0000
0000
E1C0
E1C0
60C0
60C0
60C0
60C0
60C0
60C0
60C0
70C0
3FF0
1EF0
ENDCHAR
STARTCHAR 016C
ENCODING 364
SWIDTH 720 0
DWIDTH 16 0
BBX 15 20 1 0
BITMAP
0860
0CC0
07C0
0000
F87E
F87E
7018
7018
7018
7018
7018
7018
7018
7018
7018
3018
3038
3830
1FE0
07C0
ENDCHAR
STARTCHAR 016D
ENCODING 365
SWIDTH 585 0
DWIDTH 13 0
BBX 12 17 1 0
BITMAP
3180
3180
1F00
0000
0000
E1C0
E1C0
60C0
60C0
60C0
60C0
60C0
60C0
60C0
70C0
3FF0
1EF0
ENDCHAR
STARTCHAR 016E
ENCODING 366
SWIDTH 720 0
DWIDTH 16 0
BBX 15 20 1 0
BITMAP
0380
0480
0480
0380
F87E
F87E
7018
7018
7018
7018
7018
7018
7018
7018
7018
3018
3038
3830
1FE0
07C0
ENDCHAR
STARTCHAR 016F
ENCODING 367
SWIDTH 585 0
DWIDTH 13 0
BBX 12 17 1 0
BITMAP
0E00
1B00
1B00
0E00
0000
E1C0
E1C0
60C0
60C0
60C0
60C0
60C0
60C0
60C0
70C0
3FF0
1EF0
ENDCHAR
STARTCHAR 0170
ENCODING 368
SWIDTH 720 0
DWIDTH 16 0
BBX 15 20 1 0
BITMAP
0370
06E0
0D80
0000
F87E
F87E
7018
7018
7018
7018
7018
7018
7018
7018
7018
3018
3038
3830
1FE0
07C0
ENDCHAR
STARTCHAR 0171
ENCODING 369
SWIDTH 585 0
DWIDTH 13 0
BBX 12 17 1 0
BITMAP
0EC0
0D80
1F00
0000
0000
E1C0
E1C0
60C0
60C0
60C0
60C0
60C0
60C0
60C0
70C0
3FF0
1EF0
ENDCHAR
STARTCHAR 0172
ENCODING 370
SWIDTH 720 0
DWIDTH 16 0
BBX 15 21 1 -5
BITMAP
F87E
F87E
7018
7018
7018
7018
7018
7018
7018
7018
7018
3018
3038
3830
1FE0
07C0
0100
0200
0600
0780
03C0
ENDCHAR
STARTCHAR 0173
ENCODING 371
SWIDTH 585 0
DWIDTH 13 0
BBX 13 17 1 -5
BITMAP
E1C0
E1C0
60C0
60C0
60C0
60C0
60C0
60C0
60C0
70C0
3FF0
1EF0
0020
0040
00C0
00F0
0078
ENDCHAR
STARTCHAR 0174
ENCODING 372
SWIDTH 1035 0
DWIDTH 23 0
BBX 21 20 1 0
BITMAP
007000
00D800
018C00
000000
F870F8
F870F8
607030
305060
30D860
30D860
30D860
198C40
198CC0
198CC0
1B06C0
0B0680
0F0780
0E0380
0E0380
060300
ENDCHAR
STARTCHAR 0175
ENCODING 373
SWIDTH 900 0
DWIDTH 20 0
BBX 18 17 1 0
BITMAP
00C000
01E000
073000
000000
000000
F0C7C0
F1C3C0
61E180
61E300
336300
332300
333200
163600
1E1600
1E1E00
1C1C00
0C0C00
ENDCHAR
STARTCHAR 0176
ENCODING 374
SWIDTH 720 0
DWIDTH 16 0
BBX 14 20 1 0
BITMAP
0300
0780
0CC0
0000
F87C
F87C
7030
3030
1860
18C0
0CC0
0D80
0780
0700
0300
0300
0300
0300
0780
0FC0
ENDCHAR
STARTCHAR 0177
ENCODING 375
SWIDTH 585 0
DWIDTH 13 0
BBX 13 22 0 -5
BITMAP
0700
0D00
19C0
0000
0000
F8F8
F8F0
3060
3060
18C0
18C0
1CC0
0D80
0D80
0700
0700
0700
0600
0600
0E00
3C00
3800
ENDCHAR
STARTCHAR 0178
ENCODING 376
SWIDTH 720 0
DWIDTH 16 0
BBX 14 20 1 0
BITMAP
1CC0
1CC0
0000
0000
F87C
F87C
7030
3030
1860
18C0
0CC0
0D80
0780
0700
0300
0300
0300
0300
0780
0FC0
ENDCHAR
STARTCHAR 0179
ENCODING 377
SWIDTH 585 0
DWIDTH 13 0
BBX 11 20 1 0
BITMAP
0300
0600
0C00
0000
FFE0
FFE0
C0C0
C180
0380
0300
0600
0E00
0C00
1800
3800
3000
7060
6060
FFE0
FFE0
ENDCHAR
STARTCHAR 017A
ENCODING 378
SWIDTH 495 0
DWIDTH 11 0
BBX 9 17 1 0
BITMAP
0700
0C00
1800
0000
0000
FF80
FF80
C300
C600
0E00
0C00
1800
3800
7080
6080
FF80
FF80
ENDCHAR
STARTCHAR 017B
ENCODING 379
SWIDTH 585 0
DWIDTH 13 0
BBX 11 20 1 0
BITMAP
0C00
0C00
0000
0000
FFE0
FFE0
C0C0
C180
0380
0300
0600
0E00
0C00
1800
3800
3000
7060
6060
FFE0
FFE0
ENDCHAR
STARTCHAR 017C
ENCODING 380
SWIDTH 495 0
DWIDTH 11 0
BBX 9 17 1 0
BITMAP
1C00
1C00
0000
0000
0000
FF80
FF80
C300
C600
0E00
0C00
1800
3800
7080
6080
FF80
FF80
ENDCHAR
STARTCHAR 017D
ENCODING 381
SWIDTH 585 0
DWIDTH 13 0
BBX 11 20 1 0
BITMAP
3380
1E00
0C00
0000
FFE0
FFE0
C0C0
C180
0380
0300
0600
0E00
0C00
1800
3800
3000
7060
6060
FFE0
FFE0
ENDCHAR
STARTCHAR 017E
ENCODING 382
SWIDTH 495 0
DWIDTH 11 0
BBX 9 17 1 0
BITMAP
6300
3600
1C00
0000
0000
FF80
FF80
C300
C600
0E00
0C00
1800
3800
7080
6080
FF80
FF80
ENDCHAR
STARTCHAR 017F
ENCODING 383
SWIDTH 360 0
DWIDTH 8 0
BBX 7 17 1 0
BITMAP
1E
3C
30
70
60
60
60
60
60
60
60
60
60
60
60
F0
F8
ENDCHAR
STARTCHAR 018F
ENCODING 399
SWIDTH 675 0
DWIDTH 15 0
BBX 13 16 1 0
BITMAP
1F80
7FC0
2060
0030
0030
0038
0018
0018
FFF8
C018
C018
C030
E030
6060
3FC0
0F80
ENDCHAR
STARTCHAR 0192
ENCODING 402
SWIDTH 360 0
DWIDTH 8 0
BBX 8 22 0 -5
BITMAP
0F
1F
18
18
18
7E
7E
18
18
18
18
18
18
18
18
18
18
18
18
30
F0
E0
ENDCHAR
STARTCHAR 01A0
ENCODING 416
SWIDTH 675 0
DWIDTH 15 0
BBX 14 17 1 0
BITMAP
000C
0F8C
3FD8
7070
6030
C030
C038
C018
C018
C018
C018
C038
C030
6030
7060
3FC0
0F80
ENDCHAR
STARTCHAR 01A1
ENCODING 417
SWIDTH 585 0
DWIDTH 13 0
BBX 11 13 1 0
BITMAP
0020
1E20
7FE0
61C0
C0C0
C0C0
C0C0
C0C0
C0C0
C0C0
6180
7F80
1E00
ENDCHAR
STARTCHAR 01AF
ENCODING 431
SWIDTH 855 0
DWIDTH 19 0
BBX 17 17 1 0
BITMAP
000180
F87980
701980
701F00
701C00
701800
701800
701800
701800
701800
701800
701800
301800
301800
383800
1FF000
07C000
ENDCHAR
STARTCHAR 01B0
ENCODING 432
SWIDTH 630 0
DWIDTH 14 0
BBX 14 13 1 0
BITMAP
000C
E1C8
E1D8
60F0
60C0
60C0
60C0
60C0
60C0
60C0
70C0
3FF0
1EF0
ENDCHAR
STARTCHAR 01F0
ENCODING 496
SWIDTH 270 0
DWIDTH 6 0
BBX 7 22 -1 -5
BITMAP
66
3C
18
00
00
78
78
18
18
18
18
18
18
18
18
18
18
18
18
18
78
F0
ENDCHAR
STARTCHAR 01FA
ENCODING 506
SWIDTH 720 0
DWIDTH 16 0
BBX 15 22 1 0
BITMAP
01C0
0180
0300
0380
0480
0480
0380
0380
0780
0780
06C0
0CC0
0C60
0C60
1860
1830
3FF0
3FF0
3018
6018
601C
F03E
ENDCHAR
STARTCHAR 01FB
ENCODING 507
SWIDTH 540 0
DWIDTH 12 0
BBX 10 19 1 0
BITMAP
0600
0C00
0800
1C00
1200
1200
1C00
3E00
FF00
C180
C180
0180
3F80
7180
C180
C180
C380
FFC0
79C0
ENDCHAR
STARTCHAR 01FC
ENCODING 508
SWIDTH 1035 0
DWIDTH 23 0
BBX 21 20 1 0
BITMAP
000E00
001800
003000
000000
007FF0
007FF0
00F830
00F830
019800
039800
031800
061FE0
061FE0
0C1800
1FF800
1FF800
381818
301818
F03FF8
F07FF8
ENDCHAR
STARTCHAR 01FD
ENCODING 509
SWIDTH 855 0
DWIDTH 19 0
BBX 17 17 1 0
BITMAP
007000
00C000
018000
000000
000000
3E3C00
FF7F00
C1C300
C1C180
018180
3FFF80
7FFF80
C18000
C1C000
C3C100
FE7F80
7C3E00
ENDCHAR
STARTCHAR 01FE
ENCODING 510
SWIDTH 675 0
DWIDTH 15 0
BBX 13 20 1 0
BITMAP
0180
0300
0600
0030
0FA0
3FE0
7060
60F0
C1B0
C138
C318
C218
C618
CC18
C838
D830
7030
7060
7FC0
EF80
ENDCHAR
STARTCHAR 01FF
ENCODING 511
SWIDTH 540 0
DWIDTH 12 0
BBX 10 18 1 -1
BITMAP
0700
0600
0C00
0080
0180
1F00
7F80
6380
C6C0
C4C0
CCC0
C8C0
D8C0
D0C0
7180
7F80
3E00
4000
ENDCHAR
STARTCHAR 0218
ENCODING 536
SWIDTH 585 0
DWIDTH 13 0
BBX 11 22 1 -6
BITMAP
1F00
7FC0
60C0
C040
C040
E000
7000
3F00
0F80
01C0
0060
C060
C060
C0E0
7FC0
1F00
0000
0000
0600
0600
0C00
0C00
ENDCHAR
STARTCHAR 0219
ENCODING 537
SWIDTH 495 0
DWIDTH 11 0
BBX 9 18 1 -6
BITMAP
3E00
7F00
E180
C180
E000
7C00
1F00
0380
C180
C180
FF00
7E00
0000
0000
0C00
0C00
1800
1800
ENDCHAR
STARTCHAR 021A
ENCODING 538
SWIDTH 675 0
DWIDTH 15 0
BBX 13 22 1 -6
BITMAP
FFF8
FFF8
C718
C718
0700
0700
0700
0700
0700
0700
0700
0700
0700
0700
0F80
0F80
0000
0000
0300
0300
0600
0600
ENDCHAR
STARTCHAR 021B
ENCODING 539
SWIDTH 360 0
DWIDTH 8 0
BBX 7 21 0 -6
BITMAP
30
30
30
FE
FE
30
30
30
30
30
30
30
30
3E
1E
00
00
0C
0C
18
18
ENDCHAR
STARTCHAR 0237
ENCODING 567
SWIDTH 270 0
DWIDTH 6 0
BBX 5 17 -1 -5
BITMAP
78
78
18
18
18
18
18
18
18
18
18
18
18
18
18
78
F0
ENDCHAR
STARTCHAR 0259
ENCODING 601
SWIDTH 540 0
DWIDTH 12 0
BBX 10 12 1 0
BITMAP
3E00
FF00
4180
0180
00C0
FFC0
FFC0
C0C0
C180
6180
7F00
1E00
ENDCHAR
STARTCHAR 02BC
ENCODING 700
SWIDTH 180 0
DWIDTH 4 0
BBX 4 6 0 11
BITMAP
70
70
70
60
60
C0
ENDCHAR
STARTCHAR 02C6
ENCODING 710
SWIDTH 315 0
DWIDTH 7 0
BBX 7 3 0 14
BITMAP
18
3C
E6
ENDCHAR
STARTCHAR 02C7
ENCODING 711
SWIDTH 315 0
DWIDTH 7 0
BBX 7 3 0 14
BITMAP
E6
3C
18
ENDCHAR
STARTCHAR 02C9
ENCODING 713
SWIDTH 405 0
DWIDTH 9 0
BBX 8 2 0 15
BITMAP
FF
FF
ENDCHAR
STARTCHAR 02D8
ENCODING 728
SWIDTH 360 0
DWIDTH 8 0
BBX 7 3 0 14
BITMAP
C6
66
7C
ENDCHAR
STARTCHAR 02D9
ENCODING 729
SWIDTH 135 0
DWIDTH 3 0
BBX 3 2 0 15
BITMAP
E0
E0
ENDCHAR
STARTCHAR 02DA
ENCODING 730
SWIDTH 225 0
DWIDTH 5 0
BBX 5 4 0 13
BITMAP
70
48
C8
70
ENDCHAR
STARTCHAR 02DB
ENCODING 731
SWIDTH 225 0
DWIDTH 5 0
BBX 5 5 0 -5
BITMAP
30
60
C0
70
78
ENDCHAR
STARTCHAR 02DC
ENCODING 732
SWIDTH 360 0
DWIDTH 8 0
BBX 8 3 0 14
BITMAP
21
7F
CE
ENDCHAR
STARTCHAR 02DD
ENCODING 733
SWIDTH 405 0
DWIDTH 9 0
BBX 8 3 0 14
BITMAP
3F
66
FC
ENDCHAR
STARTCHAR 02F3
ENCODING 755
SWIDTH 225 0
DWIDTH 5 0
BBX 5 4 0 -6
BITMAP
70
C8
C8
70
ENDCHAR
STARTCHAR 0300
ENCODING 768
SWIDTH 0 0
DWIDTH 0 0
BBX 5 3 0 14
BITMAP
E0
30
18
ENDCHAR
STARTCHAR 0301
ENCODING 769
SWIDTH 0 0
DWIDTH 0 0
BBX 5 3 0 14
BITMAP
38
60
E0
ENDCHAR
STARTCHAR 0302
ENCODING 770
SWIDTH 0 0
DWIDTH 0 0
BBX 7 3 0 14
BITMAP
18
3C
E6
ENDCHAR
STARTCHAR 0303
ENCODING 771
SWIDTH 0 0
DWIDTH 0 0
BBX 8 3 0 14
BITMAP
21
7F
CE
ENDCHAR
STARTCHAR 0304
ENCODING 772
SWIDTH 0 0
DWIDTH 0 0
BBX 8 2 0 15
BITMAP
FF
FF
ENDCHAR
STARTCHAR 0306
ENCODING 774
SWIDTH 0 0
DWIDTH 0 0
BBX 7 3 0 14
BITMAP
C6
66
7C
ENDCHAR
STARTCHAR 0307
ENCODING 775
SWIDTH 0 0
DWIDTH 0 0
BBX 3 2 0 15
BITMAP
E0
E0
ENDCHAR
STARTCHAR 0308
ENCODING 776
SWIDTH 0 0
DWIDTH 0 0
BBX 7 2 0 15
BITMAP
E6
E6
ENDCHAR
STARTCHAR 0309
ENCODING 777
SWIDTH 0 0
DWIDTH 0 0
BBX 4 4 0 14
BITMAP
E0
30
70
40
ENDCHAR
STARTCHAR 030A
ENCODING 778
SWIDTH 0 0
DWIDTH 0 0
BBX 5 4 0 13
BITMAP
70
48
C8
70
ENDCHAR
STARTCHAR 030B
ENCODING 779
SWIDTH 0 0
DWIDTH 0 0
BBX 8 3 0 14
BITMAP
3F
66
FC
ENDCHAR
STARTCHAR 030C
ENCODING 780
SWIDTH 0 0
DWIDTH 0 0
BBX 7 3 0 14
BITMAP
E6
3C
18
ENDCHAR
STARTCHAR 030F
ENCODING 783
SWIDTH 0 0
DWIDTH 0 0
BBX 8 3 0 14
BITMAP
EE
36
1F
ENDCHAR
STARTCHAR 0312
ENCODING 786
SWIDTH 0 0
DWIDTH 0 0
BBX 3 4 0 14
BITMAP
60
60
C0
C0
ENDCHAR
STARTCHAR 031B
ENCODING 795
SWIDTH 0 0
DWIDTH 0 0
BBX 4 4 0 9
BITMAP
30
30
30
E0
ENDCHAR
STARTCHAR 0323
ENCODING 803
SWIDTH 0 0
DWIDTH 0 0
BBX 3 2 0 -4
BITMAP
E0
E0
ENDCHAR
STARTCHAR 0325
ENCODING 805
SWIDTH 0 0
DWIDTH 0 0
BBX 5 4 0 -6
BITMAP
70
48
C8
70
ENDCHAR
STARTCHAR 0326
ENCODING 806
SWIDTH 0 0
DWIDTH 0 0
BBX 3 4 0 -6
BITMAP
60
60
60
C0
ENDCHAR
STARTCHAR 0327
ENCODING 807
SWIDTH 0 0
DWIDTH 0 0
BBX 4 5 0 -5
BITMAP
40
E0
30
30
E0
ENDCHAR
STARTCHAR 0328
ENCODING 808
SWIDTH 0 0
DWIDTH 0 0
BBX 5 5 0 -5
BITMAP
30
60
C0
70
78
ENDCHAR
STARTCHAR 0335
ENCODING 821
SWIDTH 0 0
DWIDTH 0 0
BBX 7 2 0 7
BITMAP
FE
FE
ENDCHAR
STARTCHAR 0336
ENCODING 822
SWIDTH 0 0
DWIDTH 0 0
BBX 15 2 0 10
BITMAP
FFFE
FFFE
ENDCHAR
STARTCHAR 0337
ENCODING 823
SWIDTH 0 0
DWIDTH 0 0
BBX 6 4 0 6
BITMAP
0C
3C
F0
80
ENDCHAR
STARTCHAR 0338
ENCODING 824
SWIDTH 0 0
DWIDTH 0 0
BBX 9 15 0 -1
BITMAP
0080
0100
0100
0200
0200
0400
0400
0C00
0800
1800
1000
3000
2000
6000
C000
ENDCHAR
STARTCHAR 0384
ENCODING 900
SWIDTH 225 0
DWIDTH 5 0
BBX 3 4 1 14
BITMAP
60
60
40
C0
ENDCHAR
STARTCHAR 0385
ENCODING 901
SWIDTH 360 0
DWIDTH 8 0
BBX 8 5 0 14
BITMAP
0C
08
18
E3
E3
ENDCHAR
STARTCHAR 0386
ENCODING 902
SWIDTH 720 0
DWIDTH 16 0
BBX 15 18 1 0
BITMAP
1800
3000
3300
2380
0780
0780
06C0
0CC0
0C60
0C60
1860
1830
3FF0
3FF0
3018
6018
601C
F03E
ENDCHAR
STARTCHAR 0387
ENCODING 903
SWIDTH 270 0
DWIDTH 6 0
BBX 2 2 2 7
BITMAP
C0
C0
ENDCHAR
STARTCHAR 0388
ENCODING 904
SWIDTH 720 0
DWIDTH 16 0
BBX 15 18 0 0
BITMAP
E000
C000
DFFE
8FFE
0606
0606
0600
0600
0600
07F8
07F8
0600
0600
0600
0606
0606
0FFE
1FFE
ENDCHAR
STARTCHAR 0389
ENCODING 905
SWIDTH 855 0
DWIDTH 19 0
BBX 18 18 0 0
BITMAP
E00000
C00000
DF87C0
8F07C0
060380
060380
060380
060380
060380
07FF80
07FF80
060380
060380
060380
060380
060380
0F07C0
1F87C0
ENDCHAR
STARTCHAR 038A
ENCODING 906
SWIDTH 450 0
DWIDTH 10 0
BBX 9 18 0 0
BITMAP
E000
C000
DF80
9F80
0600
0600
0600
0600
0600
0600
0600
0600
0600
0600
0600
0600
0F00
1F80
ENDCHAR
STARTCHAR 038C
ENCODING 908
SWIDTH 675 0
DWIDTH 15 0
BBX 14 18 0 0
BITMAP
E000
C000
C7C0
9FE0
3830
3018
6018
601C
600C
600C
600C
600C
601C
6018
3018
3830
1FE0
07C0
ENDCHAR
STARTCHAR 038E
ENCODING 910
SWIDTH 810 0
DWIDTH 18 0
BBX 17 18 0 0
BITMAP
600000
400000
DF0F80
DF0F80
060600
060600
030C00
038C00
019800
01D800
00F000
006000
006000
006000
006000
006000
00F000
01F800
ENDCHAR
STARTCHAR 038F
ENCODING 911
SWIDTH 675 0
DWIDTH 15 0
BBX 14 18 0 0
BITMAP
E000
C000
C7C0
9FE0
3830
3018
7018
6018
601C
601C
601C
6018
3018
3018
1030
1C60
7EF8
7EF8
ENDCHAR
STARTCHAR 0390
ENCODING 912
SWIDTH 315 0
DWIDTH 7 0
BBX 7 19 0 0
BITMAP
18
10
10
C6
C6
00
00
F0
70
30
30
30
30
30
30
30
30
3C
1E
ENDCHAR
STARTCHAR 0391
ENCODING 913
SWIDTH 720 0
DWIDTH 16 0
BBX 15 16 1 0
BITMAP
0300
0380
0780
0780
06C0
0CC0
0C60
0C60
1860
1830
3FF0
3FF0
3018
6018
601C
F03E
ENDCHAR
STARTCHAR 0392
ENCODING 914
SWIDTH 630 0
DWIDTH 14 0
BBX 12 16 1 0
BITMAP
FF80
7FE0
3060
3030
3030
3030
3060
3FC0
3FE0
3030
3030
3030
3030
3030
7FE0
FFC0
ENDCHAR
STARTCHAR 0393
ENCODING 915
SWIDTH 585 0
DWIDTH 13 0
BBX 11 16 1 0
BITMAP
FFE0
FFE0
3060
3060
3000
3000
3000
3000
3000
3000
3000
3000
3000
3000
7800
F800
ENDCHAR
STARTCHAR 0394
ENCODING 916
SWIDTH 675 0
DWIDTH 15 0
BBX 15 16 0 0
BITMAP
0180
0380
03C0
03C0
06E0
0660
0C60
0C30
1C30
1830
1818
3018
301C
700C
7FFC
FFFE
ENDCHAR
STARTCHAR 0395
ENCODING 917
SWIDTH 630 0
DWIDTH 14 0
BBX 12 16 1 0
BITMAP
FFE0
FFE0
3020
3020
3000
3000
3000
3FC0
3FC0
3000
3000
3000
3030
3030
7FF0
FFF0
ENDCHAR
STARTCHAR 0396
ENCODING 918
SWIDTH 585 0
DWIDTH 13 0
BBX 11 16 1 0
BITMAP
FFE0
FFE0
C0C0
C180
0380
0300
0600
0E00
0C00
1800
3800
3000
7060
6060
FFE0
FFE0
ENDCHAR
STARTCHAR 0397
ENCODING 919
SWIDTH 765 0
DWIDTH 17 0
BBX 15 16 1 0
BITMAP
F87E
F83E
3018
3018
3018
3018
3018
3FF8
3FF8
3018
3018
3018
3018
3018
783C
F87E
ENDCHAR
STARTCHAR 0398
ENCODING 920
SWIDTH 675 0
DWIDTH 15 0
BBX 14 16 1 0
BITMAP
0F80
3FE0
3070
6038
E018
C018
C01C
CF8C
CF8C
C01C
C018
E018
6038
3070
3FE0
0F80
ENDCHAR
STARTCHAR 0399
ENCODING 921
SWIDTH 315 0
DWIDTH 7 0
BBX 5 16 1 0
BITMAP
F8
F8
30
30
30
30
30
30
30
30
30
30
30
30
78
F8
ENDCHAR
STARTCHAR 039A
ENCODING 922
SWIDTH 720 0
DWIDTH 16 0
BBX 14 16 1 0
BITMAP
F87C
F87C
3070
30E0
31C0
3180
3300
3700
3F80
3980
30C0
30E0
3070
3030
783C
F87C
ENDCHAR
STARTCHAR 039B
ENCODING 923
SWIDTH 720 0
DWIDTH 16 0
BBX 14 16 1 0
BITMAP
0300
0700
0780
0780
0D80
0CC0
0CC0
18C0
1860
3860
3060
3030
7030
6038
E038
F03C
ENDCHAR
STARTCHAR 039C
ENCODING 924
SWIDTH 945 0
DWIDTH 21 0
BBX 19 16 1 0
BITMAP
F803E0
F803E0
3C03C0
3C06C0
3C06C0
360CC0
360CC0
330CC0
3318C0
3398C0
31B0C0
31B0C0
30F0C0
30E0C0
7863E0
FC03E0
ENDCHAR
STARTCHAR 039D
ENCODING 925
SWIDTH 765 0
DWIDTH 17 0
BBX 15 16 1 0
BITMAP
F03E
F83E
3808
3C08
3E08
3608
3308
3308
3188
31C8
30C8
3068
3068
3038
7818
FC18
ENDCHAR
STARTCHAR 039E
ENCODING 926
SWIDTH 585 0
DWIDTH 13 0
BBX 11 16 1 0
BITMAP
FFE0
FFE0
C060
C060
0000
0000
0000
3F80
3F80
0000
0000
0000
0000
C060
FFE0
FFE0
ENDCHAR
STARTCHAR 039F
ENCODING 927
SWIDTH 675 0
DWIDTH 15 0
BBX 13 16 1 0
BITMAP
0F80
3FC0
7060
6030
C030
C038
C018
C018
C018
C018
C038
C030
6030
7060
3FC0
0F80
ENDCHAR
STARTCHAR 03A0
ENCODING 928
SWIDTH 765 0
DWIDTH 17 0
BBX 15 16 1 0
BITMAP
FFFE
FFFE
3018
3018
3018
3018
3018
3018
3018
3018
3018
3018
3018
3018
783C
F83E
ENDCHAR
STARTCHAR 03A1
ENCODING 929
SWIDTH 630 0
DWIDTH 14 0
BBX 12 16 1 0
BITMAP
FFC0
7FE0
3070
3030
3030
3030
3030
3070
3FE0
3F80
3000
3000
3000
3000
7800
F800
ENDCHAR
STARTCHAR 03A3
ENCODING 931
SWIDTH 585 0
DWIDTH 13 0
BBX 11 16 1 0
BITMAP
FFC0
FFC0
60C0
7040
3800
1800
0C00
0600
0600
0C00
1800
3800
7060
6060
FFE0
FFE0
ENDCHAR
STARTCHAR 03A4
ENCODING 932
SWIDTH 675 0
DWIDTH 15 0
BBX 13 16 1 0
BITMAP
FFF8
FFF8
C718
C718
0700
0700
0700
0700
0700
0700
0700
0700
0700
0700
0F80
0F80
ENDCHAR
STARTCHAR 03A5
ENCODING 933
SWIDTH 720 0
DWIDTH 16 0
BBX 14 16 1 0
BITMAP
F87C
F87C
7030
3030
1860
18C0
0CC0
0D80
0780
0700
0300
0300
0300
0300
0780
0FC0
ENDCHAR
STARTCHAR 03A6
ENCODING 934
SWIDTH 720 0
DWIDTH 16 0
BBX 14 16 1 0
BITMAP
0FC0
0FC0
0300
1FE0
7FF0
6318
C30C
C30C
C30C
C30C
6318
7FF0
1FE0
0300
0FC0
0FC0
ENDCHAR
STARTCHAR 03A7
ENCODING 935
SWIDTH 675 0
DWIDTH 15 0
BBX 15 16 1 0
BITMAP
F87C
F87C
3030
1870
0C60
0EC0
0780
0380
0380
07C0
0CC0
1C60
1830
3038
701C
F87E
ENDCHAR
STARTCHAR 03A8
ENCODING 936
SWIDTH 810 0
DWIDTH 18 0
BBX 16 16 1 0
BITMAP
E7EF
E7EF
618C
618C
618C
618C
618C
718C
318C
3998
1FF8
07E0
0180
0180
03C0
07E0
ENDCHAR
STARTCHAR 03A9
ENCODING 937
SWIDTH 675 0
DWIDTH 15 0
BBX 13 16 1 0
BITMAP
0F80
3FC0
7060
6030
E030
C030
C030
C038
C030
C030
4030
6030
6060
38C0
FDF0
FDF0
ENDCHAR
STARTCHAR 03AA
ENCODING 938
SWIDTH 315 0
DWIDTH 7 0
BBX 7 20 0 0
BITMAP
E6
E6
00
00
7C
7C
18
18
18
18
18
18
18
18
18
18
18
18
3C
7C
ENDCHAR
STARTCHAR 03AB
ENCODING 939
SWIDTH 720 0
DWIDTH 16 0
BBX 14 20 1 0
BITMAP
1CC0
1CC0
0000
0000
F87C
F87C
7030
3030
1860
18C0
0CC0
0D80
0780
0700
0300
0300
0300
0300
0780
0FC0
ENDCHAR
STARTCHAR 03AC
ENCODING 940
SWIDTH 585 0
DWIDTH 13 0
BBX 11 18 1 0
BITMAP
0600
0600
0400
0C00
0000
0000
1EC0
7FC0
61C0
E0C0
C0C0
C0C0
C0C0
C0C0
E0C0
61C0
7FE0
1E60
ENDCHAR
STARTCHAR 03AD
ENCODING 941
SWIDTH 540 0
DWIDTH 12 0
BBX 10 18 1 0
BITMAP
0600
0C00
0C00
0800
0000
0000
3F00
7F80
E1C0
C000
6000
3E00
7E00
E000
C0C0
E1C0
7F80
3F00
ENDCHAR
STARTCHAR 03AE
ENCODING 942
SWIDTH 585 0
DWIDTH 13 0
BBX 11 23 0 -5
BITMAP
0180
0300
0300
0200
0000
0000
F3C0
FFE0
3860
3060
3060
3060
3060
3060
3060
3060
3060
3060
0060
0060
0060
0060
0060
ENDCHAR
STARTCHAR 03AF
ENCODING 943
SWIDTH 315 0
DWIDTH 7 0
BBX 7 18 0 0
BITMAP
18
18
10
10
00
00
F0
70
30
30
30
30
30
30
30
30
3C
1E
ENDCHAR
STARTCHAR 03B0
ENCODING 944
SWIDTH 585 0
DWIDTH 13 0
BBX 12 19 0 0
BITMAP
0300
0300
0200
18C0
18C0
0000
0000
F0E0
7060
3870
3830
3830
3830
3830
3830
1860
1860
1FC0
0F80
ENDCHAR
STARTCHAR 03B1
ENCODING 945
SWIDTH 585 0
DWIDTH 13 0
BBX 11 12 1 0
BITMAP
1EC0
7FC0
61C0
E0C0
C0C0
C0C0
C0C0
C0C0
E0C0
61C0
7FE0
1E60
ENDCHAR
STARTCHAR 03B2
ENCODING 946
SWIDTH 585 0
DWIDTH 13 0
BBX 10 21 2 -5
BITMAP
3E00
7F00
C380
C180
C180
C180
C380
DF00
DF00
C180
C1C0
C0C0
C1C0
C180
FF80
FE00
C000
C000
C000
C000
C000
ENDCHAR
STARTCHAR 03B3
ENCODING 947
SWIDTH 540 0
DWIDTH 12 0
BBX 11 17 0 -5
BITMAP
E1E0
E1E0
30C0
30C0
30C0
1980
1980
1900
0F00
0F00
0E00
0600
0600
0600
0600
0600
0600
ENDCHAR
STARTCHAR 03B4
ENCODING 948
SWIDTH 585 0
DWIDTH 13 0
BBX 10 17 1 0
BITMAP
1F00
3F80
7000
7000
3000
1E00
1F00
7380
61C0
C0C0
C0C0
C0C0
C0C0
E0C0
61C0
3F80
1F00
ENDCHAR
STARTCHAR 03B5
ENCODING 949
SWIDTH 540 0
DWIDTH 12 0
BBX 10 12 1 0
BITMAP
3F00
7F80
E1C0
C000
6000
3E00
7E00
E000
C0C0
E1C0
7F80
3F00
ENDCHAR
STARTCHAR 03B6
ENCODING 950
SWIDTH 540 0
DWIDTH 12 0
BBX 9 20 1 -4
BITMAP
FF80
FF80
0300
0700
0600
0C00
1800
3800
3000
6000
6000
6000
6000
7000
3E00
0F80
0180
0180
0300
0300
ENDCHAR
STARTCHAR 03B7
ENCODING 951
SWIDTH 585 0
DWIDTH 13 0
BBX 11 17 0 -5
BITMAP
F3C0
FFE0
3860
3060
3060
3060
3060
3060
3060
3060
3060
3060
0060
0060
0060
0060
0060
ENDCHAR
STARTCHAR 03B8
ENCODING 952
SWIDTH 540 0
DWIDTH 12 0
BBX 10 16 1 0
BITMAP
1F00
3F80
61C0
60C0
E0C0
C0C0
C0C0
FFC0
FFC0
C0C0
C0C0
E0C0
60C0
61C0
3F80
1F00
ENDCHAR
STARTCHAR 03B9
ENCODING 953
SWIDTH 315 0
DWIDTH 7 0
BBX 7 12 0 0
BITMAP
F0
70
30
30
30
30
30
30
30
30
3C
1E
ENDCHAR
STARTCHAR 03BA
ENCODING 954
SWIDTH 630 0
DWIDTH 14 0
BBX 12 12 1 0
BITMAP
F3E0
F1E0
7180
7300
7600
7E00
7F00
7300
7180
71C0
F8E0
F870
ENDCHAR
STARTCHAR 03BB
ENCODING 955
SWIDTH 540 0
DWIDTH 12 0
BBX 12 16 0 0
BITMAP
3800
3800
1C00
0C00
0E00
0E00
0E00
0F00
1B00
1B80
3980
3180
30C0
70C0
60F0
E070
ENDCHAR
STARTCHAR 03BC
ENCODING 956
SWIDTH 630 0
DWIDTH 14 0
BBX 12 17 1 -5
BITMAP
F1E0
F1E0
7060
7060
7060
7060
7060
7060
7060
70E0
79F0
7F70
7000
7000
7000
7000
7000
ENDCHAR
STARTCHAR 03BD
ENCODING 957
SWIDTH 540 0
DWIDTH 12 0
BBX 13 12 0 0
BITMAP
F8F8
78F0
3060
3060
18C0
18C0
18C0
0D80
0D80
0700
0700
0700
ENDCHAR
STARTCHAR 03BE
ENCODING 958
SWIDTH 495 0
DWIDTH 11 0
BBX 9 20 1 -4
BITMAP
1F80
3F80
6000
6000
6000
7000
1F00
3F00
6000
C000
C000
C000
C000
6000
7800
1F80
0380
0180
0180
0300
ENDCHAR
STARTCHAR 03BF
ENCODING 959
SWIDTH 540 0
DWIDTH 12 0
BBX 10 12 1 0
BITMAP
1E00
7F80
6180
C0C0
C0C0
C0C0
C0C0
C0C0
C0C0
6180
7F80
1E00
ENDCHAR
STARTCHAR 03C0
ENCODING 960
SWIDTH 630 0
DWIDTH 14 0
BBX 12 12 1 0
BITMAP
FFE0
FFE0
6180
6180
6180
6180
6180
6180
6180
6180
61E0
60F0
ENDCHAR
STARTCHAR 03C1
ENCODING 961
SWIDTH 540 0
DWIDTH 12 0
BBX 10 17 1 -5
BITMAP
1F00
3F80
71C0
60C0
60C0
E0C0
E0C0
E0C0
E0C0
E1C0
FF80
EF00
E000
E000
E000
E000
E000
ENDCHAR
STARTCHAR 03C2
ENCODING 962
SWIDTH 540 0
DWIDTH 12 0
BBX 10 16 1 -4
BITMAP
1F00
3F80
6180
E0C0
C000
C000
C000
C000
E000
7000
3E00
0F80
0180
0180
0300
0300
ENDCHAR
STARTCHAR 03C3
ENCODING 963
SWIDTH 585 0
DWIDTH 13 0
BBX 11 12 1 0
BITMAP
1FE0
3FE0
6180
E0C0
C0C0
C0C0
C0E0
C0C0
60C0
61C0
3F80
1F00
ENDCHAR
STARTCHAR 03C4
ENCODING 964
SWIDTH 495 0
DWIDTH 11 0
BBX 9 12 1 0
BITMAP
FF80
FF80
1800
1800
1800
1800
1800
1800
1800
1800
0F00
0F00
ENDCHAR
STARTCHAR 03C5
ENCODING 965
SWIDTH 585 0
DWIDTH 13 0
BBX 12 12 0 0
BITMAP
F0E0
7060
3870
3830
3830
3830
3830
3830
1860
1860
1FC0
0F80
ENDCHAR
STARTCHAR 03C6
ENCODING 966
SWIDTH 720 0
DWIDTH 16 0
BBX 14 17 1 -5
BITMAP
21E0
73F0
6318
631C
C30C
C30C
C30C
E30C
631C
7338
3FF0
1FE0
0300
0300
0300
0300
0300
ENDCHAR
STARTCHAR 03C7
ENCODING 967
SWIDTH 585 0
DWIDTH 13 0
BBX 11 12 1 0
BITMAP
E1E0
F1E0
3180
3B80
1F00
0E00
0E00
1F00
3B80
3180
E0E0
F0E0
ENDCHAR
STARTCHAR 03C8
ENCODING 968
SWIDTH 765 0
DWIDTH 17 0
BBX 16 17 0 -5
BITMAP
F0CE
F0C6
30C6
30C7
30C3
30C3
30C3
38C7
18C6
1CCE
0FFC
07F8
00C0
00C0
00C0
00C0
00C0
ENDCHAR
STARTCHAR 03C9
ENCODING 969
SWIDTH 810 0
DWIDTH 18 0
BBX 16 12 1 0
BITMAP
700E
6006
6006
E187
C183
C183
C183
C183
6186
63C6
7EFE
1C38
ENDCHAR
STARTCHAR 03CA
ENCODING 970
SWIDTH 315 0
DWIDTH 7 0
BBX 7 17 0 0
BITMAP
C6
C6
00
00
00
F0
70
30
30
30
30
30
30
30
30
3C
1E
ENDCHAR
STARTCHAR 03CB
ENCODING 971
SWIDTH 585 0
DWIDTH 13 0
BBX 12 17 0 0
BITMAP
18C0
18C0
0000
0000
0000
F0E0
7060
3870
3830
3830
3830
3830
3830
1860
1860
1FC0
0F80
ENDCHAR
STARTCHAR 03CC
ENCODING 972
SWIDTH 540 0
DWIDTH 12 0
BBX 10 18 1 0
BITMAP
0600
0400
0C00
0C00
0000
0000
1E00
7F80
6180
C0C0
C0C0
C0C0
C0C0
C0C0
C0C0
6180
7F80
1E00
ENDCHAR
STARTCHAR 03CD
ENCODING 973
SWIDTH 585 0
DWIDTH 13 0
BBX 12 18 0 0
BITMAP
0380
0300
0200
0200
0000
0000
F0E0
7060
3870
3830
3830
3830
3830
3830
1860
1860
1FC0
0F80
ENDCHAR
STARTCHAR 03CE
ENCODING 974
SWIDTH 810 0
DWIDTH 18 0
BBX 16 18 1 0
BITMAP
00C0
0080
0180
0100
0000
0000
700E
6006
6006
E187
C183
C183
C183
C183
6186
63C6
7EFE
1C38
ENDCHAR
STARTCHAR 03D1
ENCODING 977
SWIDTH 630 0
DWIDTH 14 0
BBX 12 16 1 0
BITMAP
03C0
07E0
C630
C630
C630
C630
C630
C3B0
C1F0
C070
C030
6030
6060
70E0
3FC0
0F80
ENDCHAR
STARTCHAR 03D2
ENCODING 978
SWIDTH 585 0
DWIDTH 13 0
BBX 12 16 1 0
BITMAP
C070
E0F0
60C0
31C0
3180
1B80
1B00
0F00
0E00
0E00
0600
0600
0600
0600
0600
0600
ENDCHAR
STARTCHAR 03D6
ENCODING 982
SWIDTH 810 0
DWIDTH 18 0
BBX 16 12 1 0
BITMAP
FFFF
FFFF
6006
6006
6186
6186
6186
6186
6186
63C6
3EFC
1C78
ENDCHAR
STARTCHAR 0400
ENCODING 1024
SWIDTH 630 0
DWIDTH 14 0
BBX 12 20 1 0
BITMAP
1C00
0C00
0600
0000
FFE0
FFE0
3020
3020
3000
3000
3000
3FC0
3FC0
3000
3000
3000
3030
3030
7FF0
FFF0
ENDCHAR
STARTCHAR 0401
ENCODING 1025
SWIDTH 630 0
DWIDTH 14 0
BBX 12 20 1 0
BITMAP
1980
1980
0000
0000
FFE0
FFE0
3020
3020
3000
3000
3000
3FC0
3FC0
3000
3000
3000
3030
3030
7FF0
FFF0
ENDCHAR
STARTCHAR 0402
ENCODING 1026
SWIDTH 765 0
DWIDTH 17 0
BBX 15 16 1 0
BITMAP
FFF0
FFF0
CC30
CC10
0C00
0C00
0CF0
0FFC
0E0C
0C06
0C06
0C06
0C06
0C0E
1E3C
1F38
ENDCHAR
STARTCHAR 0403
ENCODING 1027
SWIDTH 585 0
DWIDTH 13 0
BBX 11 20 1 0
BITMAP
0380
0300
0600
0000
FFE0
FFE0
3060
3060
3000
3000
3000
3000
3000
3000
3000
3000
3000
3000
7800
F800
ENDCHAR
STARTCHAR 0404
ENCODING 1028
SWIDTH 630 0
DWIDTH 14 0
BBX 12 16 1 0
BITMAP
0F80
3FE0
7070
6030
C030
C000
C000
FF00
FF00
C000
C000
C030
6030
7070
3FE0
0F80
ENDCHAR
STARTCHAR 0405
ENCODING 1029
SWIDTH 585 0
DWIDTH 13 0
BBX 11 16 1 0
BITMAP
1F00
7FC0
60C0
C040
C040
E000
7000
3F00
0F80
01C0
0060
C060
C060
C0E0
7FC0
1F00
ENDCHAR
STARTCHAR 0406
ENCODING 1030
SWIDTH 315 0
DWIDTH 7 0
BBX 5 16 1 0
BITMAP
F8
F8
30
30
30
30
30
30
30
30
30
30
30
30
78
F8
ENDCHAR
STARTCHAR 0407
ENCODING 1031
SWIDTH 315 0
DWIDTH 7 0
BBX 7 20 0 0
BITMAP
E6
E6
00
00
7C
7C
18
18
18
18
18
18
18
18
18
18
18
18
3C
7C
ENDCHAR
STARTCHAR 0408
ENCODING 1032
SWIDTH 585 0
DWIDTH 13 0
BBX 11 16 1 0
BITMAP
07E0
07E0
0180
0180
0180
0180
0180
0180
0180
0180
0180
C180
C180
C380
7F00
3E00
ENDCHAR
STARTCHAR 0409
ENCODING 1033
SWIDTH 1080 0
DWIDTH 24 0
BBX 22 16 1 0
BITMAP
7FFC00
3FFC00
181800
181800
181800
181800
181FC0
181FF0
181838
18181C
18180C
18180C
38180C
301818
F01FF8
C01FE0
ENDCHAR
STARTCHAR 040A
ENCODING 1034
SWIDTH 1080 0
DWIDTH 24 0
BBX 23 16 1 0
BITMAP
F83E00
F83E00
301800
301800
301800
301800
301800
3FFFF0
3FFFF8
30180C
30180E
30180E
30180C
30180C
783FF8
F83FF0
ENDCHAR
STARTCHAR 040B
ENCODING 1035
SWIDTH 855 0
DWIDTH 19 0
BBX 17 16 1 0
BITMAP
FFF000
FFF000
CE3000
8E3000
0E0000
0E0000
0FF800
0FFC00
0E0600
0E0600
0E0600
0E0600
0E0600
0E0600
1F0F00
1F0F80
ENDCHAR
STARTCHAR 040C
ENCODING 1036
SWIDTH 720 0
DWIDTH 16 0
BBX 14 20 1 0
BITMAP
01C0
0380
0300
0400
F838
F878
3060
30C0
3180
3180
3300
3E00
3F00
3380
3180
30C0
30E0
3070
F838
F87C
ENDCHAR
STARTCHAR 040D
ENCODING 1037
SWIDTH 765 0
DWIDTH 17 0
BBX 15 20 1 0
BITMAP
0E00
0300
0180
0000
F83E
F83E
3018
3018
3038
3078
30D8
3198
3318
3718
3E18
3C18
3818
3018
783C
F83E
ENDCHAR
STARTCHAR 040E
ENCODING 1038
SWIDTH 675 0
DWIDTH 15 0
BBX 13 20 1 0
BITMAP
18C0
1980
0F80
0000
F0F8
F0F8
6060
3060
30E0
18C0
18C0
1D80
0D80
0F00
0700
0700
0600
0600
3C00
3800
ENDCHAR
STARTCHAR 040F
ENCODING 1039
SWIDTH 765 0
DWIDTH 17 0
BBX 15 20 1 -4
BITMAP
F83E
F83E
3018
3018
3018
3018
3018
3018
3018
3018
3018
3018
3018
3018
7FFC
FFFE
0180
0180
0180
0180
ENDCHAR
STARTCHAR 0410
ENCODING 1040
SWIDTH 720 0
DWIDTH 16 0
BBX 15 16 1 0
BITMAP
0300
0380
0780
0780
06C0
0CC0
0C60
0C60
1860
1830
3FF0
3FF0
3018
6018
601C
F03E
ENDCHAR
STARTCHAR 0411
ENCODING 1041
SWIDTH 675 0
DWIDTH 15 0
BBX 13 16 1 0
BITMAP
FFE0
FFE0
7060
7000
7000
7000
7F80
7FE0
7070
7038
7018
7018
7038
7030
FFF0
FFC0
ENDCHAR
STARTCHAR 0412
ENCODING 1042
SWIDTH 630 0
DWIDTH 14 0
BBX 12 16 1 0
BITMAP
FF80
7FE0
3060
3030
3030
3030
3060
3FC0
3FE0
3030
3030
3030
3030
3030
7FE0
FFC0
ENDCHAR
STARTCHAR 0413
ENCODING 1043
SWIDTH 585 0
DWIDTH 13 0
BBX 11 16 1 0
BITMAP
FFE0
FFE0
3060
3060
3000
3000
3000
3000
3000
3000
3000
3000
3000
3000
7800
F800
ENDCHAR
STARTCHAR 0414
ENCODING 1044
SWIDTH 765 0
DWIDTH 17 0
BBX 15 20 1 -4
BITMAP
3FFE
3FFC
1C18
1818
1818
1818
1818
1818
1818
1818
1818
3818
3018
3018
FFFE
FFFE
C006
C006
C006
C006
ENDCHAR
STARTCHAR 0415
ENCODING 1045
SWIDTH 630 0
DWIDTH 14 0
BBX 12 16 1 0
BITMAP
FFE0
FFE0
3020
3020
3000
3000
3000
3FC0
3FC0
3000
3000
3000
3030
3030
7FF0
FFF0
ENDCHAR
STARTCHAR 0416
ENCODING 1046
SWIDTH 990 0
DWIDTH 22 0
BBX 21 16 1 0
BITMAP
E1F878
F1F8F0
3860C0
186180
1C6380
0C6300
066600
07FE00
07FE00
0E6700
0C6300
1C6380
3861C0
3060C0
F0F0F0
F9F9F0
ENDCHAR
STARTCHAR 0417
ENCODING 1047
SWIDTH 585 0
DWIDTH 13 0
BBX 11 16 1 0
BITMAP
1F00
7FC0
C0C0
C060
C060
00E0
00C0
0F80
0FC0
00E0
0060
C060
C060
E0E0
7FC0
1F00
ENDCHAR
STARTCHAR 0418
ENCODING 1048
SWIDTH 765 0
DWIDTH 17 0
BBX 15 16 1 0
BITMAP
F83E
F83E
3018
3018
3038
3078
30D8
3198
3318
3718
3E18
3C18
3818
3018
783C
F83E
ENDCHAR
STARTCHAR 0419
ENCODING 1049
SWIDTH 765 0
DWIDTH 17 0
BBX 15 20 1 0
BITMAP
0C60
0C60
07C0
0000
F83E
F83E
3018
3018
3038
3078
30D8
3198
3318
3718
3E18
3C18
3818
3018
783C
F83E
ENDCHAR
STARTCHAR 041A
ENCODING 1050
SWIDTH 720 0
DWIDTH 16 0
BBX 14 16 1 0
BITMAP
F838
F878
3060
30C0
3180
3180
3300
3E00
3F00
3380
3180
30C0
30E0
3070
F838
F87C
ENDCHAR
STARTCHAR 041B
ENCODING 1051
SWIDTH 720 0
DWIDTH 16 0
BBX 14 16 1 0
BITMAP
7FFC
3FFC
1818
1818
1818
1818
1818
1818
1818
1818
1818
3818
3018
3018
E03C
C07C
ENDCHAR
STARTCHAR 041C
ENCODING 1052
SWIDTH 945 0
DWIDTH 21 0
BBX 19 16 1 0
BITMAP
F803E0
F803E0
3C03C0
3C06C0
3C06C0
360CC0
360CC0
330CC0
3318C0
3398C0
31B0C0
31B0C0
30F0C0
30E0C0
7863E0
FC03E0
ENDCHAR
STARTCHAR 041D
ENCODING 1053
SWIDTH 765 0
DWIDTH 17 0
BBX 15 16 1 0
BITMAP
F87E
F83E
3018
3018
3018
3018
3018
3FF8
3FF8
3018
3018
3018
3018
3018
783C
F87E
ENDCHAR
STARTCHAR 041E
ENCODING 1054
SWIDTH 720 0
DWIDTH 16 0
BBX 13 16 1 0
BITMAP
0F80
3FC0
7060
6030
C030
C038
C018
C018
C018
C018
C038
C030
6030
7060
3FC0
0F80
ENDCHAR
STARTCHAR 041F
ENCODING 1055
SWIDTH 765 0
DWIDTH 17 0
BBX 15 16 1 0
BITMAP
FFFE
FFFE
3018
3018
3018
3018
3018
3018
3018
3018
3018
3018
3018
3018
783C
F83E
ENDCHAR
STARTCHAR 0420
ENCODING 1056
SWIDTH 630 0
DWIDTH 14 0
BBX 12 16 1 0
BITMAP
FFC0
7FE0
3070
3030
3030
3030
3030
3070
3FE0
3F80
3000
3000
3000
3000
7800
F800
ENDCHAR
STARTCHAR 0421
ENCODING 1057
SWIDTH 630 0
DWIDTH 14 0
BBX 12 16 1 0
BITMAP
0FC0
3FE0
7030
6030
E030
C000
C000
C000
C000
C000
C000
E030
6030
7030
3FF0
0FC0
ENDCHAR
STARTCHAR 0422
ENCODING 1058
SWIDTH 675 0
DWIDTH 15 0
BBX 13 16 1 0
BITMAP
FFF8
FFF8
C718
C718
0700
0700
0700
0700
0700
0700
0700
0700
0700
0700
0F80
0F80
ENDCHAR
STARTCHAR 0423
ENCODING 1059
SWIDTH 675 0
DWIDTH 15 0
BBX 13 16 1 0
BITMAP
F0F8
F0F8
6060
3060
30E0
18C0
18C0
1D80
0D80
0F00
0700
0700
0600
0600
3C00
3800
ENDCHAR
STARTCHAR 0424
ENCODING 1060
SWIDTH 765 0
DWIDTH 17 0
BBX 15 18 1 -1
BITMAP
07C0
07C0
0180
07E0
3FF8
719C
618E
C186
C186
C186
C186
E186
618C
3FF8
0FF0
0180
03C0
07C0
ENDCHAR
STARTCHAR 0425
ENCODING 1061
SWIDTH 720 0
DWIDTH 16 0
BBX 15 16 1 0
BITMAP
F87C
F87C
3030
1870
0C60
0EC0
0780
0380
0380
07C0
0CC0
1C60
1830
3038
701C
F87E
ENDCHAR
STARTCHAR 0426
ENCODING 1062
SWIDTH 765 0
DWIDTH 17 0
BBX 15 20 1 -4
BITMAP
F83E
F83E
3018
3018
3018
3018
3018
3018
3018
3018
3018
3018
3018
3018
7FFE
FFFE
0006
0006
0006
0006
ENDCHAR
STARTCHAR 0427
ENCODING 1063
SWIDTH 720 0
DWIDTH 16 0
BBX 15 16 1 0
BITMAP
F87E
F87E
7018
7018
7018
7018
3018
3018
3FF8
0FF8
0018
0018
0018
0018
003C
007E
ENDCHAR
STARTCHAR 0428
ENCODING 1064
SWIDTH 990 0
DWIDTH 22 0
BBX 20 16 1 0
BITMAP
F9F9F0
F9F9F0
3060C0
3060C0
3060C0
3060C0
3060C0
3060C0
3060C0
3060C0
3060C0
3060C0
3060C0
3060C0
7FFFE0
FFFFF0
ENDCHAR
STARTCHAR 0429
ENCODING 1065
SWIDTH 990 0
DWIDTH 22 0
BBX 20 20 1 -4
BITMAP
F9F9F0
F9F9F0
3060C0
3060C0
3060C0
3060C0
3060C0
3060C0
3060C0
3060C0
3060C0
3060C0
3060C0
3060C0
7FFFF0
FFFFF0
000030
000030
000030
000030
ENDCHAR
STARTCHAR 042A
ENCODING 1066
SWIDTH 855 0
DWIDTH 19 0
BBX 17 16 1 0
BITMAP
FF8000
FF8000
C70000
070000
070000
070000
07F800
07FE00
070700
070300
070380
070380
070300
070300
0FFE00
0FFC00
ENDCHAR
STARTCHAR 042B
ENCODING 1067
SWIDTH 900 0
DWIDTH 20 0
BBX 19 16 1 0
BITMAP
F807E0
F807E0
700180
700180
700180
700180
7F8180
7FE180
707180
703980
701980
701980
703980
703180
FFF3C0
FFC7E0
ENDCHAR
STARTCHAR 042C
ENCODING 1068
SWIDTH 675 0
DWIDTH 15 0
BBX 13 16 1 0
BITMAP
F800
F800
7000
7000
7000
7000
7F80
7FE0
7070
7038
7018
7018
7038
7030
FFF0
FFC0
ENDCHAR
STARTCHAR 042D
ENCODING 1069
SWIDTH 630 0
DWIDTH 14 0
BBX 12 16 1 0
BITMAP
3F00
7F80
C0C0
C060
8060
0070
0030
0FF0
0FF0
0030
0070
8060
C060
C0C0
7F80
3F00
ENDCHAR
STARTCHAR 042E
ENCODING 1070
SWIDTH 945 0
DWIDTH 21 0
BBX 21 16 0 0
BITMAP
FC1F00
7C7FC0
30E0E0
30C060
318030
318030
318030
3F8030
3F8038
318030
318030
318030
30C060
30E0E0
FC7FC0
FC1F00
ENDCHAR
STARTCHAR 042F
ENCODING 1071
SWIDTH 675 0
DWIDTH 15 0
BBX 13 16 1 0
BITMAP
1FF8
3FF0
7060
6060
6060
6060
6060
3060
1FE0
0FE0
1C60
1860
3060
3060
E0F0
C1F8
ENDCHAR
STARTCHAR 0430
ENCODING 1072
SWIDTH 540 0
DWIDTH 12 0
BBX 10 12 1 0
BITMAP
3E00
FF00
C180
C180
0180
3F80
7180
C180
C180
C380
FFC0
79C0
ENDCHAR
STARTCHAR 0431
ENCODING 1073
SWIDTH 585 0
DWIDTH 13 0
BBX 11 17 1 0
BITMAP
00C0
03C0
1F80
3E00
7000
6000
4F00
FF80
E1C0
E0C0
C0E0
C0E0
C0C0
E0C0
61C0
3F80
1F00
ENDCHAR
STARTCHAR 0432
ENCODING 1074
SWIDTH 630 0
DWIDTH 14 0
BBX 12 12 1 0
BITMAP
FF80
7FE0
3060
3060
3060
3FC0
3FC0
3060
3070
3070
7FE0
FFC0
ENDCHAR
STARTCHAR 0433
ENCODING 1075
SWIDTH 540 0
DWIDTH 12 0
BBX 9 12 1 0
BITMAP
FF80
FF80
3080
3000
3000
3000
3000
3000
3000
3000
F800
F800
ENDCHAR
STARTCHAR 0434
ENCODING 1076
SWIDTH 630 0
DWIDTH 14 0
BBX 12 15 1 -3
BITMAP
7FF0
3FE0
18C0
18C0
18C0
18C0
38C0
30C0
30C0
70C0
FFF0
FFF0
C030
C030
C030
ENDCHAR
STARTCHAR 0435
ENCODING 1077
SWIDTH 495 0
DWIDTH 11 0
BBX 10 12 1 0
BITMAP
1E00
7F00
6180
C180
C180
FFC0
FFC0
C000
C000
6080
7F80
1F00
ENDCHAR
STARTCHAR 0436
ENCODING 1078
SWIDTH 855 0
DWIDTH 19 0
BBX 18 12 0 0
BITMAP
73F1C0
7BF3C0
18C700
0CC600
0CCC00
07FC00
07FC00
0CCC00
1CC600
18C700
79E380
F3F3C0
ENDCHAR
STARTCHAR 0437
ENCODING 1079
SWIDTH 495 0
DWIDTH 11 0
BBX 9 12 1 0
BITMAP
3E00
7F00
E380
0180
0380
1F00
1F00
0180
C180
C180
7F00
3E00
ENDCHAR
STARTCHAR 0438
ENCODING 1080
SWIDTH 675 0
DWIDTH 15 0
BBX 13 12 1 0
BITMAP
FC78
F8F8
30E0
31E0
3360
3360
3660
3660
3C60
3860
78F0
F1F8
ENDCHAR
STARTCHAR 0439
ENCODING 1081
SWIDTH 675 0
DWIDTH 15 0
BBX 13 17 1 0
BITMAP
18C0
18C0
0F80
0000
0000
FC78
F8F8
30E0
31E0
3360
3360
3660
3660
3C60
3860
78F0
F1F8
ENDCHAR
STARTCHAR 043A
ENCODING 1082
SWIDTH 630 0
DWIDTH 14 0
BBX 12 12 1 0
BITMAP
FC70
78E0
3180
3380
3300
3E00
3E00
3300
3380
31C0
78E0
FC70
ENDCHAR
STARTCHAR 043B
ENCODING 1083
SWIDTH 630 0
DWIDTH 14 0
BBX 12 12 1 0
BITMAP
FFF0
7FE0
30C0
30C0
30C0
30C0
30C0
30C0
30C0
30C0
E1E0
C1F0
ENDCHAR
STARTCHAR 043C
ENCODING 1084
SWIDTH 855 0
DWIDTH 19 0
BBX 17 12 1 0
BITMAP
F80F80
F80F00
3C1E00
3C1E00
3C3600
363600
366600
336600
336600
31C600
79CF00
FD9F80
ENDCHAR
STARTCHAR 043D
ENCODING 1085
SWIDTH 675 0
DWIDTH 15 0
BBX 13 12 1 0
BITMAP
FDF8
FDF8
3060
3060
3060
3FE0
3FE0
3060
3060
3060
78F0
FDF8
ENDCHAR
STARTCHAR 043E
ENCODING 1086
SWIDTH 540 0
DWIDTH 12 0
BBX 10 12 1 0
BITMAP
1E00
7F80
6180
C0C0
C0C0
C0C0
C0C0
C0C0
C0C0
6180
7F80
1E00
ENDCHAR
STARTCHAR 043F
ENCODING 1087
SWIDTH 675 0
DWIDTH 15 0
BBX 13 12 1 0
BITMAP
FFF8
7FF0
3060
3060
3060
3060
3060
3060
3060
3060
78F0
FDF8
ENDCHAR
STARTCHAR 0440
ENCODING 1088
SWIDTH 585 0
DWIDTH 13 0
BBX 12 17 0 -5
BITMAP
F7C0
7FE0
3860
3070
3030
3030
3030
3030
3030
3860
3FE0
37C0
3000
3000
3000
FC00
FC00
ENDCHAR
STARTCHAR 0441
ENCODING 1089
SWIDTH 495 0
DWIDTH 11 0
BBX 10 12 1 0
BITMAP
1F00
7F80
6180
C080
C080
C000
C000
C000
C0C0
6180
7F80
1E00
ENDCHAR
STARTCHAR 0442
ENCODING 1090
SWIDTH 585 0
DWIDTH 13 0
BBX 11 12 1 0
BITMAP
FFE0
FFE0
CC60
CC60
0C00
0C00
0C00
0C00
0C00
0C00
1F00
3F00
ENDCHAR
STARTCHAR 0443
ENCODING 1091
SWIDTH 585 0
DWIDTH 13 0
BBX 13 17 0 -5
BITMAP
F8F8
F8F0
3060
3060
18C0
18C0
1CC0
0D80
0D80
0700
0700
0700
0600
0600
0E00
3C00
3800
ENDCHAR
STARTCHAR 0444
ENCODING 1092
SWIDTH 720 0
DWIDTH 16 0
BBX 14 22 1 -5
BITMAP
0F00
0F00
0300
0300
0300
3FF0
7FF8
6318
C31C
C30C
C30C
C30C
C30C
C31C
6318
7FF8
3FF0
0300
0300
0300
0FC0
0FC0
ENDCHAR
STARTCHAR 0445
ENCODING 1093
SWIDTH 585 0
DWIDTH 13 0
BBX 13 12 0 0
BITMAP
78F0
78F0
38C0
1D80
0D80
0700
0700
0D80
19C0
38E0
7070
F8F8
ENDCHAR
STARTCHAR 0446
ENCODING 1094
SWIDTH 675 0
DWIDTH 15 0
BBX 13 15 1 -3
BITMAP
F9F8
F9F8
7060
7060
7060
7060
7060
7060
7060
7060
FFF0
FFF0
0030
0030
0030
ENDCHAR
STARTCHAR 0447
ENCODING 1095
SWIDTH 675 0
DWIDTH 15 0
BBX 12 12 1 0
BITMAP
F9F0
F9F0
7060
7060
3060
3060
3FE0
0FE0
0060
0060
01F0
01F0
ENDCHAR
STARTCHAR 0448
ENCODING 1096
SWIDTH 900 0
DWIDTH 20 0
BBX 18 12 1 0
BITMAP
FCCFC0
F8C7C0
30C300
30C300
30C300
30C300
30C300
30C300
30C300
30C300
7FFF80
FFFFC0
ENDCHAR
STARTCHAR 0449
ENCODING 1097
SWIDTH 900 0
DWIDTH 20 0
BBX 18 15 1 -3
BITMAP
FCCFC0
F8CFC0
30C300
30C300
30C300
30C300
30C300
30C300
30C300
30C300
7FFFC0
FFFFC0
0000C0
0000C0
0000C0
ENDCHAR
STARTCHAR 044A
ENCODING 1098
SWIDTH 675 0
DWIDTH 15 0
BBX 14 12 0 0
BITMAP
FF80
FF00
C600
C600
07E0
07F8
061C
060C
060C
060C
0FF8
1FF0
ENDCHAR
STARTCHAR 044B
ENCODING 1099
SWIDTH 855 0
DWIDTH 19 0
BBX 17 12 1 0
BITMAP
FC1E00
FC1E00
300600
300600
3F0600
3FC600
30E600
306600
306600
306600
7FCF00
FF9F80
ENDCHAR
STARTCHAR 044C
ENCODING 1100
SWIDTH 585 0
DWIDTH 13 0
BBX 11 12 1 0
BITMAP
FC00
FC00
3000
3000
3F00
3FC0
30E0
3060
3060
3060
7FC0
FF80
ENDCHAR
STARTCHAR 044D
ENCODING 1101
SWIDTH 540 0
DWIDTH 12 0
BBX 10 12 1 0
BITMAP
3E00
7F00
C180
C1C0
00C0
1FC0
1FC0
00C0
C1C0
E180
7F00
3E00
ENDCHAR
STARTCHAR 044E
ENCODING 1102
SWIDTH 855 0
DWIDTH 19 0
BBX 17 12 1 0
BITMAP
F07C00
F0EE00
718300
718300
718180
7F8180
7F8180
718180
718300
71C300
F8FE00
F87C00
ENDCHAR
STARTCHAR 044F
ENCODING 1103
SWIDTH 630 0
DWIDTH 14 0
BBX 12 12 1 0
BITMAP
1FF0
3FE0
60C0
60C0
60C0
70C0
3FC0
1FC0
38C0
30C0
70E0
E3F0
ENDCHAR
STARTCHAR 0450
ENCODING 1104
SWIDTH 495 0
DWIDTH 11 0
BBX 10 17 1 0
BITMAP
3000
1800
0C00
0000
0000
1E00
7F00
6180
C180
C180
FFC0
FFC0
C000
C000
6080
7F80
1F00
ENDCHAR
STARTCHAR 0451
ENCODING 1105
SWIDTH 495 0
DWIDTH 11 0
BBX 10 17 1 0
BITMAP
7300
7300
0000
0000
0000
1E00
7F00
6180
C180
C180
FFC0
FFC0
C000
C000
6080
7F80
1F00
ENDCHAR
STARTCHAR 0452
ENCODING 1106
SWIDTH 630 0
DWIDTH 14 0
BBX 12 22 0 -5
BITMAP
7800
7800
3800
FE00
3800
3BC0
3FE0
3870
3830
3830
3830
3830
3830
3830
3830
7C30
7C30
0030
0030
0030
01E0
01C0
ENDCHAR
STARTCHAR 0453
ENCODING 1107
SWIDTH 540 0
DWIDTH 12 0
BBX 9 17 1 0
BITMAP
0700
0E00
1C00
0000
0000
FF80
FF80
3080
3000
3000
3000
3000
3000
3000
3000
F800
F800
ENDCHAR
STARTCHAR 0454
ENCODING 1108
SWIDTH 540 0
DWIDTH 12 0
BBX 10 12 1 0
BITMAP
1F00
3FC0
60C0
60C0
C000
FC00
FC00
C000
60C0
61C0
3F80
1F00
ENDCHAR
STARTCHAR 0455
ENCODING 1109
SWIDTH 495 0
DWIDTH 11 0
BBX 9 12 1 0
BITMAP
3E00
7F00
E180
C180
E000
7C00
1F00
0380
C180
C180
FF00
7E00
ENDCHAR
STARTCHAR 0456
ENCODING 1110
SWIDTH 315 0
DWIDTH 7 0
BBX 5 17 1 0
BITMAP
70
70
00
00
00
F0
F0
70
70
70
70
70
70
70
70
F8
F8
ENDCHAR
STARTCHAR 0457
ENCODING 1111
SWIDTH 315 0
DWIDTH 7 0
BBX 7 17 0 0
BITMAP
C6
C6
00
00
00
78
78
38
38
38
38
38
38
38
38
7C
7C
ENDCHAR
STARTCHAR 0458
ENCODING 1112
SWIDTH 270 0
DWIDTH 6 0
BBX 5 22 -1 -5
BITMAP
18
18
00
00
00
78
78
18
18
18
18
18
18
18
18
18
18
18
18
18
78
F0
ENDCHAR
STARTCHAR 0459
ENCODING 1113
SWIDTH 855 0
DWIDTH 19 0
BBX 17 12 1 0
BITMAP
7FF000
7FE000
30C000
30C000
30C000
30FE00
30FF80
30C180
30C180
30C180
E1FF80
C3FE00
ENDCHAR
STARTCHAR 045A
ENCODING 1114
SWIDTH 900 0
DWIDTH 20 0
BBX 18 12 1 0
BITMAP
FDF800
FDF800
306000
306000
306000
3FFF80
3FFFC0
3060C0
3060C0
3060C0
78FFC0
FDFF80
ENDCHAR
STARTCHAR 045B
ENCODING 1115
SWIDTH 630 0
DWIDTH 14 0
BBX 12 17 1 0
BITMAP
E000
E000
6000
FC00
FC00
6780
6FC0
70C0
6060
6060
6060
6060
6060
6060
6060
F0F0
F9F0
ENDCHAR
STARTCHAR 045C
ENCODING 1116
SWIDTH 630 0
DWIDTH 14 0
BBX 12 17 1 0
BITMAP
0380
0700
0600
0800
0000
FC70
78E0
3180
3380
3300
3E00
3E00
3300
3380
31C0
78E0
FC70
ENDCHAR
STARTCHAR 045D
ENCODING 1117
SWIDTH 675 0
DWIDTH 15 0
BBX 13 17 1 0
BITMAP
1C00
0600
0300
0000
0000
FC78
F8F8
30E0
31E0
3360
3360
3660
3660
3C60
3860
78F0
F1F8
ENDCHAR
STARTCHAR 045E
ENCODING 1118
SWIDTH 585 0
DWIDTH 13 0
BBX 13 22 0 -5
BITMAP
18C0
18C0
0F80
0000
0000
F8F8
F8F0
3060
3060
18C0
18C0
1CC0
0D80
0D80
0700
0700
0700
0600
0600
0E00
3C00
3800
ENDCHAR
STARTCHAR 045F
ENCODING 1119
SWIDTH 675 0
DWIDTH 15 0
BBX 13 16 1 -4
BITMAP
FDF8
FCF8
3060
3060
3060
3060
3060
3060
3060
3060
7FF0
FFF8
0700
0700
0700
0700
ENDCHAR
STARTCHAR 0460
ENCODING 1120
SWIDTH 855 0
DWIDTH 19 0
BBX 15 16 2 0
BITMAP
C386
C386
C386
C386
C386
C386
C386
C386
C386
C386
C386
C386
C386
C386
FEFE
3C78
ENDCHAR
STARTCHAR 0461
ENCODING 1121
SWIDTH 765 0
DWIDTH 17 0
BBX 14 12 2 0
BITMAP
C30C
C30C
C30C
C30C
C30C
C30C
C30C
C30C
C30C
C71C
FFF8
7CF0
ENDCHAR
STARTCHAR 0462
ENCODING 1122
SWIDTH 675 0
DWIDTH 15 0
BBX 13 16 1 0
BITMAP
F800
F800
7000
FC00
FC00
7000
7F80
7FE0
7070
7038
7018
7018
7038
7030
FFF0
FFC0
ENDCHAR
STARTCHAR 0463
ENCODING 1123
SWIDTH 585 0
DWIDTH 13 0
BBX 11 17 1 0
BITMAP
F000
7000
3000
FE00
FE00
3000
3000
3000
3000
3F80
3FC0
3060
3060
3060
3060
7FC0
FF80
ENDCHAR
STARTCHAR 0464
ENCODING 1124
SWIDTH 855 0
DWIDTH 19 0
BBX 18 16 1 0
BITMAP
F83E00
F8F780
61C0C0
6180C0
6300C0
630000
630000
7FFC00
7FFC00
630000
630000
6300C0
6180C0
61C1C0
F8FF80
F83E00
ENDCHAR
STARTCHAR 0465
ENCODING 1125
SWIDTH 810 0
DWIDTH 18 0
BBX 16 12 1 0
BITMAP
F07C
70EF
3183
3383
3300
3FF0
3FF0
3300
3383
3187
FCFE
FC78
ENDCHAR
STARTCHAR 0466
ENCODING 1126
SWIDTH 675 0
DWIDTH 15 0
BBX 14 16 1 0
BITMAP
0300
0700
0700
0780
0D80
0D80
1CC0
18C0
18E0
3FE0
3FE0
3370
6330
6330
E338
F37C
ENDCHAR
STARTCHAR 0467
ENCODING 1127
SWIDTH 585 0
DWIDTH 13 0
BBX 11 12 1 0
BITMAP
0E00
0E00
0E00
1B00
1B00
3380
3180
3F80
7FC0
6EC0
EEE0
CE60
ENDCHAR
STARTCHAR 0468
ENCODING 1128
SWIDTH 945 0
DWIDTH 21 0
BBX 21 16 0 0
BITMAP
FC0E00
FC0E00
300E00
301B00
301B00
301B00
303180
303180
303180
3FFFC0
3FFFC0
306EC0
30CE60
30CE60
79CE70
FFEEF8
ENDCHAR
STARTCHAR 0469
ENCODING 1129
SWIDTH 855 0
DWIDTH 19 0
BBX 18 12 0 0
BITMAP
F01800
701C00
303C00
303600
303600
306600
306300
3FFF00
3FFF80
30D980
7D99C0
FD98C0
ENDCHAR
STARTCHAR 046A
ENCODING 1130
SWIDTH 900 0
DWIDTH 20 0
BBX 19 16 1 0
BITMAP
3FFF00
1FFF00
0E0C00
061C00
071800
033000
01B000
0FFE00
3FFF00
30C380
70C180
60C180
60C180
60C180
F9E3C0
FBF7E0
ENDCHAR
STARTCHAR 046B
ENCODING 1131
SWIDTH 765 0
DWIDTH 17 0
BBX 15 12 1 0
BITMAP
3FF8
1FF8
0C60
0E60
06C0
0FE0
3FF8
319C
618C
618C
E7CE
E7CE
ENDCHAR
STARTCHAR 046C
ENCODING 1132
SWIDTH 1170 0
DWIDTH 26 0
BBX 25 16 1 0
BITMAP
F8FFFC00
F87FFC00
60383000
60187000
600C6000
600CE000
6006C000
7FFFF800
7FFFFC00
60C30E00
60C30600
61C30600
61C30600
61C30600
FBE78F00
FBEFDF80
ENDCHAR
STARTCHAR 046D
ENCODING 1133
SWIDTH 1080 0
DWIDTH 24 0
BBX 22 12 0 0
BITMAP
F07FF0
707FE0
3018C0
301DC0
300D80
3FFFC0
3FFFF0
30E630
30C618
30C618
79CF9C
FFCF9C
ENDCHAR
STARTCHAR 046E
ENCODING 1134
SWIDTH 495 0
DWIDTH 11 0
BBX 10 26 0 -5
BITMAP
2100
3300
1E00
0C00
0000
3E00
7F80
C180
C0C0
00C0
00C0
0180
1F00
1F80
01C0
00C0
00C0
00C0
01C0
1F80
7F00
6000
6000
7000
3800
1000
ENDCHAR
STARTCHAR 046F
ENCODING 1135
SWIDTH 450 0
DWIDTH 10 0
BBX 9 22 0 -5
BITMAP
6300
3600
0800
0000
0000
3E00
FF00
C180
C180
0180
1F00
1F00
0180
0180
0180
1F80
7E00
6000
6000
6000
3000
1000
ENDCHAR
STARTCHAR 0470
ENCODING 1136
SWIDTH 810 0
DWIDTH 18 0
BBX 16 16 1 0
BITMAP
E7EF
E7EF
618C
618C
618C
618C
618C
718C
318C
3998
1FF8
07E0
0180
0180
03C0
07E0
ENDCHAR
STARTCHAR 0471
ENCODING 1137
SWIDTH 765 0
DWIDTH 17 0
BBX 16 17 0 -5
BITMAP
F0CE
F0C6
30C6
30C7
30C3
30C3
30C3
38C7
18C6
1CCE
0FFC
07F8
00C0
00C0
00C0
00C0
00C0
ENDCHAR
STARTCHAR 0472
ENCODING 1138
SWIDTH 675 0
DWIDTH 15 0
BBX 14 16 1 0
BITMAP
0F80
3FE0
3070
6038
E018
C018
C01C
FFFC
FFFC
C01C
C018
E018
6038
3070
3FE0
0F80
ENDCHAR
STARTCHAR 0473
ENCODING 1139
SWIDTH 585 0
DWIDTH 13 0
BBX 11 12 1 0
BITMAP
1F00
3F80
61C0
E0C0
C0C0
FFE0
FFE0
C0C0
E0C0
61C0
3F80
1F00
ENDCHAR
STARTCHAR 0474
ENCODING 1140
SWIDTH 675 0
DWIDTH 15 0
BBX 13 16 1 0
BITMAP
F018
F038
6030
7030
3060
3060
3860
18C0
18C0
18C0
0D80
0D80
0D80
0700
0700
0700
ENDCHAR
STARTCHAR 0475
ENCODING 1141
SWIDTH 585 0
DWIDTH 13 0
BBX 11 12 1 0
BITMAP
F0E0
60E0
6180
6180
3180
3300
3300
1A00
1E00
0E00
0C00
0C00
ENDCHAR
STARTCHAR 0476
ENCODING 1142
SWIDTH 675 0
DWIDTH 15 0
BBX 13 20 1 0
BITMAP
3F00
1980
0EC0
0000
F018
F038
6030
7030
3060
3060
3860
18C0
18C0
18C0
0D80
0D80
0D80
0700
0700
0700
ENDCHAR
STARTCHAR 0477
ENCODING 1143
SWIDTH 585 0
DWIDTH 13 0
BBX 11 17 1 0
BITMAP
EE00
3600
1B00
0000
0000
F0E0
60E0
6180
6180
3180
3300
3300
1A00
1E00
0E00
0C00
0C00
ENDCHAR
STARTCHAR 0478
ENCODING 1144
SWIDTH 1215 0
DWIDTH 27 0
BBX 26 21 1 -5
BITMAP
0F800000
3FC00000
70600000
60300000
C033E7C0
C03BC3C0
C019C180
C018C300
C018C300
C0186600
C0386600
C0306600
60303C00
70603C00
3FC01C00
0F801800
00001800
00001800
00003000
0000F000
0000E000
ENDCHAR
STARTCHAR 0479
ENCODING 1145
SWIDTH 1125 0
DWIDTH 25 0
BBX 24 17 1 -5
BITMAP
1E1F1F
7F9F1E
61860C
C0C60C
C0C318
C0C318
C0C318
C0C1B0
C0C1B0
6180E0
7F80E0
1E00E0
0000C0
0000C0
0001C0
000780
000700
ENDCHAR
STARTCHAR 047A
ENCODING 1146
SWIDTH 720 0
DWIDTH 16 0
BBX 14 18 1 -1
BITMAP
0300
0F80
3FE0
3370
6038
E018
C018
C01C
C00C
C00C
C01C
C018
E018
6038
3370
3FE0
0F80
0300
ENDCHAR
STARTCHAR 047B
ENCODING 1147
SWIDTH 585 0
DWIDTH 13 0
BBX 11 14 1 -1
BITMAP
0C00
1F00
3F80
6DC0
E0C0
C0C0
C0E0
C0E0
C0C0
E0C0
6DC0
3F80
1F00
0C00
ENDCHAR
STARTCHAR 047C
ENCODING 1148
SWIDTH 855 0
DWIDTH 19 0
BBX 16 21 1 0
BITMAP
0380
06E0
0438
00C0
00C0
198C
780E
6003
6003
E003
E003
E003
E183
E183
E183
E183
E183
61C3
61C3
7F7E
1E3C
ENDCHAR
STARTCHAR 047D
ENCODING 1149
SWIDTH 720 0
DWIDTH 16 0
BBX 14 16 1 0
BITMAP
0780
0DF0
0180
0180
3318
701C
E00C
C00C
C00C
C30C
C30C
C30C
C30C
638C
7FFC
3CF8
ENDCHAR
STARTCHAR 047E
ENCODING 1150
SWIDTH 855 0
DWIDTH 19 0
BBX 15 20 2 0
BITMAP
1FF0
0300
0300
0000
C386
C386
C386
C386
C386
C386
C386
C386
C386
C386
C386
C386
C386
C386
FEFE
3C78
ENDCHAR
STARTCHAR 047F
ENCODING 1151
SWIDTH 765 0
DWIDTH 17 0
BBX 14 16 2 0
BITMAP
3FE0
0300
0300
0000
C30C
C30C
C30C
C30C
C30C
C30C
C30C
C30C
C30C
C71C
FFF8
7CF0
ENDCHAR
STARTCHAR 0480
ENCODING 1152
SWIDTH 630 0
DWIDTH 14 0
BBX 12 21 1 -5
BITMAP
0F80
3FC0
3060
6070
6030
C000
C000
C000
C000
C000
C000
C000
6000
6000
7000
3E00
0E00
0600
0600
0600
0600
ENDCHAR
STARTCHAR 0481
ENCODING 1153
SWIDTH 495 0
DWIDTH 11 0
BBX 10 17 1 -5
BITMAP
1E00
3F80
6180
60C0
C0C0
C000
C000
C000
C000
6000
6000
3C00
1C00
0C00
0C00
0C00
0C00
ENDCHAR
STARTCHAR 0482
ENCODING 1154
SWIDTH 540 0
DWIDTH 12 0
BBX 12 15 0 0
BITMAP
0060
0060
08C0
1C80
0780
03C0
03F0
0620
E600
7C00
1C00
1F00
1380
3000
6000
ENDCHAR
STARTCHAR 0483
ENCODING 1155
SWIDTH 0 0
DWIDTH 0 0
BBX 8 4 0 12
BITMAP
03
FF
C0
C0
ENDCHAR
STARTCHAR 0484
ENCODING 1156
SWIDTH 0 0
DWIDTH 0 0
BBX 9 2 0 14
BITMAP
1F00
F980
ENDCHAR
STARTCHAR 0485
ENCODING 1157
SWIDTH 0 0
DWIDTH 0 0
BBX 3 4 0 14
BITMAP
C0
40
60
20
ENDCHAR
STARTCHAR 0486
ENCODING 1158
SWIDTH 0 0
DWIDTH 0 0
BBX 3 4 0 14
BITMAP
60
60
C0
40
ENDCHAR
STARTCHAR 0488
ENCODING 1160
SWIDTH 990 0
DWIDTH 22 0
BBX 21 19 0 -3
BITMAP
007000
00C800
000000
1C01E0
320120
000000
000000
000000
700078
C80048
000000
000000
000000
000000
1C01C0
260120
000000
007000
004800
ENDCHAR
STARTCHAR 0489
ENCODING 1161
SWIDTH 945 0
DWIDTH 21 0
BBX 20 21 0 -4
BITMAP
003000
002000
002000
186000
0800C0
0C0380
040100
000000
000000
800080
F00070
100010
000000
000000
000000
040100
0E0180
183080
002080
002000
004000
ENDCHAR
STARTCHAR 048A
ENCODING 1162
SWIDTH 765 0
DWIDTH 17 0
BBX 15 25 1 -5
BITMAP
0C60
0C60
07C0
0000
F83E
F83E
3018
3018
3038
3078
30D8
3198
3318
3718
3E18
3C18
3818
3018
783C
F83E
0006
0006
0006
000C
0004
ENDCHAR
STARTCHAR 048B
ENCODING 1163
SWIDTH 675 0
DWIDTH 15 0
BBX 13 22 1 -5
BITMAP
18C0
18C0
0F80
0000
0000
FC78
F8F8
30E0
31E0
3360
3360
3660
3660
3C60
3860
78F0
F1F8
0018
0018
0018
0030
0020
ENDCHAR
STARTCHAR 048C
ENCODING 1164
SWIDTH 675 0
DWIDTH 15 0
BBX 13 16 1 0
BITMAP
F800
F800
7000
FC00
FC00
7000
7F80
7FE0
7070
7038
7018
7018
7038
7030
FFF0
FFC0
ENDCHAR
STARTCHAR 048D
ENCODING 1165
SWIDTH 585 0
DWIDTH 13 0
BBX 12 18 0 0
BITMAP
7800
3800
FF00
FF00
1800
1800
1800
1800
1800
1800
1FC0
1FE0
1830
1830
1830
1830
3FE0
7FC0
ENDCHAR
STARTCHAR 048E
ENCODING 1166
SWIDTH 630 0
DWIDTH 14 0
BBX 12 16 1 0
BITMAP
FFC0
FFE0
3070
3030
3030
30B0
31F0
30F0
3FE0
3FB0
3010
3000
3000
3000
7800
F800
ENDCHAR
STARTCHAR 048F
ENCODING 1167
SWIDTH 585 0
DWIDTH 13 0
BBX 12 17 0 -5
BITMAP
F7C0
7FE0
3860
3070
3030
3030
3030
30B0
31B0
38E0
3FE0
37F0
3020
3000
3000
FC00
FC00
ENDCHAR
STARTCHAR 0490
ENCODING 1168
SWIDTH 585 0
DWIDTH 13 0
BBX 11 20 1 0
BITMAP
0060
0060
0060
0060
FFE0
FFE0
7000
7000
7000
7000
7000
7000
7000
7000
7000
7000
7000
7000
F800
F800
ENDCHAR
STARTCHAR 0491
ENCODING 1169
SWIDTH 540 0
DWIDTH 12 0
BBX 9 14 1 0
BITMAP
0180
0180
FF80
FF80
7000
7000
7000
7000
7000
7000
7000
7000
F800
F800
ENDCHAR
STARTCHAR 0492
ENCODING 1170
SWIDTH 585 0
DWIDTH 13 0
BBX 11 16 1 0
BITMAP
FFE0
FFE0
3060
3060
3000
3000
3000
FC00
FC00
3000
3000
3000
3000
3000
7800
F800
ENDCHAR
STARTCHAR 0493
ENCODING 1171
SWIDTH 540 0
DWIDTH 12 0
BBX 9 12 1 0
BITMAP
FF80
FF80
3080
3000
3000
FC00
FC00
3000
3000
3000
F800
F800
ENDCHAR
STARTCHAR 0494
ENCODING 1172
SWIDTH 585 0
DWIDTH 13 0
BBX 11 19 1 -3
BITMAP
FFE0
FFE0
3060
3060
3000
3000
3000
3F00
3FC0
30C0
3060
3060
3060
3060
7860
F860
0060
03C0
0380
ENDCHAR
STARTCHAR 0495
ENCODING 1173
SWIDTH 540 0
DWIDTH 12 0
BBX 10 15 1 -3
BITMAP
FF80
FF80
7080
7000
7000
7F00
7F80
71C0
70C0
70C0
70C0
F8C0
01C0
0380
0300
ENDCHAR
STARTCHAR 0496
ENCODING 1174
SWIDTH 990 0
DWIDTH 22 0
BBX 21 20 1 -4
BITMAP
E1F878
F1F8F0
3860C0
186180
1C6380
0C6300
066600
07FE00
07FE00
0E6700
0C6300
1C6380
3861C0
3060C0
F0F0F0
F9F9F0
000030
000030
000030
000030
ENDCHAR
STARTCHAR 0497
ENCODING 1175
SWIDTH 855 0
DWIDTH 19 0
BBX 18 16 0 -4
BITMAP
73F1C0
7BF3C0
18C700
0CC600
0CCC00
07FC00
07FC00
0CCC00
1CC600
18C700
79E380
F3F3C0
0000C0
0000C0
0000C0
0000C0
ENDCHAR
STARTCHAR 0498
ENCODING 1176
SWIDTH 585 0
DWIDTH 13 0
BBX 11 20 1 -4
BITMAP
1F00
7FC0
C0C0
C060
C060
00E0
00C0
0F80
0FC0
00E0
0060
C060
C060
E0E0
7FC0
1F00
0E00
0E00
0E00
0E00
ENDCHAR
STARTCHAR 0499
ENCODING 1177
SWIDTH 495 0
DWIDTH 11 0
BBX 9 16 1 -4
BITMAP
3E00
7F00
E380
0180
0380
1F00
1F00
0180
C180
C180
7F00
3E00
1C00
1C00
1C00
1C00
ENDCHAR
STARTCHAR 049A
ENCODING 1178
SWIDTH 720 0
DWIDTH 16 0
BBX 14 20 1 -4
BITMAP
F838
F878
3060
30C0
3180
3180
3300
3E00
3F00
3380
3180
30C0
30E0
3070
F838
F87C
000C
000C
000C
000C
ENDCHAR
STARTCHAR 049B
ENCODING 1179
SWIDTH 630 0
DWIDTH 14 0
BBX 12 16 1 -4
BITMAP
FC70
78E0
3180
3380
3300
3E00
3E00
3300
3380
31C0
78E0
FC70
0030
0030
0030
0030
ENDCHAR
STARTCHAR 049C
ENCODING 1180
SWIDTH 720 0
DWIDTH 16 0
BBX 14 16 1 0
BITMAP
F81C
F83C
7070
7060
74E0
74C0
75C0
7F80
7F80
74C0
74C0
7060
7070
7030
F838
F81C
ENDCHAR
STARTCHAR 049D
ENCODING 1181
SWIDTH 675 0
DWIDTH 15 0
BBX 13 12 1 0
BITMAP
FC38
7870
30C0
34C0
3580
3F80
3F80
35C0
34C0
30E0
7870
FC38
ENDCHAR
STARTCHAR 049E
ENCODING 1182
SWIDTH 720 0
DWIDTH 16 0
BBX 14 16 1 0
BITMAP
F838
F878
3060
FCC0
FD80
3180
3300
3E00
3F00
3380
3180
30C0
30E0
3070
F838
F87C
ENDCHAR
STARTCHAR 049F
ENCODING 1183
SWIDTH 630 0
DWIDTH 14 0
BBX 12 17 1 0
BITMAP
F000
F000
3000
FE00
FE00
31E0
31E0
3180
3380
3700
3E00
3F00
3300
3180
31C0
70E0
FDF0
ENDCHAR
STARTCHAR 04A0
ENCODING 1184
SWIDTH 855 0
DWIDTH 19 0
BBX 19 16 0 0
BITMAP
FFC1C0
FFC3C0
C38700
C38600
038C00
039C00
039800
03F000
03F800
039800
038C00
038E00
038700
038380
07C3C0
07C3E0
ENDCHAR
STARTCHAR 04A1
ENCODING 1185
SWIDTH 765 0
DWIDTH 17 0
BBX 16 12 1 0
BITMAP
FF8E
FF1E
C638
C630
0660
07E0
07E0
0670
0638
0618
0F0E
0F8F
ENDCHAR
STARTCHAR 04A2
ENCODING 1186
SWIDTH 765 0
DWIDTH 17 0
BBX 15 20 1 -4
BITMAP
F87E
F83E
3018
3018
3018
3018
3018
3FF8
3FF8
3018
3018
3018
3018
3018
783C
F87E
0006
0006
0006
0006
ENDCHAR
STARTCHAR 04A3
ENCODING 1187
SWIDTH 675 0
DWIDTH 15 0
BBX 13 16 1 -4
BITMAP
FDF8
FDF8
3060
3060
3060
3FE0
3FE0
3060
3060
3060
78F0
FDF8
0018
0018
0018
0018
ENDCHAR
STARTCHAR 04A4
ENCODING 1188
SWIDTH 990 0
DWIDTH 22 0
BBX 20 16 1 0
BITMAP
F87FF0
F03FF0
601830
601830
601800
601800
601800
7FF800
7FF800
601800
601800
601800
601800
601800
F03C00
F87E00
ENDCHAR
STARTCHAR 04A5
ENCODING 1189
SWIDTH 765 0
DWIDTH 17 0
BBX 15 12 1 0
BITMAP
FDFE
78FE
3062
3062
3060
3FE0
3FE0
3060
3060
3060
78F0
FDF8
ENDCHAR
STARTCHAR 04A6
ENCODING 1190
SWIDTH 1035 0
DWIDTH 23 0
BBX 20 19 1 -3
BITMAP
FFFE00
FFFE00
301800
301800
301800
301800
301800
301F80
301FE0
301860
301830
301830
301830
301830
783C30
F83E30
000030
0001E0
0001C0
ENDCHAR
STARTCHAR 04A7
ENCODING 1191
SWIDTH 945 0
DWIDTH 21 0
BBX 18 15 1 -3
BITMAP
FFF800
7FF000
306000
306000
306000
307E00
307F00
306380
306180
3061C0
78F0C0
FDF980
000180
000700
000600
ENDCHAR
STARTCHAR 04A8
ENCODING 1192
SWIDTH 765 0
DWIDTH 17 0
BBX 14 16 1 0
BITMAP
18F0
39F8
631C
630C
C70C
C70C
C70C
C70C
C70C
C70C
C30C
631C
6198
30F0
1FFC
0F9C
ENDCHAR
STARTCHAR 04A9
ENCODING 1193
SWIDTH 630 0
DWIDTH 14 0
BBX 12 12 1 0
BITMAP
3380
77C0
6660
CE60
CE60
CE60
CE60
E660
6760
73C0
3FF0
1F70
ENDCHAR
STARTCHAR 04AA
ENCODING 1194
SWIDTH 630 0
DWIDTH 14 0
BBX 12 20 1 -4
BITMAP
0FC0
3FE0
7030
6030
E030
C000
C000
C000
C000
C000
C000
E030
6030
7030
3FF0
0FC0
0300
0300
0300
0300
ENDCHAR
STARTCHAR 04AB
ENCODING 1195
SWIDTH 495 0
DWIDTH 11 0
BBX 10 16 1 -4
BITMAP
1F00
7F80
6180
C080
C080
C000
C000
C000
C0C0
6180
7F80
1E00
0C00
0C00
0C00
0C00
ENDCHAR
STARTCHAR 04AC
ENCODING 1196
SWIDTH 675 0
DWIDTH 15 0
BBX 13 20 1 -4
BITMAP
FFF8
FFF8
C718
C718
0700
0700
0700
0700
0700
0700
0700
0700
0700
0700
0F80
0F80
0180
0180
0180
0180
ENDCHAR
STARTCHAR 04AD
ENCODING 1197
SWIDTH 585 0
DWIDTH 13 0
BBX 11 16 1 -4
BITMAP
FFE0
FFE0
CC60
CC60
0C00
0C00
0C00
0C00
0C00
0C00
1F00
3F00
0300
0300
0300
0300
ENDCHAR
STARTCHAR 04AE
ENCODING 1198
SWIDTH 720 0
DWIDTH 16 0
BBX 14 16 1 0
BITMAP
F87C
F87C
7030
3030
1860
18C0
0CC0
0D80
0780
0700
0300
0300
0300
0300
0780
0FC0
ENDCHAR
STARTCHAR 04AF
ENCODING 1199
SWIDTH 540 0
DWIDTH 12 0
BBX 11 17 0 -5
BITMAP
E1E0
E1E0
30C0
30C0
30C0
1980
1980
1900
0F00
0F00
0E00
0600
0600
0600
0600
0600
0600
ENDCHAR
STARTCHAR 04B0
ENCODING 1200
SWIDTH 720 0
DWIDTH 16 0
BBX 14 16 1 0
BITMAP
F87C
F87C
7030
3030
1860
18C0
0CC0
0D80
0780
0FC0
0FC0
0300
0300
0300
0780
0FC0
ENDCHAR
STARTCHAR 04B1
ENCODING 1201
SWIDTH 540 0
DWIDTH 12 0
BBX 11 17 0 -5
BITMAP
E1E0
E1E0
30C0
30C0
30C0
1980
1980
1900
0F00
0F00
1F80
1F80
0600
0600
0600
0600
0600
ENDCHAR
STARTCHAR 04B2
ENCODING 1202
SWIDTH 720 0
DWIDTH 16 0
BBX 15 20 1 -4
BITMAP
F87C
F87C
3030
1870
0C60
0EC0
0780
0380
0380
07C0
0CC0
1C60
1830
3038
701C
F87E
000E
000E
000E
000E
ENDCHAR
STARTCHAR 04B3
ENCODING 1203
SWIDTH 585 0
DWIDTH 13 0
BBX 13 16 0 -4
BITMAP
78F0
78F0
38C0
1D80
0D80
0700
0700
0D80
19C0
38E0
7070
F8F8
0038
0038
0038
0038
ENDCHAR
STARTCHAR 04B4
ENCODING 1204
SWIDTH 900 0
DWIDTH 20 0
BBX 18 20 1 -4
BITMAP
FFCFC0
FFC780
CCC300
CCC300
0C0300
0C0300
0C0300
0C0300
0C0300
0C0300
0C0300
0C0300
0C0300
0C0300
1FFFC0
1FFFC0
0000C0
0000C0
0000C0
0000C0
ENDCHAR
STARTCHAR 04B5
ENCODING 1205
SWIDTH 765 0
DWIDTH 17 0
BBX 15 15 1 -3
BITMAP
FFDE
FFDE
8CD8
8CD8
0C18
0C18
0C18
0C18
0C18
0C18
1FFE
3FFE
0006
0006
0006
ENDCHAR
STARTCHAR 04B6
ENCODING 1206
SWIDTH 720 0
DWIDTH 16 0
BBX 15 20 1 -4
BITMAP
F87E
F87E
7018
7018
7018
7018
3018
3018
3FF8
0FF8
0018
0018
0018
0018
003C
007E
0006
0006
0006
0006
ENDCHAR
STARTCHAR 04B7
ENCODING 1207
SWIDTH 675 0
DWIDTH 15 0
BBX 12 16 1 -4
BITMAP
F9F0
F9F0
7060
7060
3060
3060
3FE0
0FE0
0060
0060
01F0
01F0
0030
0030
0030
0030
ENDCHAR
STARTCHAR 04B8
ENCODING 1208
SWIDTH 720 0
DWIDTH 16 0
BBX 15 16 1 0
BITMAP
F87E
F83C
7018
7018
7018
7318
3318
3318
3FF8
0FF8
0318
0318
0318
0018
003C
007E
ENDCHAR
STARTCHAR 04B9
ENCODING 1209
SWIDTH 675 0
DWIDTH 15 0
BBX 13 12 1 0
BITMAP
FDF8
78F0
3060
3260
3260
3260
1FE0
0FE0
0260
0060
00F0
01F8
ENDCHAR
STARTCHAR 04BA
ENCODING 1210
SWIDTH 765 0
DWIDTH 17 0
BBX 15 16 1 0
BITMAP
F800
F800
7000
7000
7000
7000
7FE0
7FF0
7038
7018
7018
7018
7018
7018
F83C
F87E
ENDCHAR
STARTCHAR 04BB
ENCODING 1211
SWIDTH 630 0
DWIDTH 14 0
BBX 12 17 1 0
BITMAP
E000
E000
6000
6000
6000
6780
6FC0
70C0
6060
6060
6060
6060
6060
6060
6060
F0F0
F9F0
ENDCHAR
STARTCHAR 04BC
ENCODING 1212
SWIDTH 765 0
DWIDTH 17 0
BBX 15 16 1 0
BITMAP
01E0
07F8
0E1C
0C0C
980C
D806
FFFE
3FFE
1800
1800
1800
1C00
0C00
0E04
07FC
01F8
ENDCHAR
STARTCHAR 04BD
ENCODING 1213
SWIDTH 630 0
DWIDTH 14 0
BBX 12 12 0 0
BITMAP
07C0
0FE0
1C70
D830
D830
7FF0
3FF0
3800
1800
1C20
0FF0
07C0
ENDCHAR
STARTCHAR 04BE
ENCODING 1214
SWIDTH 765 0
DWIDTH 17 0
BBX 15 20 1 -4
BITMAP
01E0
07F8
0E1C
0C0C
980C
D806
FFFE
3FFE
1800
1800
1800
1C00
0C00
0E04
07FC
01F8
00C0
00C0
00C0
00C0
ENDCHAR
STARTCHAR 04BF
ENCODING 1215
SWIDTH 630 0
DWIDTH 14 0
BBX 12 16 0 -4
BITMAP
07C0
0FE0
1C70
D830
D830
7FF0
3FF0
3800
1800
1C20
0FF0
07C0
0380
0380
0380
0380
ENDCHAR
STARTCHAR 04C0
ENCODING 1216
SWIDTH 315 0
DWIDTH 7 0
BBX 5 16 1 0
BITMAP
F8
F8
30
30
30
30
30
30
30
30
30
30
30
30
78
F8
ENDCHAR
STARTCHAR 04C1
ENCODING 1217
SWIDTH 990 0
DWIDTH 22 0
BBX 21 20 1 0
BITMAP
010800
019800
00F000
000000
E1F878
F1F8F0
3860C0
186180
1C6380
0C6300
066600
07FE00
07FE00
0E6700
0C6300
1C6380
3861C0
3060C0
F0F0F0
F9F9F0
ENDCHAR
STARTCHAR 04C2
ENCODING 1218
SWIDTH 855 0
DWIDTH 19 0
BBX 18 17 0 0
BITMAP
021800
033000
01F000
000000
000000
73F1C0
7BF3C0
18C700
0CC600
0CCC00
07FC00
07FC00
0CCC00
1CC600
18C700
79E380
F3F3C0
ENDCHAR
STARTCHAR 04C3
ENCODING 1219
SWIDTH 675 0
DWIDTH 15 0
BBX 13 19 1 -3
BITMAP
F838
F878
7060
70C0
7180
7380
7700
7F80
7FE0
7070
7030
7018
7018
7018
7818
F838
0030
00F0
00C0
ENDCHAR
STARTCHAR 04C4
ENCODING 1220
SWIDTH 630 0
DWIDTH 14 0
BBX 11 15 1 -3
BITMAP
FCE0
F9E0
3180
3300
3700
3F00
3FC0
30E0
3060
3060
7860
FC60
00E0
01C0
0100
ENDCHAR
STARTCHAR 04C5
ENCODING 1221
SWIDTH 720 0
DWIDTH 16 0
BBX 14 21 1 -5
BITMAP
7FFC
3FFC
1818
1818
1818
1818
1818
1818
1818
1818
1818
3818
3018
3018
E03C
C07C
000C
000C
000C
001C
0008
ENDCHAR
STARTCHAR 04C6
ENCODING 1222
SWIDTH 630 0
DWIDTH 14 0
BBX 12 17 1 -5
BITMAP
FFF0
7FE0
30C0
30C0
30C0
30C0
30C0
30C0
30C0
30C0
E1E0
C1F0
0030
0030
0030
0060
0020
ENDCHAR
STARTCHAR 04C7
ENCODING 1223
SWIDTH 765 0
DWIDTH 17 0
BBX 15 21 1 -5
BITMAP
F83E
F83E
3018
3018
3018
3018
3018
3FF8
3FF8
3018
3018
3018
3018
3018
7818
F818
0018
0018
0018
0078
0070
ENDCHAR
STARTCHAR 04C8
ENCODING 1224
SWIDTH 675 0
DWIDTH 15 0
BBX 13 17 1 -5
BITMAP
FDF8
FDF8
3060
3060
3060
3FE0
3FE0
3060
3060
3060
7860
FC60
0060
0060
0060
01E0
03C0
ENDCHAR
STARTCHAR 04C9
ENCODING 1225
SWIDTH 765 0
DWIDTH 17 0
BBX 15 21 1 -5
BITMAP
F87E
F83E
3018
3018
3018
3018
3018
3FF8
3FF8
3018
3018
3018
3018
3018
783C
F87E
0006
0006
0006
000C
0004
ENDCHAR
STARTCHAR 04CA
ENCODING 1226
SWIDTH 675 0
DWIDTH 15 0
BBX 13 17 1 -5
BITMAP
FDF8
FDF8
3060
3060
3060
3FE0
3FE0
3060
3060
3060
78F0
FDF8
0018
0018
0018
0030
0020
ENDCHAR
STARTCHAR 04CB
ENCODING 1227
SWIDTH 720 0
DWIDTH 16 0
BBX 15 20 1 -4
BITMAP
F87E
F87E
7018
7018
7018
7018
3018
3018
3FF8
0FF8
0018
0018
0018
0018
003C
007E
0006
0006
0006
0006
ENDCHAR
STARTCHAR 04CC
ENCODING 1228
SWIDTH 675 0
DWIDTH 15 0
BBX 12 16 1 -4
BITMAP
F9F0
F9F0
7060
7060
3060
3060
3FE0
0FE0
0060
0060
01F0
01F0
0030
0030
0030
0030
ENDCHAR
STARTCHAR 04CD
ENCODING 1229
SWIDTH 945 0
DWIDTH 21 0
BBX 19 21 1 -5
BITMAP
F803E0
F803E0
3C03C0
3C06C0
3C06C0
360CC0
360CC0
330CC0
3318C0
3398C0
31B0C0
31B0C0
30F0C0
30E0C0
7863E0
FC03E0
000060
000060
000060
0000C0
000040
ENDCHAR
STARTCHAR 04CE
ENCODING 1230
SWIDTH 855 0
DWIDTH 19 0
BBX 17 17 1 -5
BITMAP
F80F80
F80F00
3C1E00
3C1E00
3C3600
363600
366600
336600
336600
31C600
79CF00
FD9F80
000380
000300
000300
000700
000200
ENDCHAR
STARTCHAR 04CF
ENCODING 1231
SWIDTH 315 0
DWIDTH 7 0
BBX 5 16 1 0
BITMAP
F8
F8
30
30
30
30
30
30
30
30
30
30
30
30
78
F8
ENDCHAR
STARTCHAR 04D0
ENCODING 1232
SWIDTH 720 0
DWIDTH 16 0
BBX 15 20 1 0
BITMAP
0C60
0C40
07C0
0000
0300
0380
0780
0780
06C0
0CC0
0C60
0C60
1860
1830
3FF0
3FF0
3018
6018
601C
F03E
ENDCHAR
STARTCHAR 04D1
ENCODING 1233
SWIDTH 540 0
DWIDTH 12 0
BBX 10 17 1 0
BITMAP
6300
2300
3E00
0000
0000
3E00
FF00
C180
C180
0180
3F80
7180
C180
C180
C380
FFC0
79C0
ENDCHAR
STARTCHAR 04D2
ENCODING 1234
SWIDTH 720 0
DWIDTH 16 0
BBX 15 20 1 0
BITMAP
0CE0
0CE0
0000
0000
0300
0380
0780
0780
06C0
0CC0
0C60
0C60
1860
1830
3FF0
3FF0
3018
6018
601C
F03E
ENDCHAR
STARTCHAR 04D3
ENCODING 1235
SWIDTH 540 0
DWIDTH 12 0
BBX 10 17 1 0
BITMAP
7300
7300
0000
0000
0000
3E00
FF00
C180
C180
0180
3F80
7180
C180
C180
C380
FFC0
79C0
ENDCHAR
STARTCHAR 04D4
ENCODING 1236
SWIDTH 1035 0
DWIDTH 23 0
BBX 21 16 1 0
BITMAP
007FF0
007FF0
00F830
00F830
019800
039800
031800
061FE0
061FE0
0C1800
1FF800
1FF800
381818
301818
F03FF8
F07FF8
ENDCHAR
STARTCHAR 04D5
ENCODING 1237
SWIDTH 855 0
DWIDTH 19 0
BBX 17 12 1 0
BITMAP
3E3C00
FF7F00
C1C300
C1C180
018180
3FFF80
7FFF80
C18000
C1C000
C3C100
FE7F80
7C3E00
ENDCHAR
STARTCHAR 04D6
ENCODING 1238
SWIDTH 630 0
DWIDTH 14 0
BBX 12 20 1 0
BITMAP
1080
1980
0F00
0000
FFE0
FFE0
3020
3020
3000
3000
3000
3FC0
3FC0
3000
3000
3000
3030
3030
7FF0
FFF0
ENDCHAR
STARTCHAR 04D7
ENCODING 1239
SWIDTH 495 0
DWIDTH 11 0
BBX 10 17 1 0
BITMAP
6300
3300
3E00
0000
0000
1E00
7F00
6180
C180
C180
FFC0
FFC0
C000
C000
6080
7F80
1F00
ENDCHAR
STARTCHAR 04D8
ENCODING 1240
SWIDTH 675 0
DWIDTH 15 0
BBX 13 16 1 0
BITMAP
1F80
7FC0
2060
0030
0030
0038
0018
0018
FFF8
C018
C018
C030
E030
6060
3FC0
0F80
ENDCHAR
STARTCHAR 04D9
ENCODING 1241
SWIDTH 540 0
DWIDTH 12 0
BBX 10 12 1 0
BITMAP
3E00
FF00
4180
0180
00C0
FFC0
FFC0
C0C0
C180
6180
7F00
1E00
ENDCHAR
STARTCHAR 04DA
ENCODING 1242
SWIDTH 675 0
DWIDTH 15 0
BBX 13 20 1 0
BITMAP
19C0
19C0
0000
0000
1F80
7FC0
2060
0030
0030
0038
0018
0018
FFF8
C018
C018
C030
E030
6060
3FC0
0F80
ENDCHAR
STARTCHAR 04DB
ENCODING 1243
SWIDTH 540 0
DWIDTH 12 0
BBX 10 17 1 0
BITMAP
7300
7300
0000
0000
0000
3E00
FF00
4180
0180
00C0
FFC0
FFC0
C0C0
C180
6180
7F00
1E00
ENDCHAR
STARTCHAR 04DC
ENCODING 1244
SWIDTH 990 0
DWIDTH 22 0
BBX 21 20 1 0
BITMAP
019800
019800
000000
000000
E1F878
F1F8F0
3860C0
186180
1C6380
0C6300
066600
07FE00
07FE00
0E6700
0C6300
1C6380
3861C0
3060C0
F0F0F0
F9F9F0
ENDCHAR
STARTCHAR 04DD
ENCODING 1245
SWIDTH 855 0
DWIDTH 19 0
BBX 18 17 0 0
BITMAP
033800
033800
000000
000000
000000
73F1C0
7BF3C0
18C700
0CC600
0CCC00
07FC00
07FC00
0CCC00
1CC600
18C700
79E380
F3F3C0
ENDCHAR
STARTCHAR 04DE
ENCODING 1246
SWIDTH 585 0
DWIDTH 13 0
BBX 11 20 1 0
BITMAP
3380
3380
0000
0000
1F00
7FC0
C0C0
C060
C060
00E0
00C0
0F80
0FC0
00E0
0060
C060
C060
E0E0
7FC0
1F00
ENDCHAR
STARTCHAR 04DF
ENCODING 1247
SWIDTH 495 0
DWIDTH 11 0
BBX 9 17 1 0
BITMAP
6300
6300
0000
0000
0000
3E00
7F00
E380
0180
0380
1F00
1F00
0180
C180
C180
7F00
3E00
ENDCHAR
STARTCHAR 04E0
ENCODING 1248
SWIDTH 540 0
DWIDTH 12 0
BBX 10 16 1 0
BITMAP
FFC0
FF80
C380
0300
0600
0C00
1800
1F00
0380
00C0
00C0
C0C0
C0C0
E1C0
7F80
3F00
ENDCHAR
STARTCHAR 04E1
ENCODING 1249
SWIDTH 540 0
DWIDTH 12 0
BBX 10 17 1 -5
BITMAP
FFC0
FF80
C380
C300
0600
0E00
1C00
1E00
1F80
01C0
00C0
00C0
C0C0
C0C0
E1C0
7F80
3E00
ENDCHAR
STARTCHAR 04E2
ENCODING 1250
SWIDTH 765 0
DWIDTH 17 0
BBX 15 20 1 0
BITMAP
0FE0
0FE0
0000
0000
F83E
F83E
3018
3018
3038
3078
30D8
3198
3318
3718
3E18
3C18
3818
3018
783C
F83E
ENDCHAR
STARTCHAR 04E3
ENCODING 1251
SWIDTH 675 0
DWIDTH 15 0
BBX 13 17 1 0
BITMAP
1FC0
1FC0
0000
0000
0000
FC78
F8F8
30E0
31E0
3360
3360
3660
3660
3C60
3860
78F0
F1F8
ENDCHAR
STARTCHAR 04E4
ENCODING 1252
SWIDTH 765 0
DWIDTH 17 0
BBX 15 20 1 0
BITMAP
0C60
0C60
0000
0000
F83E
F83E
3018
3018
3038
3078
30D8
3198
3318
3718
3E18
3C18
3818
3018
783C
F83E
ENDCHAR
STARTCHAR 04E5
ENCODING 1253
SWIDTH 675 0
DWIDTH 15 0
BBX 13 17 1 0
BITMAP
18C0
18C0
0000
0000
0000
FC78
F8F8
30E0
31E0
3360
3360
3660
3660
3C60
3860
78F0
F1F8
ENDCHAR
STARTCHAR 04E6
ENCODING 1254
SWIDTH 720 0
DWIDTH 16 0
BBX 13 20 1 0
BITMAP
19C0
19C0
0000
0000
0F80
3FC0
7060
6030
C030
C038
C018
C018
C018
C018
C038
C030
6030
7060
3FC0
0F80
ENDCHAR
STARTCHAR 04E7
ENCODING 1255
SWIDTH 540 0
DWIDTH 12 0
BBX 10 17 1 0
BITMAP
3300
3300
0000
0000
0000
1E00
7F80
6180
C0C0
C0C0
C0C0
C0C0
C0C0
C0C0
6180
7F80
1E00
ENDCHAR
STARTCHAR 04E8
ENCODING 1256
SWIDTH 675 0
DWIDTH 15 0
BBX 14 16 1 0
BITMAP
0F80
3FE0
3070
6038
E018
C018
C01C
FFFC
FFFC
C01C
C018
E018
6038
3070
3FE0
0F80
ENDCHAR
STARTCHAR 04E9
ENCODING 1257
SWIDTH 585 0
DWIDTH 13 0
BBX 11 12 1 0
BITMAP
1F00
3F80
61C0
E0C0
C0C0
FFE0
FFE0
C0C0
E0C0
61C0
3F80
1F00
ENDCHAR
STARTCHAR 04EA
ENCODING 1258
SWIDTH 675 0
DWIDTH 15 0
BBX 14 20 1 0
BITMAP
18C0
18C0
0000
0000
0F80
3FE0
3070
6038
E018
C018
C01C
FFFC
FFFC
C01C
C018
E018
6038
3070
3FE0
0F80
ENDCHAR
STARTCHAR 04EB
ENCODING 1259
SWIDTH 585 0
DWIDTH 13 0
BBX 11 17 1 0
BITMAP
3380
3380
0000
0000
0000
1F00
3F80
61C0
E0C0
C0C0
FFE0
FFE0
C0C0
E0C0
61C0
3F80
1F00
ENDCHAR
STARTCHAR 04EC
ENCODING 1260
SWIDTH 630 0
DWIDTH 14 0
BBX 12 20 1 0
BITMAP
3300
3300
0000
0000
3F00
7F80
C0C0
C060
8060
0070
0030
0FF0
0FF0
0030
0070
8060
C060
C0C0
7F80
3F00
ENDCHAR
STARTCHAR 04ED
ENCODING 1261
SWIDTH 540 0
DWIDTH 12 0
BBX 10 17 1 0
BITMAP
7300
7300
0000
0000
0000
3E00
7F00
C180
C1C0
00C0
1FC0
1FC0
00C0
C1C0
E180
7F00
3E00
ENDCHAR
STARTCHAR 04EE
ENCODING 1262
SWIDTH 675 0
DWIDTH 15 0
BBX 13 20 1 0
BITMAP
3FC0
3FC0
0000
0000
F0F8
F0F8
6060
3060
30E0
18C0
18C0
1D80
0D80
0F00
0700
0700
0600
0600
3C00
3800
ENDCHAR
STARTCHAR 04EF
ENCODING 1263
SWIDTH 585 0
DWIDTH 13 0
BBX 13 22 0 -5
BITMAP
1FC0
1FC0
0000
0000
0000
F8F8
F8F0
3060
3060
18C0
18C0
1CC0
0D80
0D80
0700
0700
0700
0600
0600
0E00
3C00
3800
ENDCHAR
STARTCHAR 04F0
ENCODING 1264
SWIDTH 675 0
DWIDTH 15 0
BBX 13 20 1 0
BITMAP
19C0
19C0
0000
0000
F0F8
F0F8
6060
3060
30E0
18C0
18C0
1D80
0D80
0F00
0700
0700
0600
0600
3C00
3800
ENDCHAR
STARTCHAR 04F1
ENCODING 1265
SWIDTH 585 0
DWIDTH 13 0
BBX 13 22 0 -5
BITMAP
18C0
18C0
0000
0000
0000
F8F8
F8F0
3060
3060
18C0
18C0
1CC0
0D80
0D80
0700
0700
0700
0600
0600
0E00
3C00
3800
ENDCHAR
STARTCHAR 04F2
ENCODING 1266
SWIDTH 675 0
DWIDTH 15 0
BBX 13 20 1 0
BITMAP
06E0
0DC0
1B00
0000
F0F8
F0F8
6060
3060
30E0
18C0
18C0
1D80
0D80
0F00
0700
0700
0600
0600
3C00
3800
ENDCHAR
STARTCHAR 04F3
ENCODING 1267
SWIDTH 585 0
DWIDTH 13 0
BBX 13 22 0 -5
BITMAP
07E0
0CC0
1F80
0000
0000
F8F8
F8F0
3060
3060
18C0
18C0
1CC0
0D80
0D80
0700
0700
0700
0600
0600
0E00
3C00
3800
ENDCHAR
STARTCHAR 04F4
ENCODING 1268
SWIDTH 720 0
DWIDTH 16 0
BBX 15 20 1 0
BITMAP
0CE0
0CE0
0000
0000
F87E
F87E
7018
7018
7018
7018
3018
3018
3FF8
0FF8
0018
0018
0018
0018
003C
007E
ENDCHAR
STARTCHAR 04F5
ENCODING 1269
SWIDTH 675 0
DWIDTH 15 0
BBX 12 17 1 0
BITMAP
1980
1980
0000
0000
0000
F9F0
F9F0
7060
7060
3060
3060
3FE0
0FE0
0060
0060
01F0
01F0
ENDCHAR
STARTCHAR 04F6
ENCODING 1270
SWIDTH 585 0
DWIDTH 13 0
BBX 11 20 1 -4
BITMAP
FFE0
FFE0
3060
3060
3000
3000
3000
3000
3000
3000
3000
3000
3000
3000
7800
F800
1800
1800
1800
1800
ENDCHAR
STARTCHAR 04F7
ENCODING 1271
SWIDTH 540 0
DWIDTH 12 0
BBX 9 16 1 -4
BITMAP
FF80
FF80
3080
3000
3000
3000
3000
3000
3000
3000
F800
F800
1800
1800
1800
1800
ENDCHAR
STARTCHAR 04F8
ENCODING 1272
SWIDTH 900 0
DWIDTH 20 0
BBX 19 20 1 0
BITMAP
033800
033800
000000
000000
F807E0
F807E0
700180
700180
700180
700180
7F8180
7FE180
707180
703980
701980
701980
703980
703180
FFF3C0
FFC7E0
ENDCHAR
STARTCHAR 04F9
ENCODING 1273
SWIDTH 855 0
DWIDTH 19 0
BBX 17 17 1 0
BITMAP
067000
067000
000000
000000
000000
FC1E00
FC1E00
300600
300600
3F0600
3FC600
30E600
306600
306600
306600
7FCF00
FF9F80
ENDCHAR
STARTCHAR 04FA
ENCODING 1274
SWIDTH 585 0
DWIDTH 13 0
BBX 11 21 1 -5
BITMAP
FFE0
FFE0
3060
3060
3000
3000
3000
FC00
FC00
3000
3000
3000
3000
3000
7800
F800
1800
1800
1800
7800
7000
ENDCHAR
STARTCHAR 04FB
ENCODING 1275
SWIDTH 540 0
DWIDTH 12 0
BBX 9 17 1 -5
BITMAP
FF80
FF80
3080
3000
3000
FC00
FC00
3000
3000
3000
F800
F800
1800
1800
1800
7800
7000
ENDCHAR
STARTCHAR 04FC
ENCODING 1276
SWIDTH 720 0
DWIDTH 16 0
BBX 15 21 1 -5
BITMAP
F87C
F87C
3030
1870
0C60
0EC0
0780
0380
0380
07C0
0CC0
1C60
1830
3038
701C
F87E
000E
000E
000C
003C
0038
ENDCHAR
STARTCHAR 04FD
ENCODING 1277
SWIDTH 585 0
DWIDTH 13 0
BBX 13 17 0 -5
BITMAP
78F0
78F0
38C0
1D80
0D80
0700
0700
0D80
19C0
38E0
7070
F8F8
0038
0038
0030
00F0
00E0
ENDCHAR
STARTCHAR 04FE
ENCODING 1278
SWIDTH 720 0
DWIDTH 16 0
BBX 15 16 1 0
BITMAP
F87C
F87C
3030
1870
0C60
0EC0
0780
0FE0
0FE0
07C0
0CC0
1C60
1830
3038
701C
F87E
ENDCHAR
STARTCHAR 04FF
ENCODING 1279
SWIDTH 585 0
DWIDTH 13 0
BBX 13 12 0 0
BITMAP
78F0
78F0
38C0
1D80
0D80
1FC0
1FC0
0D80
19C0
38E0
7070
F8F8
ENDCHAR
STARTCHAR 0500
ENCODING 1280
SWIDTH 675 0
DWIDTH 15 0
BBX 13 16 1 0
BITMAP
01F8
00F0
0060
0060
0060
0060
1FE0
7FE0
6060
C060
C060
C060
C060
E060
7FF0
1FF8
ENDCHAR
STARTCHAR 0501
ENCODING 1281
SWIDTH 585 0
DWIDTH 13 0
BBX 11 17 1 0
BITMAP
03C0
03C0
00C0
00C0
00C0
3CC0
7FC0
61C0
C0C0
C0C0
C0C0
C0C0
C0C0
C0C0
E1C0
7FE0
3CE0
ENDCHAR
STARTCHAR 0502
ENCODING 1282
SWIDTH 810 0
DWIDTH 18 0
BBX 17 16 1 0
BITMAP
01F800
00F000
006000
006000
006000
006000
1FE000
7FE000
606300
C06300
C06300
C06380
C06300
E06300
7FFE00
1FFC00
ENDCHAR
STARTCHAR 0503
ENCODING 1283
SWIDTH 855 0
DWIDTH 19 0
BBX 17 17 1 0
BITMAP
03C000
03C000
01C000
01C000
01C000
3DC000
7FC000
61C300
C1C300
C1C300
C1C380
C1C380
C1C300
C1C300
61C700
7FFE00
3E7C00
ENDCHAR
STARTCHAR 0504
ENCODING 1284
SWIDTH 765 0
DWIDTH 17 0
BBX 15 16 1 0
BITMAP
7E00
FF00
8380
8180
0180
0180
030E
3F06
3E06
0306
0186
0186
0186
018C
01FC
00F0
ENDCHAR
STARTCHAR 0505
ENCODING 1285
SWIDTH 720 0
DWIDTH 16 0
BBX 14 12 0 0
BITMAP
3E00
7F00
6180
C180
039C
3F0C
3F0C
038C
018C
019C
01F8
00F0
ENDCHAR
STARTCHAR 0506
ENCODING 1286
SWIDTH 540 0
DWIDTH 12 0
BBX 11 19 0 -3
BITMAP
3E00
7F80
C180
C0C0
00C0
00C0
0180
1F00
1F00
0180
01C0
00C0
00C0
00C0
00E0
00E0
0060
0060
00C0
ENDCHAR
STARTCHAR 0507
ENCODING 1287
SWIDTH 495 0
DWIDTH 11 0
BBX 10 15 0 -3
BITMAP
3E00
7F00
E380
C180
0380
3F00
3F00
0380
0180
0180
01C0
01C0
00C0
0180
0180
ENDCHAR
STARTCHAR 0508
ENCODING 1288
SWIDTH 945 0
DWIDTH 21 0
BBX 19 16 1 0
BITMAP
7FFC00
3FF800
183000
183000
183000
183000
1830E0
183060
183060
183060
183060
183060
383060
3038E0
F01FC0
C00F00
ENDCHAR
STARTCHAR 0509
ENCODING 1289
SWIDTH 810 0
DWIDTH 18 0
BBX 16 12 1 0
BITMAP
7FF0
7FE0
30C6
30C7
30C3
30C3
30C3
30C3
30C3
30C7
E0FE
C07C
ENDCHAR
STARTCHAR 050A
ENCODING 1290
SWIDTH 990 0
DWIDTH 22 0
BBX 20 16 1 0
BITMAP
F87E00
F83C00
701800
701800
701800
701800
701870
7FF830
7FF830
701830
701830
701830
701830
701C60
F80FE0
F80780
ENDCHAR
STARTCHAR 050B
ENCODING 1291
SWIDTH 900 0
DWIDTH 20 0
BBX 18 12 1 0
BITMAP
FDF800
78F000
306180
306180
306180
3FE1C0
3FE1C0
3061C0
306180
307180
FC3F00
FC1E00
ENDCHAR
STARTCHAR 050C
ENCODING 1292
SWIDTH 630 0
DWIDTH 14 0
BBX 12 16 1 0
BITMAP
0F80
3FC0
7000
6000
E000
C000
C000
C0E0
C0E0
C060
C030
E030
6060
7060
3FC0
0F80
ENDCHAR
STARTCHAR 050D
ENCODING 1293
SWIDTH 495 0
DWIDTH 11 0
BBX 9 12 1 0
BITMAP
1F00
3F00
6000
E000
C000
C000
C180
C180
E180
6180
3F80
1F00
ENDCHAR
STARTCHAR 050E
ENCODING 1294
SWIDTH 720 0
DWIDTH 16 0
BBX 14 16 1 0
BITMAP
FFF0
FFF0
C630
0600
0600
0600
0618
060C
060C
060C
060C
060C
061C
0618
03F0
01E0
ENDCHAR
STARTCHAR 050F
ENCODING 1295
SWIDTH 630 0
DWIDTH 14 0
BBX 12 12 1 0
BITMAP
FFC0
FFC0
CCC0
CCC0
0C00
0CE0
0C70
0C30
0C30
0C70
0FE0
07C0
ENDCHAR
STARTCHAR 0510
ENCODING 1296
SWIDTH 630 0
DWIDTH 14 0
BBX 12 16 1 0
BITMAP
1F80
3FE0
6070
E030
C000
6000
7000
3F00
3F00
6000
C000
C030
C030
6070
7FE0
1F80
ENDCHAR
STARTCHAR 0511
ENCODING 1297
SWIDTH 540 0
DWIDTH 12 0
BBX 10 12 1 0
BITMAP
3F00
7F80
E1C0
C000
6000
3E00
7E00
E000
C0C0
E1C0
7F80
3F00
ENDCHAR
STARTCHAR 0512
ENCODING 1298
SWIDTH 720 0
DWIDTH 16 0
BBX 14 21 1 -5
BITMAP
7FFC
3FFC
1818
1818
1818
1818
1818
1818
1818
1818
1818
3818
3018
3018
E03C
C07C
000C
000C
000C
003C
0038
ENDCHAR
STARTCHAR 0513
ENCODING 1299
SWIDTH 630 0
DWIDTH 14 0
BBX 12 17 1 -5
BITMAP
FFF0
7FE0
30C0
30C0
30C0
30C0
30C0
30C0
30C0
30C0
E1E0
C1F0
0030
0030
0030
00F0
00E0
ENDCHAR
STARTCHAR 1E00
ENCODING 7680
SWIDTH 720 0
DWIDTH 16 0
BBX 15 22 1 -6
BITMAP
0300
0380
0780
0780
06C0
0CC0
0C60
0C60
1860
1830
3FF0
3FF0
3018
6018
601C
F03E
0000
0000
0380
0480
0480
0380
ENDCHAR
STARTCHAR 1E01
ENCODING 7681
SWIDTH 540 0
DWIDTH 12 0
BBX 10 18 1 -6
BITMAP
3E00
FF00
C180
C180
0180
3F80
7180
C180
C180
C380
FFC0
79C0
0000
0000
1C00
1200
1200
1C00
ENDCHAR
STARTCHAR 1E3E
ENCODING 7742
SWIDTH 945 0
DWIDTH 21 0
BBX 19 20 1 0
BITMAP
003800
006000
00C000
000000
F803E0
F803E0
3C03C0
3C06C0
3C06C0
360CC0
360CC0
330CC0
3318C0
3398C0
31B0C0
31B0C0
30F0C0
30E0C0
7863E0
FC03E0
ENDCHAR
STARTCHAR 1E3F
ENCODING 7743
SWIDTH 945 0
DWIDTH 21 0
BBX 19 17 1 0
BITMAP
003800
006000
00C000
000000
000000
E78F00
FFDF80
30E180
30E1C0
3060C0
3060C0
3060C0
3060C0
3060C0
3060C0
F9F3E0
F9F3E0
ENDCHAR
STARTCHAR 1E80
ENCODING 7808
SWIDTH 1035 0
DWIDTH 23 0
BBX 21 20 1 0
BITMAP
01C000
006000
003000
000000
F870F8
F870F8
607030
305060
30D860
30D860
30D860
198C40
198CC0
198CC0
1B06C0
0B0680
0F0780
0E0380
0E0380
060300
ENDCHAR
STARTCHAR 1E81
ENCODING 7809
SWIDTH 900 0
DWIDTH 20 0
BBX 18 17 1 0
BITMAP
030000
018000
00C000
000000
000000
F0C7C0
F1C3C0
61E180
61E300
336300
332300
333200
163600
1E1600
1E1E00
1C1C00
0C0C00
ENDCHAR
STARTCHAR 1E82
ENCODING 7810
SWIDTH 1035 0
DWIDTH 23 0
BBX 21 20 1 0
BITMAP
001C00
003000
006000
000000
F870F8
F870F8
607030
305060
30D860
30D860
30D860
198C40
198CC0
198CC0
1B06C0
0B0680
0F0780
0E0380
0E0380
060300
ENDCHAR
STARTCHAR 1E83
ENCODING 7811
SWIDTH 900 0
DWIDTH 20 0
BBX 18 17 1 0
BITMAP
007000
00E000
00C000
010000
000000
F0C7C0
F1C3C0
61E180
61E300
336300
332300
333200
163600
1E1600
1E1E00
1C1C00
0C0C00
ENDCHAR
STARTCHAR 1E84
ENCODING 7812
SWIDTH 1035 0
DWIDTH 23 0
BBX 21 20 1 0
BITMAP
018C00
018C00
000000
000000
F870F8
F870F8
607030
305060
30D860
30D860
30D860
198C40
198CC0
198CC0
1B06C0
0B0680
0F0780
0E0380
0E0380
060300
ENDCHAR
STARTCHAR 1E85
ENCODING 7813
SWIDTH 900 0
DWIDTH 20 0
BBX 18 17 1 0
BITMAP
073000
073000
000000
000000
000000
F0C7C0
F1C3C0
61E180
61E300
336300
332300
333200
163600
1E1600
1E1E00
1C1C00
0C0C00
ENDCHAR
STARTCHAR 1E9E
ENCODING 7838
SWIDTH 675 0
DWIDTH 15 0
BBX 14 16 1 0
BITMAP
FFF8
FFF8
3030
3060
30E0
30C0
31E0
31F0
3018
301C
300C
300C
300C
3018
7938
F9F0
ENDCHAR
STARTCHAR 1EA0
ENCODING 7840
SWIDTH 720 0
DWIDTH 16 0
BBX 15 20 1 -4
BITMAP
0300
0380
0780
0780
06C0
0CC0
0C60
0C60
1860
1830
3FF0
3FF0
3018
6018
601C
F03E
0000
0000
0300
0300
ENDCHAR
STARTCHAR 1EA1
ENCODING 7841
SWIDTH 540 0
DWIDTH 12 0
BBX 10 16 1 -4
BITMAP
3E00
FF00
C180
C180
0180
3F80
7180
C180
C180
C380
FFC0
79C0
0000
0000
0C00
0C00
ENDCHAR
STARTCHAR 1EA2
ENCODING 7842
SWIDTH 720 0
DWIDTH 16 0
BBX 15 21 1 0
BITMAP
0380
0080
0380
0300
0000
0300
0380
0780
0780
06C0
0CC0
0C60
0C60
1860
1830
3FF0
3FF0
3018
6018
601C
F03E
ENDCHAR
STARTCHAR 1EA3
ENCODING 7843
SWIDTH 540 0
DWIDTH 12 0
BBX 10 18 1 0
BITMAP
0C00
0600
0E00
0800
0000
0000
3E00
FF00
C180
C180
0180
3F80
7180
C180
C180
C380
FFC0
79C0
ENDCHAR
STARTCHAR 1EA4
ENCODING 7844
SWIDTH 720 0
DWIDTH 16 0
BBX 15 22 1 0
BITMAP
0030
0060
0300
0780
0CE0
0000
0300
0380
0780
0780
06C0
0CC0
0C60
0C60
1860
1830
3FF0
3FF0
3018
6018
601C
F03E
ENDCHAR
STARTCHAR 1EA5
ENCODING 7845
SWIDTH 540 0
DWIDTH 12 0
BBX 10 19 1 0
BITMAP
01C0
0100
0E00
1E00
7300
0000
0000
3E00
FF00
C180
C180
0180
3F80
7180
C180
C180
C380
FFC0
79C0
ENDCHAR
STARTCHAR 1EA6
ENCODING 7846
SWIDTH 720 0
DWIDTH 16 0
BBX 15 22 1 0
BITMAP
3800
0800
0700
0780
0CE0
0000
0300
0380
0780
0780
06C0
0CC0
0C60
0C60
1860
1830
3FF0
3FF0
3018
6018
601C
F03E
ENDCHAR
STARTCHAR 1EA7
ENCODING 7847
SWIDTH 540 0
DWIDTH 12 0
BBX 10 19 1 0
BITMAP
C000
6000
0C00
1E00
7300
0000
0000
3E00
FF00
C180
C180
0180
3F80
7180
C180
C180
C380
FFC0
79C0
ENDCHAR
STARTCHAR 1EA8
ENCODING 7848
SWIDTH 720 0
DWIDTH 16 0
BBX 15 22 1 0
BITMAP
0070
0010
0070
0380
06C0
0C60
0300
0380
0780
0780
06C0
0CC0
0C60
0C60
1860
1830
3FF0
3FF0
3018
6018
601C
F03E
ENDCHAR
STARTCHAR 1EA9
ENCODING 7849
SWIDTH 540 0
DWIDTH 12 0
BBX 10 19 1 0
BITMAP
0180
00C0
0180
1C00
3600
6300
0000
3E00
FF00
C180
C180
0180
3F80
7180
C180
C180
C380
FFC0
79C0
ENDCHAR
STARTCHAR 1EAA
ENCODING 7850
SWIDTH 720 0
DWIDTH 16 0
BBX 15 22 1 0
BITMAP
0760
0DC0
0000
0300
0780
0C60
0300
0380
0780
0780
06C0
0CC0
0C60
0C60
1860
1830
3FF0
3FF0
3018
6018
601C
F03E
ENDCHAR
STARTCHAR 1EAB
ENCODING 7851
SWIDTH 540 0
DWIDTH 12 0
BBX 10 19 1 0
BITMAP
3900
2F00
4000
0C00
1600
6300
0000
3E00
FF00
C180
C180
0180
3F80
7180
C180
C180
C380
FFC0
79C0
ENDCHAR
STARTCHAR 1EAC
ENCODING 7852
SWIDTH 720 0
DWIDTH 16 0
BBX 15 24 1 -4
BITMAP
0300
0780
0CE0
0000
0300
0380
0780
0780
06C0
0CC0
0C60
0C60
1860
1830
3FF0
3FF0
3018
6018
601C
F03E
0000
0000
0300
0300
ENDCHAR
STARTCHAR 1EAD
ENCODING 7853
SWIDTH 540 0
DWIDTH 12 0
BBX 10 21 1 -4
BITMAP
0C00
1E00
7300
0000
0000
3E00
FF00
C180
C180
0180
3F80
7180
C180
C180
C380
FFC0
79C0
0000
0000
0C00
0C00
ENDCHAR
STARTCHAR 1EAE
ENCODING 7854
SWIDTH 720 0
DWIDTH 16 0
BBX 15 22 1 0
BITMAP
00C0
0180
0300
0C60
0CC0
07C0
0300
0380
0780
0780
06C0
0CC0
0C60
0C60
1860
1830
3FF0
3FF0
3018
6018
601C
F03E
ENDCHAR
STARTCHAR 1EAF
ENCODING 7855
SWIDTH 540 0
DWIDTH 12 0
BBX 10 19 1 0
BITMAP
0600
0400
0C00
6300
3300
3E00
0000
3E00
FF00
C180
C180
0180
3F80
7180
C180
C180
C380
FFC0
79C0
ENDCHAR
STARTCHAR 1EB0
ENCODING 7856
SWIDTH 720 0
DWIDTH 16 0
BBX 15 22 1 0
BITMAP
0600
0200
0300
0C60
0CC0
07C0
0300
0380
0780
0780
06C0
0CC0
0C60
0C60
1860
1830
3FF0
3FF0
3018
6018
601C
F03E
ENDCHAR
STARTCHAR 1EB1
ENCODING 7857
SWIDTH 540 0
DWIDTH 12 0
BBX 10 19 1 0
BITMAP
3000
1800
0C00
6300
3300
3E00
0000
3E00
FF00
C180
C180
0180
3F80
7180
C180
C180
C380
FFC0
79C0
ENDCHAR
STARTCHAR 1EB2
ENCODING 7858
SWIDTH 720 0
DWIDTH 16 0
BBX 15 22 1 0
BITMAP
0380
0080
0300
0C60
0CC0
07C0
0300
0380
0780
0780
06C0
0CC0
0C60
0C60
1860
1830
3FF0
3FF0
3018
6018
601C
F03E
ENDCHAR
STARTCHAR 1EB3
ENCODING 7859
SWIDTH 540 0
DWIDTH 12 0
BBX 10 19 1 0
BITMAP
0C00
0600
0C00
6300
3300
3E00
0000
3E00
FF00
C180
C180
0180
3F80
7180
C180
C180
C380
FFC0
79C0
ENDCHAR
STARTCHAR 1EB4
ENCODING 7860
SWIDTH 720 0
DWIDTH 16 0
BBX 15 22 1 0
BITMAP
0F60
09C0
0000
0C60
0CC0
07C0
0300
0380
0780
0780
06C0
0CC0
0C60
0C60
1860
1830
3FF0
3FF0
3018
6018
601C
F03E
ENDCHAR
STARTCHAR 1EB5
ENCODING 7861
SWIDTH 540 0
DWIDTH 12 0
BBX 10 19 1 0
BITMAP
3900
6F00
0000
6300
3300
3E00
0000
3E00
FF00
C180
C180
0180
3F80
7180
C180
C180
C380
FFC0
79C0
ENDCHAR
STARTCHAR 1EB6
ENCODING 7862
SWIDTH 720 0
DWIDTH 16 0
BBX 15 24 1 -4
BITMAP
0C60
0C40
07C0
0000
0300
0380
0780
0780
06C0
0CC0
0C60
0C60
1860
1830
3FF0
3FF0
3018
6018
601C
F03E
0000
0000
0300
0300
ENDCHAR
STARTCHAR 1EB7
ENCODING 7863
SWIDTH 540 0
DWIDTH 12 0
BBX 10 21 1 -4
BITMAP
6300
2300
3E00
0000
0000
3E00
FF00
C180
C180
0180
3F80
7180
C180
C180
C380
FFC0
79C0
0000
0000
0C00
0C00
ENDCHAR
STARTCHAR 1EB8
ENCODING 7864
SWIDTH 630 0
DWIDTH 14 0
BBX 12 20 1 -4
BITMAP
FFE0
FFE0
3020
3020
3000
3000
3000
3FC0
3FC0
3000
3000
3000
3030
3030
7FF0
FFF0
0000
0000
0600
0600
ENDCHAR
STARTCHAR 1EB9
ENCODING 7865
SWIDTH 495 0
DWIDTH 11 0
BBX 10 16 1 -4
BITMAP
1E00
7F00
6180
C180
C180
FFC0
FFC0
C000
C000
6080
7F80
1F00
0000
0000
0C00
0C00
ENDCHAR
STARTCHAR 1EBA
ENCODING 7866
SWIDTH 630 0
DWIDTH 14 0
BBX 12 21 1 0
BITMAP
0600
0300
0700
0600
0000
FFE0
FFE0
3020
3020
3000
3000
3000
3FC0
3FC0
3000
3000
3000
3030
3030
7FF0
FFF0
ENDCHAR
STARTCHAR 1EBB
ENCODING 7867
SWIDTH 495 0
DWIDTH 11 0
BBX 10 18 1 0
BITMAP
0C00
0600
0E00
0800
0000
0000
1E00
7F00
6180
C180
C180
FFC0
FFC0
C000
C000
6080
7F80
1F00
ENDCHAR
STARTCHAR 1EBC
ENCODING 7868
SWIDTH 630 0
DWIDTH 14 0
BBX 12 20 1 0
BITMAP
0840
1FC0
3380
0000
FFE0
FFE0
3020
3020
3000
3000
3000
3FC0
3FC0
3000
3000
3000
3030
3030
7FF0
FFF0
ENDCHAR
STARTCHAR 1EBD
ENCODING 7869
SWIDTH 495 0
DWIDTH 11 0
BBX 10 17 1 0
BITMAP
1100
7F00
4700
0000
0000
1E00
7F00
6180
C180
C180
FFC0
FFC0
C000
C000
6080
7F80
1F00
ENDCHAR
STARTCHAR 1EBE
ENCODING 7870
SWIDTH 630 0
DWIDTH 14 0
BBX 12 22 1 0
BITMAP
0060
00C0
0600
0F00
1980
0000
FFE0
FFE0
3020
3020
3000
3000
3000
3FC0
3FC0
3000
3000
3000
3030
3030
7FF0
FFF0
ENDCHAR
STARTCHAR 1EBF
ENCODING 7871
SWIDTH 495 0
DWIDTH 11 0
BBX 10 19 1 0
BITMAP
01C0
0100
0E00
1E00
7300
0000
0000
1E00
7F00
6180
C180
C180
FFC0
FFC0
C000
C000
6080
7F80
1F00
ENDCHAR
STARTCHAR 1EC0
ENCODING 7872
SWIDTH 630 0
DWIDTH 14 0
BBX 12 22 1 0
BITMAP
6000
3000
0600
0F00
1980
0000
FFE0
FFE0
3020
3020
3000
3000
3000
3FC0
3FC0
3000
3000
3000
3030
3030
7FF0
FFF0
ENDCHAR
STARTCHAR 1EC1
ENCODING 7873
SWIDTH 495 0
DWIDTH 11 0
BBX 10 19 1 0
BITMAP
C000
6000
0C00
1E00
7300
0000
0000
1E00
7F00
6180
C180
C180
FFC0
FFC0
C000
C000
6080
7F80
1F00
ENDCHAR
STARTCHAR 1EC2
ENCODING 7874
SWIDTH 630 0
DWIDTH 14 0
BBX 12 22 1 0
BITMAP
00C0
0020
00C0
0600
0F00
1980
FFE0
FFE0
3020
3020
3000
3000
3000
3FC0
3FC0
3000
3000
3000
3030
3030
7FF0
FFF0
ENDCHAR
STARTCHAR 1EC3
ENCODING 7875
SWIDTH 495 0
DWIDTH 11 0
BBX 10 19 1 0
BITMAP
0180
00C0
0180
1C00
3600
6300
0000
1E00
7F00
6180
C180
C180
FFC0
FFC0
C000
C000
6080
7F80
1F00
ENDCHAR
STARTCHAR 1EC4
ENCODING 7876
SWIDTH 630 0
DWIDTH 14 0
BBX 12 22 1 0
BITMAP
1C80
1780
0000
0600
0F00
1980
FFE0
FFE0
3020
3020
3000
3000
3000
3FC0
3FC0
3000
3000
3000
3030
3030
7FF0
FFF0
ENDCHAR
STARTCHAR 1EC5
ENCODING 7877
SWIDTH 495 0
DWIDTH 11 0
BBX 10 19 1 0
BITMAP
3900
2F00
4000
0C00
1E00
6300
0000
1E00
7F00
6180
C180
C180
FFC0
FFC0
C000
C000
6080
7F80
1F00
ENDCHAR
STARTCHAR 1EC6
ENCODING 7878
SWIDTH 630 0
DWIDTH 14 0
BBX 12 24 1 -4
BITMAP
0600
0F00
1980
0000
FFE0
FFE0
3020
3020
3000
3000
3000
3FC0
3FC0
3000
3000
3000
3030
3030
7FF0
FFF0
0000
0000
0600
0600
ENDCHAR
STARTCHAR 1EC7
ENCODING 7879
SWIDTH 495 0
DWIDTH 11 0
BBX 10 21 1 -4
BITMAP
0C00
1E00
7300
0000
0000
1E00
7F00
6180
C180
C180
FFC0
FFC0
C000
C000
6080
7F80
1F00
0000
0000
0C00
0C00
ENDCHAR
STARTCHAR 1EC8
ENCODING 7880
SWIDTH 315 0
DWIDTH 7 0
BBX 5 21 1 0
BITMAP
70
18
38
20
00
F8
F8
30
30
30
30
30
30
30
30
30
30
30
30
78
F8
ENDCHAR
STARTCHAR 1EC9
ENCODING 7881
SWIDTH 315 0
DWIDTH 7 0
BBX 5 18 1 0
BITMAP
70
18
70
60
00
00
F0
F0
70
70
70
70
70
70
70
70
F8
F8
ENDCHAR
STARTCHAR 1ECA
ENCODING 7882
SWIDTH 315 0
DWIDTH 7 0
BBX 5 20 1 -4
BITMAP
F8
F8
30
30
30
30
30
30
30
30
30
30
30
30
78
F8
00
00
30
30
ENDCHAR
STARTCHAR 1ECB
ENCODING 7883
SWIDTH 315 0
DWIDTH 7 0
BBX 5 21 1 -4
BITMAP
70
70
00
00
00
F0
F0
70
70
70
70
70
70
70
70
F8
F8
00
00
70
70
ENDCHAR
STARTCHAR 1ECC
ENCODING 7884
SWIDTH 675 0
DWIDTH 15 0
BBX 13 20 1 -4
BITMAP
0F80
3FC0
7060
6030
C030
C038
C018
C018
C018
C018
C038
C030
6030
7060
3FC0
0F80
0000
0000
0600
0600
ENDCHAR
STARTCHAR 1ECD
ENCODING 7885
SWIDTH 540 0
DWIDTH 12 0
BBX 10 16 1 -4
BITMAP
1E00
7F80
6180
C0C0
C0C0
C0C0
C0C0
C0C0
C0C0
6180
7F80
1E00
0000
0000
0C00
0C00
ENDCHAR
STARTCHAR 1ECE
ENCODING 7886
SWIDTH 675 0
DWIDTH 15 0
BBX 13 21 1 0
BITMAP
0700
0100
0700
0600
0000
0F80
3FC0
7060
6030
C030
C038
C018
C018
C018
C018
C038
C030
6030
7060
3FC0
0F80
ENDCHAR
STARTCHAR 1ECF
ENCODING 7887
SWIDTH 540 0
DWIDTH 12 0
BBX 10 18 1 0
BITMAP
0C00
0600
0E00
0C00
0000
0000
1E00
7F80
6180
C0C0
C0C0
C0C0
C0C0
C0C0
C0C0
6180
7F80
1E00
ENDCHAR
STARTCHAR 1ED0
ENCODING 7888
SWIDTH 675 0
DWIDTH 15 0
BBX 13 22 1 0
BITMAP
0060
00C0
0600
0F00
19C0
0000
0F80
3FC0
7060
6030
C030
C038
C018
C018
C018
C018
C038
C030
6030
7060
3FC0
0F80
ENDCHAR
STARTCHAR 1ED1
ENCODING 7889
SWIDTH 540 0
DWIDTH 12 0
BBX 10 19 1 0
BITMAP
00C0
0180
0C00
1E00
3300
0000
0000
1E00
7F80
6180
C0C0
C0C0
C0C0
C0C0
C0C0
C0C0
6180
7F80
1E00
ENDCHAR
STARTCHAR 1ED2
ENCODING 7890
SWIDTH 675 0
DWIDTH 15 0
BBX 13 22 1 0
BITMAP
7000
1000
0E00
0F00
19C0
0000
0F80
3FC0
7060
6030
C030
C038
C018
C018
C018
C018
C038
C030
6030
7060
3FC0
0F80
ENDCHAR
STARTCHAR 1ED3
ENCODING 7891
SWIDTH 540 0
DWIDTH 12 0
BBX 10 19 1 0
BITMAP
E000
6000
0C00
1E00
3300
0000
0000
1E00
7F80
6180
C0C0
C0C0
C0C0
C0C0
C0C0
C0C0
6180
7F80
1E00
ENDCHAR
STARTCHAR 1ED4
ENCODING 7892
SWIDTH 675 0
DWIDTH 15 0
BBX 13 22 1 0
BITMAP
00E0
0020
00E0
0700
0D80
18C0
0F80
3FC0
7060
6030
C030
C038
C018
C018
C018
C018
C038
C030
6030
7060
3FC0
0F80
ENDCHAR
STARTCHAR 1ED5
ENCODING 7893
SWIDTH 540 0
DWIDTH 12 0
BBX 10 19 1 0
BITMAP
0180
0040
0180
0C00
1E00
3300
0000
1E00
7F80
6180
C0C0
C0C0
C0C0
C0C0
C0C0
C0C0
6180
7F80
1E00
ENDCHAR
STARTCHAR 1ED6
ENCODING 7894
SWIDTH 675 0
DWIDTH 15 0
BBX 13 22 1 0
BITMAP
0C80
1B80
0000
0600
0F00
19C0
0F80
3FC0
7060
6030
C030
C038
C018
C018
C018
C018
C038
C030
6030
7060
3FC0
0F80
ENDCHAR
STARTCHAR 1ED7
ENCODING 7895
SWIDTH 540 0
DWIDTH 12 0
BBX 10 19 1 0
BITMAP
3900
2F00
0000
0C00
1E00
3300
0000
1E00
7F80
6180
C0C0
C0C0
C0C0
C0C0
C0C0
C0C0
6180
7F80
1E00
ENDCHAR
STARTCHAR 1ED8
ENCODING 7896
SWIDTH 675 0
DWIDTH 15 0
BBX 13 24 1 -4
BITMAP
0600
0F00
19C0
0000
0F80
3FC0
7060
6030
C030
C038
C018
C018
C018
C018
C038
C030
6030
7060
3FC0
0F80
0000
0000
0600
0600
ENDCHAR
STARTCHAR 1ED9
ENCODING 7897
SWIDTH 540 0
DWIDTH 12 0
BBX 10 21 1 -4
BITMAP
0C00
1E00
3300
0000
0000
1E00
7F80
6180
C0C0
C0C0
C0C0
C0C0
C0C0
C0C0
6180
7F80
1E00
0000
0000
0C00
0C00
ENDCHAR
STARTCHAR 1EDA
ENCODING 7898
SWIDTH 675 0
DWIDTH 15 0
BBX 14 20 1 0
BITMAP
0180
0300
0600
000C
0F8C
3FD8
7070
6030
C030
C038
C018
C018
C018
C018
C038
C030
6030
7060
3FC0
0F80
ENDCHAR
STARTCHAR 1EDB
ENCODING 7899
SWIDTH 585 0
DWIDTH 13 0
BBX 11 17 1 0
BITMAP
0700
0600
0C00
0000
0020
1E20
7FE0
61C0
C0C0
C0C0
C0C0
C0C0
C0C0
C0C0
6180
7F80
1E00
ENDCHAR
STARTCHAR 1EDC
ENCODING 7900
SWIDTH 675 0
DWIDTH 15 0
BBX 14 20 1 0
BITMAP
1C00
0600
0700
000C
0F8C
3FD8
7070
6030
C030
C038
C018
C018
C018
C018
C038
C030
6030
7060
3FC0
0F80
ENDCHAR
STARTCHAR 1EDD
ENCODING 7901
SWIDTH 585 0
DWIDTH 13 0
BBX 11 17 1 0
BITMAP
3800
1800
0C00
0000
0020
1E20
7FE0
61C0
C0C0
C0C0
C0C0
C0C0
C0C0
C0C0
6180
7F80
1E00
ENDCHAR
STARTCHAR 1EDE
ENCODING 7902
SWIDTH 675 0
DWIDTH 15 0
BBX 14 21 1 0
BITMAP
0700
0100
0700
0600
000C
0F8C
3FD8
7070
6030
C030
C038
C018
C018
C018
C018
C038
C030
6030
7060
3FC0
0F80
ENDCHAR
STARTCHAR 1EDF
ENCODING 7903
SWIDTH 585 0
DWIDTH 13 0
BBX 11 18 1 0
BITMAP
0C00
0600
0E00
0C00
0000
0020
1E20
7FE0
61C0
C0C0
C0C0
C0C0
C0C0
C0C0
C0C0
6180
7F80
1E00
ENDCHAR
STARTCHAR 1EE0
ENCODING 7904
SWIDTH 675 0
DWIDTH 15 0
BBX 14 20 1 0
BITMAP
0840
1FC0
1380
000C
0F8C
3FD8
7070
6030
C030
C038
C018
C018
C018
C018
C038
C030
6030
7060
3FC0
0F80
ENDCHAR
STARTCHAR 1EE1
ENCODING 7905
SWIDTH 585 0
DWIDTH 13 0
BBX 11 17 1 0
BITMAP
1080
3F80
6700
0000
0020
1E20
7FE0
61C0
C0C0
C0C0
C0C0
C0C0
C0C0
C0C0
6180
7F80
1E00
ENDCHAR
STARTCHAR 1EE2
ENCODING 7906
SWIDTH 675 0
DWIDTH 15 0
BBX 14 21 1 -4
BITMAP
000C
0F8C
3FD8
7070
6030
C030
C038
C018
C018
C018
C018
C038
C030
6030
7060
3FC0
0F80
0000
0000
0600
0600
ENDCHAR
STARTCHAR 1EE3
ENCODING 7907
SWIDTH 585 0
DWIDTH 13 0
BBX 11 17 1 -4
BITMAP
0020
1E20
7FE0
61C0
C0C0
C0C0
C0C0
C0C0
C0C0
C0C0
6180
7F80
1E00
0000
0000
0C00
0C00
ENDCHAR
STARTCHAR 1EE4
ENCODING 7908
SWIDTH 720 0
DWIDTH 16 0
BBX 15 20 1 -4
BITMAP
F87E
F87E
7018
7018
7018
7018
7018
7018
7018
7018
7018
3018
3038
3830
1FE0
07C0
0000
0000
0300
0300
ENDCHAR
STARTCHAR 1EE5
ENCODING 7909
SWIDTH 585 0
DWIDTH 13 0
BBX 12 16 1 -4
BITMAP
E1C0
E1C0
60C0
60C0
60C0
60C0
60C0
60C0
60C0
70C0
3FF0
1EF0
0000
0000
0600
0600
ENDCHAR
STARTCHAR 1EE6
ENCODING 7910
SWIDTH 720 0
DWIDTH 16 0
BBX 15 21 1 0
BITMAP
0300
0080
0380
0300
0000
F87E
F87E
7018
7018
7018
7018
7018
7018
7018
7018
7018
3018
3038
3830
1FE0
07C0
ENDCHAR
STARTCHAR 1EE7
ENCODING 7911
SWIDTH 585 0
DWIDTH 13 0
BBX 12 18 1 0
BITMAP
0E00
0300
0E00
0C00
0000
0000
E1C0
E1C0
60C0
60C0
60C0
60C0
60C0
60C0
60C0
70C0
3FF0
1EF0
ENDCHAR
STARTCHAR 1EE8
ENCODING 7912
SWIDTH 855 0
DWIDTH 19 0
BBX 17 20 1 0
BITMAP
00E000
018000
030000
000180
F87980
701980
701F00
701C00
701800
701800
701800
701800
701800
701800
701800
301800
301800
383800
1FF000
07C000
ENDCHAR
STARTCHAR 1EE9
ENCODING 7913
SWIDTH 630 0
DWIDTH 14 0
BBX 14 17 1 0
BITMAP
0380
0600
0C00
0000
000C
E1C8
E1D8
60F0
60C0
60C0
60C0
60C0
60C0
60C0
70C0
3FF0
1EF0
ENDCHAR
STARTCHAR 1EEA
ENCODING 7914
SWIDTH 855 0
DWIDTH 19 0
BBX 17 20 1 0
BITMAP
0E0000
030000
018000
000180
F87980
701980
701F00
701C00
701800
701800
701800
701800
701800
701800
701800
301800
301800
383800
1FF000
07C000
ENDCHAR
STARTCHAR 1EEB
ENCODING 7915
SWIDTH 630 0
DWIDTH 14 0
BBX 14 17 1 0
BITMAP
3800
0C00
0600
0000
000C
E1C8
E1D8
60F0
60C0
60C0
60C0
60C0
60C0
60C0
70C0
3FF0
1EF0
ENDCHAR
STARTCHAR 1EEC
ENCODING 7916
SWIDTH 855 0
DWIDTH 19 0
BBX 17 21 1 0
BITMAP
038000
00C000
038000
030000
000180
F87980
701980
701F00
701C00
701800
701800
701800
701800
701800
701800
701800
301800
301800
383800
1FF000
07C000
ENDCHAR
STARTCHAR 1EED
ENCODING 7917
SWIDTH 630 0
DWIDTH 14 0
BBX 14 18 1 0
BITMAP
0E00
0300
0E00
0C00
0000
000C
E1C8
E1D8
60F0
60C0
60C0
60C0
60C0
60C0
60C0
70C0
3FF0
1EF0
ENDCHAR
STARTCHAR 1EEE
ENCODING 7918
SWIDTH 855 0
DWIDTH 19 0
BBX 17 20 1 0
BITMAP
062000
0FE000
09C000
000180
F87980
701980
701F00
701C00
701800
701800
701800
701800
701800
701800
701800
301800
301800
383800
1FF000
07C000
ENDCHAR
STARTCHAR 1EEF
ENCODING 7919
SWIDTH 630 0
DWIDTH 14 0
BBX 14 17 1 0
BITMAP
1880
3F80
2700
0000
000C
E1C8
E1D8
60F0
60C0
60C0
60C0
60C0
60C0
60C0
70C0
3FF0
1EF0
ENDCHAR
STARTCHAR 1EF0
ENCODING 7920
SWIDTH 855 0
DWIDTH 19 0
BBX 17 21 1 -4
BITMAP
000180
F87980
701980
701F00
701C00
701800
701800
701800
701800
701800
701800
701800
301800
301800
383800
1FF000
07C000
000000
000000
030000
030000
ENDCHAR
STARTCHAR 1EF1
ENCODING 7921
SWIDTH 630 0
DWIDTH 14 0
BBX 14 17 1 -4
BITMAP
000C
E1C8
E1D8
60F0
60C0
60C0
60C0
60C0
60C0
60C0
70C0
3FF0
1EF0
0000
0000
0600
0600
ENDCHAR
STARTCHAR 1EF2
ENCODING 7922
SWIDTH 720 0
DWIDTH 16 0
BBX 14 20 1 0
BITMAP
0E00
0600
0300
0000
F87C
F87C
7030
3030
1860
18C0
0CC0
0D80
0780
0700
0300
0300
0300
0300
0780
0FC0
ENDCHAR
STARTCHAR 1EF3
ENCODING 7923
SWIDTH 585 0
DWIDTH 13 0
BBX 13 22 0 -5
BITMAP
1C00
0600
0300
0000
0000
F8F8
F8F0
3060
3060
18C0
18C0
1CC0
0D80
0D80
0700
0700
0700
0600
0600
0E00
3C00
3800
ENDCHAR
STARTCHAR 1EF4
ENCODING 7924
SWIDTH 720 0
DWIDTH 16 0
BBX 14 20 1 -4
BITMAP
F87C
F87C
7030
3030
1860
18C0
0CC0
0D80
0780
0700
0300
0300
0300
0300
0780
0FC0
0000
0000
0300
0300
ENDCHAR
STARTCHAR 1EF5
ENCODING 7925
SWIDTH 585 0
DWIDTH 13 0
BBX 13 17 0 -5
BITMAP
F8F8
F8F0
3060
3060
18C0
18C0
1CC0
0D80
0D80
0700
0700
0700
0600
0600
0EC0
3CC0
3800
ENDCHAR
STARTCHAR 1EF6
ENCODING 7926
SWIDTH 720 0
DWIDTH 16 0
BBX 14 21 1 0
BITMAP
0300
0180
0380
0200
0000
F87C
F87C
7030
3030
1860
18C0
0CC0
0D80
0780
0700
0300
0300
0300
0300
0780
0FC0
ENDCHAR
STARTCHAR 1EF7
ENCODING 7927
SWIDTH 585 0
DWIDTH 13 0
BBX 13 23 0 -5
BITMAP
0700
0180
0700
0600
0000
0000
F8F8
F8F0
3060
3060
18C0
18C0
1CC0
0D80
0D80
0700
0700
0700
0600
0600
0E00
3C00
3800
ENDCHAR
STARTCHAR 1EF8
ENCODING 7928
SWIDTH 720 0
DWIDTH 16 0
BBX 14 20 1 0
BITMAP
0460
0FC0
11C0
0000
F87C
F87C
7030
3030
1860
18C0
0CC0
0D80
0780
0700
0300
0300
0300
0300
0780
0FC0
ENDCHAR
STARTCHAR 1EF9
ENCODING 7929
SWIDTH 585 0
DWIDTH 13 0
BBX 13 22 0 -5
BITMAP
0C40
1FC0
1380
0000
0000
F8F8
F8F0
3060
3060
18C0
18C0
1CC0
0D80
0D80
0700
0700
0700
0600
0600
0E00
3C00
3800
ENDCHAR
STARTCHAR 1F4D
ENCODING 8013
SWIDTH 675 0
DWIDTH 15 0
BBX 18 18 -4 0
BITMAP
0C0000
CC0000
C87C00
D9FE00
638300
030180
060180
0601C0
0600C0
0600C0
0600C0
0600C0
0601C0
060180
030180
038300
01FE00
007C00
ENDCHAR
STARTCHAR 1FFD
ENCODING 8189
SWIDTH 225 0
DWIDTH 5 0
BBX 3 4 1 14
BITMAP
60
60
40
C0
ENDCHAR
STARTCHAR 1FFE
ENCODING 8190
SWIDTH 180 0
DWIDTH 4 0
BBX 3 4 0 13
BITMAP
C0
C0
60
60
ENDCHAR
STARTCHAR 2000
ENCODING 8192
SWIDTH 495 0
DWIDTH 11 0
BBX 0 0 0 0
BITMAP
ENDCHAR
STARTCHAR 2001
ENCODING 8193
SWIDTH 990 0
DWIDTH 22 0
BBX 0 0 0 0
BITMAP
ENDCHAR
STARTCHAR 2002
ENCODING 8194
SWIDTH 495 0
DWIDTH 11 0
BBX 0 0 0 0
BITMAP
ENDCHAR
STARTCHAR 2003
ENCODING 8195
SWIDTH 990 0
DWIDTH 22 0
BBX 0 0 0 0
BITMAP
ENDCHAR
STARTCHAR 2004
ENCODING 8196
SWIDTH 315 0
DWIDTH 7 0
BBX 0 0 0 0
BITMAP
ENDCHAR
STARTCHAR 2005
ENCODING 8197
SWIDTH 270 0
DWIDTH 6 0
BBX 0 0 0 0
BITMAP
ENDCHAR
STARTCHAR 2006
ENCODING 8198
SWIDTH 180 0
DWIDTH 4 0
BBX 0 0 0 0
BITMAP
ENDCHAR
STARTCHAR 2007
ENCODING 8199
SWIDTH 540 0
DWIDTH 12 0
BBX 0 0 0 0
BITMAP
ENDCHAR
STARTCHAR 2008
ENCODING 8200
SWIDTH 270 0
DWIDTH 6 0
BBX 0 0 0 0
BITMAP
ENDCHAR
STARTCHAR 2009
ENCODING 8201
SWIDTH 180 0
DWIDTH 4 0
BBX 0 0 0 0
BITMAP
ENDCHAR
STARTCHAR 200A
ENCODING 8202
SWIDTH 90 0
DWIDTH 2 0
BBX 0 0 0 0
BITMAP
ENDCHAR
STARTCHAR 200B
ENCODING 8203
SWIDTH 0 0
DWIDTH 0 0
BBX 0 0 0 0
BITMAP
ENDCHAR
STARTCHAR 2013
ENCODING 8211
SWIDTH 675 0
DWIDTH 15 0
BBX 11 2 2 7
BITMAP
FFE0
FFE0
ENDCHAR
STARTCHAR 2014
ENCODING 8212
SWIDTH 765 0
DWIDTH 17 0
BBX 14 2 2 7
BITMAP
FFFC
FFFC
ENDCHAR
STARTCHAR 2015
ENCODING 8213
SWIDTH 765 0
DWIDTH 17 0
BBX 14 2 2 7
BITMAP
FFFC
FFFC
ENDCHAR
STARTCHAR 2017
ENCODING 8215
SWIDTH 585 0
DWIDTH 13 0
BBX 10 5 1 -5
BITMAP
FFC0
FFC0
0000
FFC0
FFC0
ENDCHAR
STARTCHAR 2018
ENCODING 8216
SWIDTH 180 0
DWIDTH 4 0
BBX 3 6 1 11
BITMAP
60
60
C0
C0
C0
C0
ENDCHAR
STARTCHAR 2019
ENCODING 8217
SWIDTH 180 0
DWIDTH 4 0
BBX 4 6 0 11
BITMAP
70
70
70
60
60
C0
ENDCHAR
STARTCHAR 201A
ENCODING 8218
SWIDTH 180 0
DWIDTH 4 0
BBX 3 6 0 -4
BITMAP
60
60
60
60
E0
40
ENDCHAR
STARTCHAR 201B
ENCODING 8219
SWIDTH 225 0
DWIDTH 5 0
BBX 4 6 0 11
BITMAP
E0
E0
E0
60
60
30
ENDCHAR
STARTCHAR 201C
ENCODING 8220
SWIDTH 360 0
DWIDTH 8 0
BBX 7 6 1 11
BITMAP
66
6C
CC
CC
CC
CC
ENDCHAR
STARTCHAR 201D
ENCODING 8221
SWIDTH 360 0
DWIDTH 8 0
BBX 6 6 1 11
BITMAP
6C
6C
6C
EC
CC
98
ENDCHAR
STARTCHAR 201E
ENCODING 8222
SWIDTH 360 0
DWIDTH 8 0
BBX 7 6 0 -4
BITMAP
66
66
6E
6C
EC
48
ENDCHAR
STARTCHAR 2020
ENCODING 8224
SWIDTH 540 0
DWIDTH 12 0
BBX 10 16 1 0
BITMAP
0C00
0C00
0C00
0C00
FFC0
FFC0
0C00
0C00
0C00
0C00
0C00
0C00
0C00
0C00
0C00
0C00
ENDCHAR
STARTCHAR 2021
ENCODING 8225
SWIDTH 540 0
DWIDTH 12 0
BBX 10 21 1 -5
BITMAP
0C00
0C00
0C00
0C00
FFC0
FFC0
0C00
0C00
0C00
0C00
0C00
0C00
0C00
0C00
FFC0
FFC0
0C00
0C00
0C00
0C00
0C00
ENDCHAR
STARTCHAR 2022
ENCODING 8226
SWIDTH 315 0
DWIDTH 7 0
BBX 5 5 1 6
BITMAP
70
78
F8
78
70
ENDCHAR
STARTCHAR 2025
ENCODING 8229
SWIDTH 450 0
DWIDTH 10 0
BBX 6 2 2 0
BITMAP
CC
CC
ENDCHAR
STARTCHAR 2026
ENCODING 8230
SWIDTH 630 0
DWIDTH 14 0
BBX 11 2 2 0
BITMAP
CC60
CC60
ENDCHAR
STARTCHAR 2030
ENCODING 8240
SWIDTH 945 0
DWIDTH 21 0
BBX 19 16 1 0
BITMAP
780000
CC0000
842000
846000
844000
CC8000
798000
010000
030000
067BC0
04CE60
0CC420
18C420
10C420
10CE60
007BC0
ENDCHAR
STARTCHAR 2032
ENCODING 8242
SWIDTH 225 0
DWIDTH 5 0
BBX 1 6 2 11
BITMAP
80
80
80
80
80
80
ENDCHAR
STARTCHAR 2033
ENCODING 8243
SWIDTH 360 0
DWIDTH 8 0
BBX 5 6 2 11
BITMAP
98
98
98
98
90
90
ENDCHAR
STARTCHAR 2039
ENCODING 8249
SWIDTH 270 0
DWIDTH 6 0
BBX 4 9 1 2
BITMAP
10
30
60
40
C0
C0
60
30
10
ENDCHAR
STARTCHAR 203A
ENCODING 8250
SWIDTH 270 0
DWIDTH 6 0
BBX 5 9 1 2
BITMAP
C0
40
60
30
18
30
60
60
C0
ENDCHAR
STARTCHAR 203C
ENCODING 8252
SWIDTH 450 0
DWIDTH 10 0
BBX 7 16 2 0
BITMAP
C6
C6
C6
C6
C6
C6
C6
C6
C6
C6
C6
00
00
00
C6
C6
ENDCHAR
STARTCHAR 2044
ENCODING 8260
SWIDTH 450 0
DWIDTH 10 0
BBX 9 13 0 1
BITMAP
0080
0180
0300
0200
0600
0400
0C00
1800
1000
3000
6000
4000
C000
ENDCHAR
STARTCHAR 2074
ENCODING 8308
SWIDTH 450 0
DWIDTH 10 0
BBX 8 10 1 6
BITMAP
0E
0E
1E
36
26
66
C6
FF
06
06
ENDCHAR
STARTCHAR 207F
ENCODING 8319
SWIDTH 450 0
DWIDTH 10 0
BBX 6 9 2 7
BITMAP
B8
FC
CC
C4
C4
C4
C4
C4
C4
ENDCHAR
STARTCHAR 20A3
ENCODING 8355
SWIDTH 630 0
DWIDTH 14 0
BBX 12 16 1 0
BITMAP
FFF0
FFF0
3030
3030
3000
3000
3000
3F80
3F80
3000
3000
FC00
FC00
3000
7800
F800
ENDCHAR
STARTCHAR 20A4
ENCODING 8356
SWIDTH 585 0
DWIDTH 13 0
BBX 11 16 1 0
BITMAP
0F00
1FC0
30C0
30C0
3000
3000
FF00
FF00
3000
FF00
FF00
3000
3060
7060
7FE0
7FE0
ENDCHAR
STARTCHAR 20A7
ENCODING 8359
SWIDTH 810 0
DWIDTH 18 0
BBX 16 16 1 0
BITMAP
FF00
FF8C
30CC
30CC
307F
307F
30CC
30CC
3F8C
3F0C
300C
300C
300C
300C
780F
F807
ENDCHAR
STARTCHAR 20AB
ENCODING 8363
SWIDTH 630 0
DWIDTH 14 0
BBX 11 20 1 -3
BITMAP
03C0
03C0
00C0
07E0
07E0
3CC0
7FC0
61C0
C0C0
C0C0
C0C0
C0C0
C0C0
C0C0
E1C0
7FE0
3CE0
0000
7FE0
7FE0
ENDCHAR
STARTCHAR 20AC
ENCODING 8364
SWIDTH 495 0
DWIDTH 11 0
BBX 9 16 1 0
BITMAP
0F80
1F80
3800
3000
7000
6000
FF80
6000
6000
FF80
6000
7000
3000
3800
1F80
0F80
ENDCHAR
STARTCHAR 2105
ENCODING 8453
SWIDTH 675 0
DWIDTH 15 0
BBX 14 16 1 0
BITMAP
7800
CC00
8C20
8060
8CC0
CC80
7980
0100
0300
0670
04D8
0D8C
198C
118C
3088
00F8
ENDCHAR
STARTCHAR 2113
ENCODING 8467
SWIDTH 450 0
DWIDTH 10 0
BBX 8 16 1 0
BITMAP
1E
3F
33
33
33
33
36
3E
3C
F8
F0
30
30
30
1C
0C
ENDCHAR
STARTCHAR 2116
ENCODING 8470
SWIDTH 1125 0
DWIDTH 25 0
BBX 23 16 1 0
BITMAP
F03E3C
F83E6E
3818C6
3C18C2
3C18C2
3618C6
3318C6
33187C
319810
31D800
30D87E
30787E
307800
303800
F83800
F81800
ENDCHAR
STARTCHAR 2122
ENCODING 8482
SWIDTH 630 0
DWIDTH 14 0
BBX 11 6 1 10
BITMAP
F420
2660
2660
25A0
25A0
24A0
ENDCHAR
STARTCHAR 2126
ENCODING 8486
SWIDTH 675 0
DWIDTH 15 0
BBX 13 16 1 0
BITMAP
0F80
3FC0
7060
6030
E030
C030
C030
C038
C030
C030
4030
6030
6060
38C0
FDF0
FDF0
ENDCHAR
STARTCHAR 212E
ENCODING 8494
SWIDTH 585 0
DWIDTH 13 0
BBX 11 12 1 0
BITMAP
0F00
3180
6040
6060
E060
FFE0
E000
E000
6000
6000
30C0
1F00
ENDCHAR
STARTCHAR 215B
ENCODING 8539
SWIDTH 810 0
DWIDTH 18 0
BBX 16 16 1 0
BITMAP
6000
E000
2020
2060
20C0
2080
2180
231E
2233
0623
0433
0C1E
1833
3061
1073
001E
ENDCHAR
STARTCHAR 215C
ENCODING 8540
SWIDTH 855 0
DWIDTH 19 0
BBX 18 15 1 0
BITMAP
7C0000
C61800
061000
3C3000
062000
066000
C6CF80
7C9DC0
0198C0
031880
020F00
0619C0
0C18C0
041DC0
000F80
ENDCHAR
STARTCHAR 215D
ENCODING 8541
SWIDTH 900 0
DWIDTH 20 0
BBX 19 15 1 0
BITMAP
7E0000
600C00
601800
7C1000
463000
062000
C66780
7CCCC0
008CC0
018CC0
030780
020CC0
061860
040CC0
000780
ENDCHAR
STARTCHAR 215E
ENCODING 8542
SWIDTH 810 0
DWIDTH 18 0
BBX 17 16 1 0
BITMAP
FC0000
0C0000
083000
186000
304000
30C000
308000
319E00
033300
023100
063300
0C1E00
083300
182180
103380
001F00
ENDCHAR
STARTCHAR 2202
ENCODING 8706
SWIDTH 585 0
DWIDTH 13 0
BBX 11 16 1 0
BITMAP
0E00
0F00
0380
01C0
00C0
1CC0
3FE0
61E0
C0E0
C0E0
C0E0
C0C0
C0C0
61C0
7F80
1E00
ENDCHAR
STARTCHAR 2206
ENCODING 8710
SWIDTH 675 0
DWIDTH 15 0
BBX 15 16 0 0
BITMAP
0180
0380
03C0
03C0
06E0
0660
0C60
0C30
1C30
1830
1818
3018
301C
700C
7FFC
FFFE
ENDCHAR
STARTCHAR 220F
ENCODING 8719
SWIDTH 765 0
DWIDTH 17 0
BBX 15 18 1 -2
BITMAP
FFFE
FFFE
7018
7018
7018
7018
7018
7018
7018
7018
7018
7018
7018
7018
7018
7018
7018
7018
ENDCHAR
STARTCHAR 2211
ENCODING 8721
SWIDTH 585 0
DWIDTH 13 0
BBX 12 19 1 -3
BITMAP
FFE0
FFE0
E060
6060
3000
1800
0C00
0E00
0700
0380
0300
0600
0C00
1800
3800
7000
6030
FFF0
FFF0
ENDCHAR
STARTCHAR 2212
ENCODING 8722
SWIDTH 540 0
DWIDTH 12 0
BBX 9 2 2 7
BITMAP
FF80
FF80
ENDCHAR
STARTCHAR 2215
ENCODING 8725
SWIDTH 450 0
DWIDTH 10 0
BBX 9 13 0 1
BITMAP
0080
0180
0300
0200
0600
0400
0C00
1800
1000
3000
6000
4000
C000
ENDCHAR
STARTCHAR 221A
ENCODING 8730
SWIDTH 585 0
DWIDTH 13 0
BBX 12 15 1 1
BITMAP
0070
0060
0060
00E0
00C0
00C0
0180
E180
F180
3300
3300
1A00
1E00
0E00
0C00
ENDCHAR
STARTCHAR 221E
ENCODING 8734
SWIDTH 1035 0
DWIDTH 23 0
BBX 20 12 1 0
BITMAP
1E07C0
3F0FE0
619870
E0F830
C07030
C06030
C06030
C07030
E0F030
619870
3F0FE0
1E07C0
ENDCHAR
STARTCHAR 222B
ENCODING 8747
SWIDTH 315 0
DWIDTH 7 0
BBX 8 22 -1 -5
BITMAP
07
1F
18
18
18
18
18
18
18
18
18
18
18
18
18
18
18
18
18
38
F0
E0
ENDCHAR
STARTCHAR 2248
ENCODING 8776
SWIDTH 585 0
DWIDTH 13 0
BBX 11 8 1 3
BITMAP
7820
FFE0
83C0
0000
0000
7820
FFC0
83C0
ENDCHAR
STARTCHAR 2260
ENCODING 8800
SWIDTH 495 0
DWIDTH 11 0
BBX 9 12 2 1
BITMAP
0300
0200
0600
FF80
FF80
0800
1000
FF80
FF80
6000
4000
4000
ENDCHAR
STARTCHAR 2264
ENCODING 8804
SWIDTH 495 0
DWIDTH 11 0
BBX 9 12 2 0
BITMAP
0080
0780
1F00
7800
C000
F000
1E00
0780
0180
0000
FF80
FF80
ENDCHAR
STARTCHAR 2265
ENCODING 8805
SWIDTH 540 0
DWIDTH 12 0
BBX 9 12 2 0
BITMAP
8000
C000
F800
1E00
0380
0F80
3C00
F000
8000
0000
FF80
FF80
ENDCHAR
STARTCHAR 25CA
ENCODING 9674
SWIDTH 495 0
DWIDTH 11 0
BBX 10 16 1 0
BITMAP
0800
1C00
1E00
3600
3300
6300
6180
C180
C0C0
C180
6180
6300
3200
1600
1C00
0C00
ENDCHAR
STARTCHAR F6C3
ENCODING 63171
SWIDTH 0 0
DWIDTH 0 0
BBX 3 4 0 -6
BITMAP
60
60
60
C0
ENDCHAR
STARTCHAR FB01
ENCODING 64257
SWIDTH 585 0
DWIDTH 13 0
BBX 13 17 0 0
BITMAP
0F80
1FC0
3800
3000
3000
FFE0
FFE0
3060
3060
3060
3060
3060
3060
3060
3060
7CF0
7DF8
ENDCHAR
STARTCHAR FB02
ENCODING 64258
SWIDTH 675 0
DWIDTH 15 0
BBX 13 17 1 0
BITMAP
1FE0
3FE0
3060
6060
6060
FC60
FC60
6060
6060
6060
6060
6060
6060
6060
6060
F8F0
F9F8
ENDCHAR
STARTCHAR FB03
ENCODING 64259
SWIDTH 945 0
DWIDTH 21 0
BBX 20 17 1 0
BITMAP
1E1F80
3E3F00
307000
306000
706000
FDFFC0
FDFFC0
7060C0
7060C0
7060C0
7060C0
7060C0
7060C0
7060C0
7060C0
F8F1E0
FDFBF0
ENDCHAR
STARTCHAR FB04
ENCODING 64260
SWIDTH 990 0
DWIDTH 22 0
BBX 20 17 1 0
BITMAP
1E1FE0
3E3FE0
307060
306060
706060
FCFC60
FCFC60
706060
706060
706060
706060
706060
706060
706060
706060
F8F1F0
FDF9F0
ENDCHAR
STARTCHAR FEFF
ENCODING 65279
SWIDTH 0 0
DWIDTH 0 0
BBX 0 0 0 0
BITMAP
ENDCHAR
STARTCHAR FFFC
ENCODING 65532
SWIDTH 1080 0
DWIDTH 24 0
BBX 20 20 2 -4
BITMAP
EEE770
800010
800010
000000
000000
800010
800010
9CF050
129040
A29050
A2F050
928850
1CF380
800010
800010
800010
000000
800010
800010
EEE770
ENDCHAR
STARTCHAR FFFD
ENCODING 65533
SWIDTH 945 0
DWIDTH 21 0
BBX 21 21 0 0
BITMAP
002000
007000
00F800
01FC00
03FE00
07FF00
0F0780
1F23C0
3FF3E0
7FF3F0
FFE7F8
3FCFF0
3F8FE0
1FFFC0
0F8F80
078F00
03FE00
01FC00
00F800
007000
002000
ENDCHAR
ENDFONT
